<?xml version="1.0" standalone="no"?>
<!DOCTYPE svg PUBLIC "-//W3C//DTD SVG 1.1//EN" "http://www.w3.org/Graphics/SVG/1.1/DTD/svg11.dtd" >
<svg xmlns="http://www.w3.org/2000/svg" xmlns:xlink="http://www.w3.org/1999/xlink" version="1.1">
<metadata>
Created by FontForge 20201107 at Wed Oct  8 15:09:05 2014
 By Unknown
Copyright (c) 2014 by Richard Miller. All rights reserved.
</metadata>
<defs>
<font id="Uniform" horiz-adv-x="605" >
  <font-face 
    font-family="Uniform"
    font-weight="400"
    font-stretch="normal"
    units-per-em="1000"
    panose-1="2 0 0 0 0 0 0 0 0 0"
    ascent="807"
    descent="-193"
    x-height="509"
    cap-height="700"
    bbox="-190 -212.002 1192 950.001"
    underline-thickness="50"
    underline-position="-100"
    unicode-range="U+0020-FB02"
  />
<missing-glyph horiz-adv-x="691" 
d="M20 0v700h651v-700h-651zM381 350l159 158l-36 36l-159 -158l-158 159l-36 -36l158 -159l-159 -159l36 -36l159 159l159 -159l36 36z" />
    <glyph glyph-name="ellipsis" unicode="&#x2e;&#x2e;&#x2e;" horiz-adv-x="721" 
d="M103 98c14.667 0 27.332 -5.33301 37.999 -16s16 -23.334 16 -38.001s-5.16699 -27.334 -15.5 -38.001s-23.166 -16 -38.499 -16c-14.667 0 -27.167 5.33301 -37.5 16s-15.5 23.334 -15.5 38.001s5.16699 27.334 15.5 38.001s22.833 16 37.5 16zM359.998 98
c14.667 0 27.333 -5.33301 38 -16s16 -23.334 16 -38.001s-5.33301 -27.334 -16 -38.001c-10.668 -10.667 -23.335 -16 -38 -16c-14.667 0 -27.167 5.33301 -37.5 16s-15.5 23.334 -15.5 38.001s5.16699 27.334 15.5 38.001s22.833 16 37.5 16zM616.997 98
c14.6689 0 27.335 -5.33301 37.999 -16c10.667 -10.667 16 -23.334 16 -38.001s-5.16699 -27.334 -15.5 -38.001s-23.166 -16 -38.499 -16c-14.667 0 -27.167 5.33301 -37.5 16s-15.5 23.334 -15.5 38.001s5.16699 27.334 15.5 38.001s22.833 16 37.5 16z" />
    <glyph glyph-name="ff" unicode="ff" horiz-adv-x="760" 
d="M545 519v-39h195v-61h-195v-419h-75v520c0 62 15.167 109.167 45.5 141.5s72.833 48.5 127.5 48.5c22 0 41.833 -1.66699 59.5 -5c17.667 -3.33887 30.167 -6.67188 37.5 -10l10 -5l-11 -59c-20.667 10 -48.667 15 -84 15c-34.667 0 -61.667 -10.667 -81 -32
s-29 -53 -29 -95zM200 529l-0.000976562 -49h195v-61h-195v-419h-75v419h-105v61h105v53c0 56.667 15.167 100.334 45.5 131c30.333 30.667 71.833 46 124.5 46c22 0 42.167 -1.66699 60.5 -5c18.335 -3.33887 31.168 -6.67188 38.5 -10l11 -5l-11 -59
c-21.333 10 -49.666 15 -84.999 15c-34 0 -60.667 -10 -80 -30s-29 -49 -29 -87z" />
    <glyph glyph-name="ft" unicode="ft" horiz-adv-x="775" 
d="M545 640l0.00195312 -131.001h200v-61h-200v-284c0 -35.333 8.33301 -61.666 25 -78.999s39.667 -26 69 -26c14.667 0 30 1.16699 46 3.5s28.333 4.83301 37 7.5l12 4l11 -63c-28.667 -14 -68.334 -21 -119.001 -21c-48.667 0 -86.834 13.833 -114.501 41.5
s-41.5 67.5 -41.5 119.5v489h75zM200.002 528.999l-0.000976562 -50h195v-60h-195v-419h-75v419h-105v60h105v54c0 56.667 15.167 100.334 45.5 131c30.333 30.667 71.833 46 124.5 46c22 0 42.167 -1.66699 60.5 -5c18.335 -3.33887 31.168 -6.67188 38.5 -10l11 -5
l-11 -59c-21.333 10 -49.666 15 -84.999 15c-34 0 -60.667 -10 -80 -30s-29 -49 -29 -87z" />
    <glyph glyph-name="rf" unicode="rf" horiz-adv-x="735" 
d="M520 519v-40h195v-60h-195v-419h-75v520c0 62 15.167 109.167 45.5 141.5s72.833 48.5 127.5 48.5c22 0 41.833 -1.66699 59.5 -5c17.6719 -3.33887 29.8389 -6.67188 36.5 -10l11 -5l-11 -59c-20.667 10 -48.667 15 -84 15c-34.667 0 -61.667 -10.667 -81 -32
s-29 -53 -29 -95zM80 0v510h66l6 -115c38.667 83.333 108.667 125 210 125l-2 -76h-13c-60 0 -107 -17.667 -141 -53s-51 -88.333 -51 -159v-232h-75z" />
    <glyph glyph-name="rt" unicode="rt" horiz-adv-x="750" 
d="M520 640l0.00195312 -131.001h200v-61h-200v-284c0 -35.333 8.33301 -61.666 25 -78.999s39.667 -26 69 -26c14.667 0 30 1.16699 46 3.5s28 4.83301 36 7.5l13 4l11 -63c-28.667 -14 -68.334 -21 -119.001 -21c-48.667 0 -86.834 13.833 -114.501 41.5
s-41.5 67.5 -41.5 119.5v489h75zM155.002 222.999l0.000976562 -223h-75v510h66l6 -115c38.667 83.333 108.667 125 210 125l-2 -76h-13c-60.667 0 -107.834 -18.333 -141.501 -55s-50.5 -92 -50.5 -166z" />
    <glyph glyph-name="tf" unicode="tf" horiz-adv-x="765" 
d="M550 519v-40h195v-60h-195v-419h-75v520c0 62 15.167 109.167 45.5 141.5s72.833 48.5 127.5 48.5c22 0 41.833 -1.66699 59.5 -5c17.6719 -3.33887 29.8389 -6.67188 36.5 -10l11 -5l-11 -59c-20.667 10 -48.667 15 -84 15c-34.667 0 -61.667 -10.667 -81 -32
s-29 -53 -29 -95zM200 640l0.00195312 -131.001h200v-60h-200v-285c0 -35.333 8.33301 -61.666 25 -78.999s39.667 -26 69 -26c14.667 0 30 1.16699 46 3.5s28 4.83301 36 7.5l13 4l11 -63c-28.667 -14 -68.334 -21 -119.001 -21c-48.667 0 -86.834 13.833 -114.501 41.5
s-41.5 67.5 -41.5 119.5v298h-105v60h105v131h75z" />
    <glyph glyph-name="tt" unicode="tt" horiz-adv-x="780" 
d="M550 640l0.00195312 -131.001h200v-60h-200v-285c0 -35.333 8.33301 -61.666 25 -78.999s39.667 -26 69 -26c14.667 0 30 1.16699 46 3.5s28 4.83301 36 7.5l13 4l11 -63c-28.667 -14 -68.334 -21 -119.001 -21c-48.667 0 -86.834 13.833 -114.501 41.5
s-41.5 67.5 -41.5 119.5v489h75zM200.002 639.999l0.00195312 -131.001h200v-60h-200v-285c0 -35.333 8.33301 -61.666 25 -78.999s39.667 -26 69 -26c14.667 0 30 1.16699 46 3.5s28 4.83301 36 7.5l13 4l11 -63c-28.667 -14 -68.334 -21 -119.001 -21
c-48.667 0 -86.834 13.833 -114.501 41.5s-41.5 67.5 -41.5 119.5v298h-105v60h105v131h75z" />
    <glyph glyph-name="rtf" unicode="rtf" horiz-adv-x="1085" 
d="M520 640l0.00195312 -131.001h200v-61h-200v-284c0 -35.333 8.33301 -61.666 25 -78.999s39.667 -26 69 -26c14.667 0 30 1.16699 46 3.5s28 4.83301 36 7.5l13 4l11 -63c-28.667 -14 -68.334 -21 -119.001 -21c-48.667 0 -86.834 13.833 -114.501 41.5
s-41.5 67.5 -41.5 119.5v489h75zM155.002 222.999l0.000976562 -223h-75v510h66l6 -115c38.667 83.333 108.667 125 210 125l-2 -76h-13c-60.667 0 -107.834 -18.333 -141.501 -55s-50.5 -92 -50.5 -166zM870.003 518.999l-0.000976562 -40h195v-60h-195v-419h-75v520
c0 62 15.167 109.167 45.5 141.5s72.833 48.5 127.5 48.5c22 0 41.833 -1.66699 59.5 -5c17.667 -3.33887 29.834 -6.67188 36.501 -10l11 -5l-11 -59c-20.667 10 -48.667 15 -84 15c-34.667 0 -61.667 -10.667 -81 -32s-29 -53 -29 -95z" />
    <glyph glyph-name=".notdef" horiz-adv-x="691" 
d="M20 0v700h651v-700h-651zM381 350l159 158l-36 36l-159 -158l-158 159l-36 -36l158 -159l-159 -159l36 -36l159 159l159 -159l36 36z" />
    <glyph glyph-name="space" unicode=" " horiz-adv-x="247" 
 />
    <glyph glyph-name="exclam" unicode="!" horiz-adv-x="287" 
d="M116 213l-19 487h93l-19 -487h-55zM143 98c14.667 0 27.334 -5.33301 38 -16c10.667 -10.667 16 -23.334 16 -38.001s-5.16699 -27.334 -15.5 -38.001c-10.334 -10.667 -23.167 -16 -38.5 -16c-14.667 0 -27.167 5.33301 -37.5 16s-15.5 23.334 -15.5 38.001
s5.16699 27.334 15.5 38.001s22.833 16 37.5 16z" />
    <glyph glyph-name="quotedbl" unicode="&#x22;" horiz-adv-x="307" 
d="M111 460h-61v240h61v-240zM257 460h-61v240h61v-240z" />
    <glyph glyph-name="numbersign" unicode="#" 
d="M244 383l-33 -166h150l33 166h-150zM318 0l33 168h-150l-33 -168h-55l33 168h-106v49h116l33 166h-109v49h119l34 168h55l-34 -168h150l34 168h55l-34 -168h106v-49h-116l-33 -166h109v-49h-119l-33 -168h-55z" />
    <glyph glyph-name="dollar" unicode="$" horiz-adv-x="540" 
d="M255 800l51.998 0.00390625v-93c24 -2 46.333 -7.16699 67 -15.5c20.667 -8.33887 37.5 -17.6719 50.5 -28c13 -10.333 24.333 -20.333 34 -30s16.5 -17.834 20.5 -24.501l6 -10l-56 -39c-1.33301 2 -3.16602 5 -5.49902 9s-8 10.667 -17 20s-18.667 17.666 -29 24.999
s-24.166 14 -41.499 20s-35.666 9 -54.999 9c-39.333 0 -70.5 -9.83301 -93.5 -29.5s-34.5 -43.834 -34.5 -72.501c0 -30.667 11.667 -57.667 35 -81s60 -45.666 110 -66.999c124.667 -52.667 187 -124 187 -214c0 -50 -16.5 -91.833 -49.5 -125.5
s-75.833 -53.834 -128.5 -60.501v-93h-52v92c-28 1.33301 -54.5 6.66602 -79.5 15.999s-45 20.166 -60 32.499s-28.167 24.5 -39.5 36.5s-19.333 22.333 -24 31l-7 12l57 39c1.33301 -2.66699 3.5 -6.33398 6.5 -11.001s9.83301 -13 20.5 -25s22.167 -22.5 34.5 -31.5
s28.666 -17.167 48.999 -24.5s41.5 -11 63.5 -11c39.333 0 71.333 10.833 96 32.5s37 49.167 37 82.5c0 34.667 -12.333 64.834 -37 90.501s-65.667 50.834 -123 75.501c-114.667 50 -172 116 -172 198c0 46 16.667 85 50 117s76 50.333 128 55v93z" />
    <glyph glyph-name="percent" unicode="%" horiz-adv-x="770" 
d="M106 465c0 -26.667 8.66699 -49 26 -67s39 -27 65 -27s47.5 8.83301 64.5 26.5s25.5 40.167 25.5 67.5c0 26.667 -8.5 48.834 -25.5 66.501s-38.5 26.5 -64.5 26.5s-47.667 -8.83301 -65 -26.5s-26 -39.834 -26 -66.501zM50 464c0 42 14 76.833 42 104.5
s63 41.5 105 41.5s77 -13.667 105 -41s42 -62 42 -104s-14 -76.833 -42 -104.5s-63 -41.5 -105 -41.5s-77 13.833 -105 41.5s-42 62.167 -42 103.5zM148 0l414 600h60l-414 -600h-60zM426 136c0 42 14 76.833 42 104.5s63 41.5 105 41.5s77 -13.833 105 -41.5
s42 -62.5 42 -104.5c0 -41.333 -14.167 -76 -42.5 -104c-28.335 -28 -63.168 -42 -104.5 -42c-42 0 -77 13.833 -105 41.5s-42 62.5 -42 104.5zM482 136c0 -26.667 8.66699 -48.834 26 -66.501s39 -26.5 65 -26.5s47.5 8.83301 64.5 26.5s25.5 39.834 25.5 66.501
s-8.5 48.834 -25.5 66.501s-38.5 26.5 -64.5 26.5s-47.667 -8.83301 -65 -26.5s-26 -39.834 -26 -66.501z" />
    <glyph glyph-name="ampersand" unicode="&#x26;" horiz-adv-x="710" 
d="M615 400l80 0.000976562l-175 -226l175 -174h-89l-125 123c-35.333 -45.333 -71.333 -78.833 -108 -100.5s-77.667 -32.5 -123 -32.5c-58 0 -106.667 18.5 -146 55.5s-59 82.5 -59 136.5c0 89.333 54.333 159.666 163 210.999c-58.667 62 -88 117 -88 165
c0 43.333 16.833 79.5 50.5 108.5s76.167 43.5 127.5 43.5c51.334 0 93.167 -14.833 125.5 -44.5s48.5 -66.167 48.5 -109.5c0 -74.667 -51 -134.667 -153 -180l156 -156zM256 55.001c60.667 0 116.333 32.667 167 98l12 15l-182 180c-90.667 -40 -136 -93.333 -136 -160
c0 -37.333 13.167 -68.833 39.5 -94.5s59.5 -38.5 99.5 -38.5zM190.999 557.001c0 -22.667 6.33301 -43.834 19 -63.501s34.334 -44.5 65 -74.5c46 18.667 79.167 38.334 99.5 59.001s30.5 45.334 30.5 74.001c0 27.333 -10 50.5 -30 69.5s-45.667 28.5 -77 28.5
s-57 -8.83301 -77 -26.5s-30 -39.834 -30 -66.501z" />
    <glyph glyph-name="quotesingle" unicode="'" horiz-adv-x="161" 
d="M111 460h-61v240h61v-240z" />
    <glyph glyph-name="parenleft" unicode="(" horiz-adv-x="426" 
d="M391 -46l-31.002 -54c-4 1.33301 -9.5 3.66602 -16.5 7c-7 3.33301 -20.833 11.166 -41.5 23.499s-40.167 25.833 -58.5 40.5s-38.833 34.834 -61.5 60.501s-42.167 52.834 -58.5 81.501s-30.166 63.667 -41.499 105s-17 85 -17 131c0 45.334 5.5 88.667 16.5 130
s25.167 76.666 42.5 105.999s36.333 56.5 57 81.5s41.5 45.5 62.5 61.5s40.167 29.667 57.5 41c17.334 11.333 31.667 19.333 43 24l16 7l31 -54c-6.66699 -3.33301 -15.667 -8 -27 -14s-31.666 -20.667 -60.999 -44s-55 -48.833 -77 -76.5s-42.167 -65 -60.5 -112
s-27.5 -96.833 -27.5 -149.5c0 -38.667 4.66699 -75.5 14 -110.5s21.5 -65.5 36.5 -91.5s31.333 -50 49 -72s35.5 -40.333 53.5 -55s34.5 -27.167 49.5 -37.5s27.167 -17.833 36.5 -22.5z" />
    <glyph glyph-name="parenright" unicode=")" horiz-adv-x="426" 
d="M35 746l31 53.999c4 -1.35742 9.5 -3.69043 16.5 -6.99902c7 -3.33984 20.833 -11.1729 41.5 -23.5c20.667 -12.333 40.167 -25.833 58.5 -40.5s38.833 -34.834 61.5 -60.501s42.167 -52.834 58.5 -81.501c16.334 -28.667 30.167 -63.667 41.5 -105s17 -85 17 -131
c0 -45.333 -5.5 -88.666 -16.5 -129.999s-25.167 -76.666 -42.5 -105.999s-36.333 -56.5 -57 -81.5s-41.5 -45.5 -62.5 -61.5s-40.167 -29.667 -57.5 -41s-31.666 -19.333 -42.999 -24l-16 -7l-31 54c6.66699 3.33301 15.667 8 27 14s31.666 20.667 60.999 44
s55 48.833 77 76.5s42.167 65 60.5 112s27.5 96.833 27.5 149.5c0 38.667 -4.66699 75.5 -14 110.5s-21.5 65.5 -36.5 91.5s-31.333 50 -49 72s-35.5 40.333 -53.5 55s-34.5 27.167 -49.5 37.5s-27.167 17.833 -36.5 22.5z" />
    <glyph glyph-name="asterisk" unicode="*" horiz-adv-x="494" 
d="M279 700l-9 -163l155 57l19 -60l-158 -44l102 -128l-50 -37l-91 136l-90 -136l-51 37l101 128l-157 44l19 60l154 -57l-8 163h64z" />
    <glyph glyph-name="plus" unicode="+" 
d="M333 616v-229h222v-61h-222v-229h-62v229h-221v61h221v229h62z" />
    <glyph glyph-name="comma" unicode="," horiz-adv-x="187" 
d="M101 -130h-61l26 240h81z" />
    <glyph glyph-name="hyphen" unicode="-" horiz-adv-x="420" 
d="M370 324h-320v66h320v-66z" />
    <glyph glyph-name="period" unicode="." horiz-adv-x="207" 
d="M103 98c14.667 0 27.332 -5.33301 37.999 -16s16 -23.334 16 -38.001s-5.16699 -27.334 -15.5 -38.001s-23.166 -16 -38.499 -16c-14.667 0 -27.167 5.33301 -37.5 16s-15.5 23.334 -15.5 38.001s5.16699 27.334 15.5 38.001s22.833 16 37.5 16z" />
    <glyph glyph-name="slash" unicode="/" horiz-adv-x="477" 
d="M0 -80l410 860h67l-410 -860h-67z" />
    <glyph glyph-name="zero" unicode="0" 
d="M147 480v-260c0 -49.333 14.167 -88.5 42.5 -117.5s65.833 -43.5 112.5 -43.5s84.167 14.5 112.5 43.5s42.5 68.167 42.5 117.5v260c0 49.333 -14.167 88.5 -42.5 117.5s-65.833 43.5 -112.5 43.5s-84.167 -14.5 -112.5 -43.5s-42.5 -68.167 -42.5 -117.5zM72 226
l-0.000976562 245c0 74 21.5 132.333 64.5 175s98.833 64 167.5 64s123.834 -20.833 165.501 -62.5s62.5 -99.5 62.5 -173.5v-245c0 -74 -21.333 -132.333 -64 -175s-98.334 -64 -167 -64c-68.667 0 -124 20.833 -166 62.5s-63 99.5 -63 173.5z" />
    <glyph glyph-name="one" unicode="1" horiz-adv-x="450" 
d="M25 527l245 173h60v-700h-75v607l-191 -131z" />
    <glyph glyph-name="two" unicode="2" horiz-adv-x="559" 
d="M59 54l267.001 275.998c34 35.333 58 66.333 72 93s21 54.334 21 83.001c0 38.667 -13.833 71 -41.5 97s-61.5 39 -101.5 39c-22 0 -42.667 -3.66699 -62 -11s-35 -16 -47 -26s-22.333 -20.167 -31 -30.5c-8.66699 -10.334 -14.667 -19.167 -18 -26.499l-6 -11l-57 33
c1.33301 4 3.66602 9.16699 6.99902 15.5s11.166 17.5 23.499 33.5s26.333 30.167 42 42.5s37.334 23.5 65.001 33.5s57.5 15 89.5 15c60 0 110.333 -18.833 151 -56.5s61 -84.5 61 -140.5c0 -40.667 -9.16699 -77.834 -27.5 -111.5
c-18.333 -33.667 -48.833 -72.5 -91.5 -116.5l-212 -220h326v-65h-430v54z" />
    <glyph glyph-name="three" unicode="3" horiz-adv-x="548" 
d="M175 395l70 0.000976562c45.333 0 81.333 11.833 108 35.5s40 53.5 40 89.5s-13.333 65.5 -40 88.5s-61.667 34.5 -105 34.5c-19.334 0 -37.167 -2.33301 -53.5 -7s-29.333 -10.5 -39 -17.5s-18.167 -14 -25.5 -21s-12.333 -12.833 -15 -17.5l-4 -7l-56 31
c1.33301 2.66699 3.5 6.5 6.5 11.5s10.167 13.5 21.5 25.5s23.833 22.667 37.5 32s32.334 17.833 56.001 25.5s48.834 11.5 75.5 11.5c62.667 0 114.334 -17.167 155.001 -51.5s61 -77.833 61 -130.5c0 -36.667 -10.667 -69.167 -32 -97.5s-50.333 -49.5 -87 -63.5
c42.667 -14.667 76.5 -37.667 101.5 -69s37.5 -67.333 37.5 -108c0 -58 -23 -105.833 -69 -143.5s-103.333 -56.5 -172 -56.5c-29.333 0 -56.833 3.83301 -82.5 11.5s-46.334 17 -62.001 28s-29.334 22 -41.001 33s-19.834 20.167 -24.501 27.5l-7 12l56 36
c1.33301 -2 3.33301 -4.83301 6 -8.5s8.83398 -10.334 18.501 -20c9.66699 -9.66699 20 -18 31 -25s26 -13.5 45 -19.5s39.167 -9 60.5 -9c48.667 0 88.5 13.167 119.5 39.5s46.5 59.166 46.5 98.499c0 40 -15.667 73.5 -47 100.5s-72.333 40.5 -123 40.5h-68v60z" />
    <glyph glyph-name="four" unicode="4" 
d="M113 246h272v358zM47 247l336 453h74v-454h100v-61h-100v-185h-72v185h-338v62z" />
    <glyph glyph-name="five" unicode="5" horiz-adv-x="581" 
d="M86 320l0.00488281 380.002h400v-65h-332v-233c38 35.333 84.667 53 140 53c65.333 0 119.5 -21.5 162.5 -64.5s64.5 -96.167 64.5 -159.5c0 -68.667 -23.5 -126 -70.5 -172s-105.833 -69 -176.5 -69c-26.667 0 -52.334 3.5 -77.001 10.5s-44.834 15.667 -60.501 26
s-29.667 20.666 -42 30.999s-21.166 19.166 -26.499 26.499l-8 10l56 41c1.33301 -2 3.5 -4.66699 6.5 -8s9.33301 -9.5 18.999 -18.5c9.66699 -9 20.167 -16.833 31.5 -23.5s26.166 -12.667 44.499 -18s37.166 -8 56.499 -8c50 0 91.167 16 123.5 48s48.5 72.667 48.5 122
c0 45.334 -15.5 83.167 -46.5 113.5s-70.5 45.5 -118.5 45.5c-18 0 -34.833 -2.33301 -50.5 -7s-28.334 -10.167 -38.001 -16.5s-18 -13 -25 -20s-12 -12.667 -15 -17s-4.5 -6.83301 -4.5 -7.5h-62z" />
    <glyph glyph-name="six" unicode="6" 
d="M303 59c48 0 87.833 15.833 119.5 47.5s47.5 71.5 47.5 119.5s-15.833 87.833 -47.5 119.5s-71.5 47.5 -119.5 47.5c-48.667 0 -88.834 -15.833 -120.501 -47.5s-47.5 -71.5 -47.5 -119.5s15.833 -87.833 47.5 -119.5s71.834 -47.5 120.501 -47.5zM116 395l209 304.999
h87l-193 -273c28 18.667 61 28 99 28c63.333 0 117 -21.667 161 -65s66 -97 66 -161c0 -68 -23.5 -124.833 -70.5 -170.5s-104.833 -68.5 -173.5 -68.5c-68 0 -125.167 22.333 -171.5 67s-69.5 100.667 -69.5 168c0 58.667 18.667 115.334 56 170.001z" />
    <glyph glyph-name="seven" unicode="7" horiz-adv-x="530" 
d="M97 0l309 634h-366v66h450v-50l-312 -650h-81z" />
    <glyph glyph-name="eight" unicode="8" 
d="M303 400c40 0 73.333 11.832 100 35.499s40 52.834 40 87.501s-13.333 63.667 -40 87s-60 35 -100 35s-73.333 -11.667 -100 -35s-40 -52.333 -40 -87s13.333 -63.834 40 -87.5c26.667 -23.667 60 -35.5 100 -35.5zM304 709.999c61.333 0 112 -17.167 152 -51.5
s60 -77.833 60 -130.5c0 -33.333 -9.33301 -63.5 -28 -90.5s-44 -48.167 -76 -63.5c40 -14.667 72.167 -37.667 96.5 -69s36.5 -67 36.5 -107c0 -60 -23.167 -109.667 -69.5 -149s-104.5 -59 -174.5 -59c-69.333 0 -126.833 19.167 -172.5 57.5s-68.5 87.5 -68.5 147.5
c0 40 12.167 75.667 36.5 107c24.333 31.334 56.5 54.667 96.5 70c-32 14.667 -57.333 35.5 -76 62.5s-28 57.167 -28 90.5c0 52.667 20.5 96.667 61.5 132s92.167 53 153.5 53zM303 54.999c48 0 87.832 13.5 119.499 40.5s47.5 61.5 47.5 103.5s-15.833 76.667 -47.5 104
s-71.5 41 -119.5 41s-88 -13.667 -120 -41s-48 -62 -48 -104s15.833 -76.5 47.5 -103.5s71.834 -40.5 120.501 -40.5z" />
    <glyph glyph-name="nine" unicode="9" 
d="M302 641c-48 0 -87.834 -15.833 -119.501 -47.5s-47.5 -71.5 -47.5 -119.5s15.833 -87.833 47.5 -119.5s71.5 -47.5 119.5 -47.5c48.667 0 88.834 15.833 120.501 47.5s47.5 71.5 47.5 119.5s-15.833 87.833 -47.5 119.5s-71.834 47.5 -120.5 47.5zM488.999 305
l-209 -305h-87l193 273c-28 -18.667 -61 -28 -99 -28c-63.333 0 -117 21.667 -161 65s-66 97 -66 161c0 68 23.5 124.833 70.5 170.5s104.833 68.5 173.5 68.5c68 0 125.167 -22.333 171.5 -67s69.5 -100.667 69.5 -168c0 -58.667 -18.667 -115.334 -56 -170z" />
    <glyph glyph-name="colon" unicode=":" horiz-adv-x="207" 
d="M103 98c14.667 0 27.332 -5.33301 37.999 -16s16 -23.334 16 -38.001s-5.16699 -27.334 -15.5 -38.001s-23.166 -16 -38.499 -16c-14.667 0 -27.167 5.33301 -37.5 16s-15.5 23.334 -15.5 38.001s5.16699 27.334 15.5 38.001s22.833 16 37.5 16zM102.998 519
c14.667 0 27.332 -5.33496 37.999 -16.002c10.667 -10.668 16 -23.335 16 -38.001c0 -15.333 -5.16699 -28.166 -15.5 -38.499s-23.166 -15.5 -38.499 -15.5c-14.667 0 -27.167 5.33301 -37.5 16s-15.5 23.334 -15.5 38.001s5.16699 27.334 15.5 38.001s22.833 16 37.5 16z
" />
    <glyph glyph-name="semicolon" unicode=";" horiz-adv-x="207" 
d="M101 -130h-61l26 240h81zM103 519c14.667 0 27.332 -5.33496 37.999 -16.002c10.667 -10.668 16 -23.335 16 -38.001c0 -15.333 -5.16699 -28.166 -15.5 -38.499s-23.166 -15.5 -38.499 -15.5c-14.667 0 -27.167 5.33301 -37.5 16s-15.5 23.334 -15.5 38.001
s5.16699 27.334 15.5 38.001s22.833 16 37.5 16z" />
    <glyph glyph-name="less" unicode="&#x3c;" 
d="M555 538l-429 -182l429 -181v-73l-505 223v60l505 222v-69z" />
    <glyph glyph-name="equal" unicode="=" 
d="M555 415h-505v61h505v-61zM555 214h-505v61h505v-61z" />
    <glyph glyph-name="greater" unicode="&#x3e;" 
d="M50 172l429 182l-429 181v73l505 -223v-60l-505 -222v69z" />
    <glyph glyph-name="question" unicode="?" horiz-adv-x="543" 
d="M263 98c14.667 0 27.332 -5.33301 37.999 -16s16 -23.334 16 -38.001s-5.16699 -27.334 -15.5 -38.001s-23.166 -16 -38.499 -16c-14.667 0 -27.167 5.33301 -37.5 16s-15.5 23.334 -15.5 38.001s5.16699 27.334 15.5 38.001s22.833 16 37.5 16zM396.998 511
c0 37.333 -12.5029 68.001 -37.5029 92.001s-55.833 36 -92.5 36c-32 0 -60.167 -8.33301 -84.5 -25s-40.833 -33.334 -49.5 -50.001l-13 -25l-60 31c1.33301 4 3.33301 9.16699 6 15.5s9.66699 17.5 21 33.5s24.333 30.167 39 42.5s35 23.5 61 33.5s54.333 15 85 15
c58 0 106 -18.167 144 -54.5s57 -80.833 57 -133.5c0 -26 -4.16699 -50 -12.5 -72s-18.666 -40.333 -30.999 -55s-26 -29.5 -41 -44.5s-28.833 -28.667 -41.5 -41s-23.667 -26.833 -33 -43.5s-14.666 -34.334 -15.999 -53.001h-70c0 26.667 5.83301 51.334 17.5 74.001
s25.667 42 42 58s32.833 31.833 49.5 47.5s30.834 33.5 42.501 53.5s17.5 41.667 17.5 65z" />
    <glyph glyph-name="at" unicode="@" horiz-adv-x="990" 
d="M582 -80l11.999 -52c-41.334 -8.66699 -74.667 -13 -99.999 -13c-122.667 0 -226.5 40.667 -311.5 122s-127.5 180 -127.5 296c0 79.333 19.5 152.5 58.5 219.5s92.333 120 160 159s141.5 58.5 221.5 58.5c122.667 0 226.667 -42.333 312 -127s128 -187.667 128 -309
c0 -84.667 -21.167 -154.834 -63.5 -210.501c-42.334 -55.667 -91.167 -83.5 -146.5 -83.5c-42.667 0 -74.167 14.833 -94.5 44.5s-27.5 67.5 -21.5 113.5v4c-39.333 -44.667 -92.333 -67 -159 -67c-60.667 0 -109.667 22 -147 66s-51.666 96.333 -42.999 157
c8 58.667 32.5 105.834 73.5 141.501s89.5 53.5 145.5 53.5c75.333 0 129.666 -30 162.999 -90l19 82h50l6 -7l-49 -348c-4 -29.333 -0.166992 -52.333 11.5 -69s29.5 -25 53.5 -25c35.333 0 68 22.5 98 67.5s45 100.833 45 167.5c0 108 -36.667 198.667 -110 272
c-73.334 73.333 -163.667 110 -271 110c-106 0 -196 -36.833 -270 -110.5s-111 -163.5 -111 -269.5c0 -99.333 37 -184.5 111 -255.5s164 -106.5 270 -106.5c30.667 0 59.667 3 87 9zM483.999 431c-40 0 -74.5 -12.5 -103.5 -37.5s-46.5 -57.5 -52.5 -97.5
c-6.66504 -44 3.16797 -81.667 29.5 -113c26.333 -31.333 61.5 -47 105.5 -47c40 0 75.333 12.333 106 37s49 57 55 97c6.66699 44 -4 81.833 -32 113.5s-64 47.5 -108 47.5z" />
    <glyph glyph-name="A" unicode="A" horiz-adv-x="700" 
d="M348 612l-148 -347h295zM389 700l301 -700h-85l-86 202h-342l-86 -202h-81l301 700h78z" />
    <glyph glyph-name="B" unicode="B" horiz-adv-x="690" 
d="M178 394h195c42 0 76 11.667 102 35s39 52 39 86c0 34.667 -13 63.667 -39 87s-60 35 -102 35h-195v-243zM100 700l285 -0.000976562c62 0 111.833 -16.5 149.5 -49.5s56.5 -74.167 56.5 -123.5c0 -35.333 -9.66699 -67 -29 -95s-46 -49 -80 -63
c43.333 -11.333 78 -33.166 104 -65.499s39 -69.833 39 -112.5c0 -54 -20.833 -99.333 -62.5 -136s-95.5 -55 -161.5 -55h-301v700zM178 335.999v-274h214c46 0 83.5 13.167 112.5 39.5s43.5 58.833 43.5 97.5s-14.5 71.167 -43.5 97.5s-66.5 39.5 -112.5 39.5h-214z" />
    <glyph glyph-name="C" unicode="C" horiz-adv-x="718" 
d="M55 348c0 101.333 35.1699 186.997 105.503 256.997s156.5 105 258.5 105c31.334 0 61.667 -3.66699 91 -11c29.333 -7.33887 53.666 -16.1719 72.999 -26.5c19.333 -10.335 36.333 -20.668 51 -31c14.6719 -10.3379 25.3389 -19.1709 32.001 -26.499l11 -11l-55 -49
l-9 9c-4 4 -12.5 10.667 -25.5 20s-26.833 17.666 -41.5 24.999s-33.667 14 -57 20s-47 9 -71 9c-80.667 0 -148.334 -27.667 -203.001 -83s-82 -123.666 -82 -204.999c0 -82 27.333 -150.667 82 -206s122.334 -83 203.001 -83c40.667 0 78.667 7.83301 114 23.5
s60.666 31.167 75.999 46.5l23 23l52 -48c-2.66699 -3.33301 -6.33398 -7.5 -11.001 -12.5s-15.334 -14.167 -32.001 -27.5s-34.667 -25.166 -54 -35.499s-44.333 -19.666 -75 -27.999s-62.334 -12.5 -95 -12.5c-102 0 -187.667 34.333 -257 103s-104 153.667 -104 255z" />
    <glyph glyph-name="D" unicode="D" horiz-adv-x="760" 
d="M178 632v-565.001h150c86.667 0 158.334 27 215.001 81s85 121.333 85 202s-28.333 147.834 -85 201.501s-128.334 80.5 -215.001 80.5h-150zM100 699.999l224 0.000976562c111.333 0 202.666 -33.167 273.999 -99.5c71.333 -66.334 107 -149.501 107 -249.501
s-36.167 -183.5 -108.5 -250.5s-164.166 -100.5 -275.499 -100.5h-221v700z" />
    <glyph glyph-name="E" unicode="E" horiz-adv-x="650" 
d="M595 0h-495v700h485v-68h-407v-235h357v-64h-357v-266h417v-67z" />
    <glyph glyph-name="F" unicode="F" horiz-adv-x="610" 
d="M525 297h-347v-297h-78v700h475v-68h-397v-268h347v-67z" />
    <glyph glyph-name="G" unicode="G" horiz-adv-x="814" 
d="M758 350c0.666992 -2.66699 0.998047 -7 0.998047 -13c-0.666992 -98.667 -34.167 -181.167 -100.5 -247.5s-147.166 -99.5 -242.499 -99.5c-102 0 -187.667 34.5 -257 103.5s-104 154.167 -104 255.5c0 101.334 35.167 186.834 105.5 256.5
c70.333 69.667 156.5 104.5 258.5 104.5c31.334 0 61.667 -3.5 91 -10.5s53.5 -15.5 72.5 -25.5s35.833 -20 50.5 -30c14.6719 -10 25.3389 -18.667 32.001 -26l10 -10l-53 -54c-2 2 -4.83301 5 -8.5 9s-12 10.833 -25 20.5c-13 9.6709 -26.833 18.3379 -41.5 26
c-14.667 7.66699 -33.667 14.5 -57 20.5s-47.333 9 -72 9c-80.667 0 -148.334 -27.667 -203.001 -83s-82 -124 -82 -206s27.333 -150.667 82 -206s122.334 -83 203.001 -83c66.667 0 124.5 21.167 173.5 63.5s77.833 97.5 86.5 165.5h-262v60h342z" />
    <glyph glyph-name="H" unicode="H" horiz-adv-x="770" 
d="M593 0v335h-415v-335h-78v700h78v-296h415v296h77v-700h-77z" />
    <glyph glyph-name="I" unicode="I" horiz-adv-x="290" 
d="M105 0v700h80v-700h-80z" />
    <glyph glyph-name="J" unicode="J" horiz-adv-x="464" 
d="M294 240v460h80v-462c0 -76 -22.333 -136.333 -67 -181s-100.667 -67 -168 -67c-24.667 0 -46.834 2.16699 -66.501 6.5s-33.167 8.83301 -40.5 13.5l-12 6l24 67c20 -13.333 50.333 -20 91 -20c46.667 0 84.834 15.5 114.501 46.5s44.5 74.5 44.5 130.5z" />
    <glyph glyph-name="K" unicode="K" horiz-adv-x="668" 
d="M563 0l-385 350v-350h-78v700h78v-330l365 330h105l-384 -337l404 -363h-105z" />
    <glyph glyph-name="L" unicode="L" horiz-adv-x="590" 
d="M565 0h-465v700h78v-631h387v-69z" />
    <glyph glyph-name="M" unicode="M" horiz-adv-x="890" 
d="M424 115l-248 447v-562h-76v700h80l267 -486l267 486h76v-700h-76v562l-248 -447h-42z" />
    <glyph glyph-name="N" unicode="N" horiz-adv-x="790" 
d="M614 0l-438 587v-587h-76v700h83l431 -579v579h76v-700h-76z" />
    <glyph glyph-name="O" unicode="O" horiz-adv-x="835" 
d="M418 61c80.667 0 148.334 27.666 203.001 82.999s82 124 82 206c0 81.334 -27.333 149.667 -82 205s-122.334 83 -203.001 83s-148.334 -27.667 -203.001 -83s-82 -123.666 -82 -204.999c0 -82 27.333 -150.667 82 -206s122.334 -83 203.001 -83zM419 709.999
c102 0 187.667 -34.5 257 -103.5s104 -154.167 104 -255.5s-35.167 -186.833 -105.5 -256.5s-156.5 -104.5 -258.5 -104.5s-187.667 34.333 -257 103s-104 153.667 -104 255s35.167 187 105.5 257s156.5 105 258.5 105z" />
    <glyph glyph-name="P" unicode="P" horiz-adv-x="670" 
d="M375 634l-197 -0.000976562v-312h197c51.333 0 93 14.667 125 44c32 29.334 48 66.667 48 112c0 44.668 -16 81.835 -48 111.501c-32 29.667 -73.667 44.5 -125 44.5zM100 -0.000976562l0.000976562 700h283c72 0 130.333 -20.667 174.999 -62
c44.667 -41.333 67 -94 67 -158s-22.833 -117.167 -68.5 -159.5s-104.5 -63.5 -176.5 -63.5h-202v-257h-78z" />
    <glyph glyph-name="Q" unicode="Q" horiz-adv-x="835" 
d="M418 61c80.667 0 148.334 27.666 203.001 82.999s82 124 82 206c0 81.334 -27.333 149.667 -82 205s-122.334 83 -203.001 83s-148.334 -27.667 -203.001 -83s-82 -123.666 -82 -204.999c0 -82 27.333 -150.667 82 -206s122.334 -83 203.001 -83zM419 709.999
c102 0 187.667 -34.5 257 -103.5s104 -154.167 104 -255.5c0 -72 -18.833 -137 -56.5 -195s-87.5 -101.333 -149.5 -130l124 -146h-93l-100 121c-30.667 -7.33301 -60.334 -11 -89 -11c-102 0 -187.667 34.333 -257 103s-104 153.667 -104 255s35.167 187 105.5 257
s156.5 105 258.5 105z" />
    <glyph glyph-name="R" unicode="R" horiz-adv-x="695" 
d="M381 634h-203v-298h203c50 0 90.333 14 121 42s46 63.667 46 107s-15.333 79 -46 107s-71 42 -121 42zM100 0l0.000976562 699.998h292c68.667 0 124.667 -20 168 -60s65 -90.667 65 -152c0 -51.333 -15.833 -95.666 -47.5 -132.999s-73.834 -61.666 -126.501 -72.999
l204 -282h-92l-197 274h-188v-274h-78z" />
    <glyph glyph-name="S" unicode="S" horiz-adv-x="570" 
d="M302 398c142 -45.333 212.999 -116.332 212.999 -212.999c0 -56 -21 -102.5 -63 -139.5s-98.667 -55.5 -170 -55.5c-30.667 0 -60.167 3.33301 -88.5 10s-51.666 14.5 -69.999 23.5s-34.5 18.167 -48.5 27.5s-24.333 17.333 -31 24l-9 10l49 52l8.5 -8.5
c3.66699 -3.66699 12.167 -10.167 25.5 -19.5s27.333 -17.5 42 -24.5s33.834 -13.5 57.5 -19.5c23.667 -6 47.834 -9 72.501 -9c43.333 0 78.5 11.5 105.5 34.5s40.5 51.5 40.5 85.5c0 36 -13.667 66.333 -41 91s-75.333 48.667 -144 72c-122 40.667 -183 104 -183 190
c0 52 20.333 95.167 61 129.5s94.667 51.5 162 51.5c26.667 0 52.5 -2.66699 77.5 -8s45.5 -12 61.5 -20s30.167 -16 42.5 -24s21.5 -14.667 27.5 -20l8 -8l-49 -52c-1.33301 2 -3.66602 4.5 -6.99902 7.5s-10.333 8.16699 -21 15.5s-22 14 -34 20s-27.333 11.333 -46 16
s-38 7 -58 7c-46.667 0 -82.834 -10.833 -108.501 -32.5s-38.5 -46.834 -38.5 -75.501c0 -30.667 12.167 -56.834 36.5 -78.5c24.333 -21.667 64.166 -41.5 119.499 -59.5z" />
    <glyph glyph-name="T" unicode="T" horiz-adv-x="590" 
d="M565 632h-231v-632h-78v632h-231v68h540v-68z" />
    <glyph glyph-name="U" unicode="U" horiz-adv-x="740" 
d="M574 700h76v-416c0 -86 -26.5 -156.5 -79.5 -211.5s-120.167 -82.5 -201.5 -82.5c-82 0 -149 27 -201 81s-78 124 -78 210v419h79v-419c0 -65.333 19 -118.333 57 -159s86.667 -61 146 -61c58.667 0 107 20.333 145 61s57 93.667 57 159v419z" />
    <glyph glyph-name="V" unicode="V" horiz-adv-x="690" 
d="M307 0l-297 700h86l251 -604l251 604h82l-296 -700h-77z" />
    <glyph glyph-name="W" unicode="W" horiz-adv-x="985" 
d="M249 0l-239 700h85l194 -583l178 583h56l177 -583l195 583h80l-238 -700h-70l-175 559l-173 -559h-70z" />
    <glyph glyph-name="X" unicode="X" horiz-adv-x="675" 
d="M569 0l-234 302l-233 -302h-92l281 358l-267 342h96l219 -284l221 284h91l-268 -341l282 -359h-96z" />
    <glyph glyph-name="Y" unicode="Y" horiz-adv-x="670" 
d="M297 0v280l-287 420h92l235 -349l236 349h87l-286 -420v-280h-77z" />
    <glyph glyph-name="Z" unicode="Z" horiz-adv-x="660" 
d="M600 0h-540v54l435 580h-415v66h520v-54l-435 -580h435v-66z" />
    <glyph glyph-name="bracketleft" unicode="[" horiz-adv-x="435" 
d="M390 -80h-290v860h290v-64h-217v-732h217v-64z" />
    <glyph glyph-name="backslash" unicode="\" horiz-adv-x="477" 
d="M67 780l410 -860h-67l-410 860h67z" />
    <glyph glyph-name="bracketright" unicode="]" horiz-adv-x="435" 
d="M335 -80h-290v64h217v732h-217v64h290v-860z" />
    <glyph glyph-name="asciicircum" unicode="^" horiz-adv-x="570" 
d="M439 320l-155 308l-155 -308h-74l201 380h57l202 -380h-76z" />
    <glyph glyph-name="underscore" unicode="_" horiz-adv-x="600" 
d="M600 -104h-600v54h600v-54z" />
    <glyph glyph-name="grave" unicode="`" horiz-adv-x="370" 
d="M186 740l79 -163h-61l-99 163h81z" />
    <glyph glyph-name="a" unicode="a" horiz-adv-x="570" 
d="M273 48c48 0 85.333 9.5 112 28.5s40 43.167 40 72.5c0 28.667 -13.333 52.667 -40 72s-64 29 -112 29c-44 0 -78.833 -9.66699 -104.5 -29s-38.5 -43.333 -38.5 -72c0 -29.333 12.833 -53.5 38.5 -72.5s60.5 -28.5 104.5 -28.5zM257 306
c69.334 0 123.667 -19.0029 163 -57.0029v42c0 54.667 -13.833 95.834 -41.5 123.501s-64.834 41.5 -111.5 41.5c-28 0 -54.167 -4.33301 -78.5 -13s-41.833 -17 -52.5 -25l-15 -13l-36 48c2 2 4.66699 4.5 8 7.5s11 8.16699 23 15.5s24.833 14 38.5 20s31.5 11.333 53.5 16
s45 7 69 7c68.667 0 122.167 -19.667 160.5 -59s57.5 -95.666 57.5 -168.999v-291h-58l-8 55c-40 -43.333 -98 -65 -174 -65c-61.333 0 -110 14.833 -146 44.5s-54 66.834 -54 111.501c0 45.333 18.333 83.333 55 114s85.667 46 147 46z" />
    <glyph glyph-name="b" unicode="b" horiz-adv-x="656" 
d="M343 59c55.333 0 101.333 18.666 138 55.999s55 84 55 140c0 55.334 -18.5 101.667 -55.5 139s-82.833 56 -137.5 56s-100.5 -18.667 -137.5 -56s-55.5 -83.666 -55.5 -138.999c0 -56 18.333 -102.667 55 -140s82.667 -56 138 -56zM80 -0.000976562l0.000976562 699.999
h75v-291c21.333 34 49.666 60.833 84.999 80.5s74.333 29.5 117 29.5c70.667 0 130.667 -25.333 180 -76s74 -113 74 -187s-25.167 -136.833 -75.5 -188.5s-110.833 -77.5 -181.5 -77.5c-43.333 0 -82.833 9.83301 -118.5 29.5s-64.167 46.834 -85.5 81.501l-8 -101h-62z
" />
    <glyph glyph-name="c" unicode="c" horiz-adv-x="548" 
d="M462 128l50.999 -47.002c-2 -2.66699 -4.66699 -6 -8 -10s-11.333 -11.167 -24 -21.5s-26 -19.5 -40 -27.5s-32.667 -15.333 -56 -22s-47.666 -10 -72.999 -10c-76 0 -139.5 25.167 -190.5 75.5s-76.5 112.833 -76.5 187.5s26 137.667 78 189s116 77 192 77
c38 0 73 -6.83301 105 -20.5s54.667 -27.167 68 -40.5l20 -21l-50 -50c-4 4.66699 -9.5 10.5 -16.5 17.5s-23 16.333 -48 28s-51.833 17.5 -80.5 17.5c-54.667 0 -100.5 -18.667 -137.5 -56s-55.5 -83.666 -55.5 -138.999c0 -56 18.333 -102.667 55 -140s82.667 -56 138 -56
c19.333 0 37.5 2.33301 54.5 7s31 10.334 42 17.001s20.667 13.5 29 20.5c8.33691 7 14.1699 12.833 17.5 17.5z" />
    <glyph glyph-name="d" unicode="d" horiz-adv-x="656" 
d="M312 450c-54.667 0 -100.334 -18.668 -137.001 -56.001s-55 -83.666 -55 -138.999c0 -56 18.333 -102.667 55 -140s82.334 -56 137.001 -56c55.333 0 101.5 18.667 138.5 56s55.5 84 55.5 140c0 55.334 -18.5 101.667 -55.5 139s-83.167 56 -138.5 56zM576 699.999
l-0.000976562 -700h-62l-9 105c-22 -36 -51 -64.167 -87 -84.5s-76 -30.5 -120 -30.5c-70.667 0 -130.5 25.333 -179.5 76s-73.5 113 -73.5 187s25 136.833 75 188.5s110.333 77.5 181 77.5c42.667 0 81.334 -9.5 116.001 -28.5s62.667 -45.167 84 -78.5v288h75z" />
    <glyph glyph-name="e" unicode="e" horiz-adv-x="606" 
d="M559 250l-439.001 0.00195312c0.666992 -55.333 19.5 -101.5 56.5 -138.5s83.5 -55.5 139.5 -55.5c22.667 0 44.334 3.16699 65.001 9.5s37.5 14.166 50.5 23.499s24.333 18.666 34 27.999s16.5 17 20.5 23l6 10l48 -39c-2 -3.33301 -4.83301 -7.66602 -8.5 -12.999
s-12.167 -15 -25.5 -29s-28 -26.333 -44 -37s-37.5 -20.334 -64.5 -29.001s-55.5 -13 -85.5 -13c-76 0 -139.5 25.167 -190.5 75.5s-76.5 112.833 -76.5 187.5s26 137.667 78 189s115.667 77 191 77c68 0 126.167 -24.5 174.5 -73.5s72.5 -107.833 72.5 -176.5z
M312.999 460.002c-48 0 -89.5 -14.667 -124.5 -44s-56.5 -67 -64.5 -113h363c-6.66699 44.667 -26.667 82 -60 112s-71.333 45 -114 45z" />
    <glyph glyph-name="f" unicode="f" horiz-adv-x="415" 
d="M200 529v-50h195v-60h-195v-419h-75v419h-105v60h105v53c0 57.333 15 101.333 45 132s71.667 46 125 46c22 0 42.167 -1.66699 60.5 -5c18.335 -3.33887 31.168 -6.67188 38.5 -10l11 -5l-11 -60c-22 10.667 -50.667 16 -86 16c-34 0 -60.5 -10 -79.5 -30
s-28.5 -49 -28.5 -87z" />
    <glyph glyph-name="g" unicode="g" horiz-adv-x="656" 
d="M312 454c-54.667 0 -100.334 -17 -137.001 -51s-55 -76.333 -55 -127s18.333 -93 55 -127s82.334 -51 137.001 -51c55.333 0 101.5 17 138.5 51s55.5 76.333 55.5 127s-18.5 93 -55.5 127s-83.167 51 -138.5 51zM56 -98l30.999 56c6 -4.66699 14.667 -10.5 26 -17.5
s34.833 -16.333 70.5 -28s71.5 -17.5 107.5 -17.5c67.333 0 119.166 18.5 155.499 55.5s54.5 88.833 54.5 155.5v29c-20.667 -31.333 -48.5 -55.833 -83.5 -73.5s-74.167 -26.5 -117.5 -26.5c-71.333 0 -131.666 23.333 -180.999 70s-74 103.667 -74 171
c0 68 24.833 125.5 74.5 172.5s110.834 70.5 183.501 70.5c42.667 0 81.667 -9 117 -27s64 -43 86 -75l8 92h62v-389c0 -88.667 -24.833 -159.167 -74.5 -211.5s-118.834 -78.5 -207.5 -78.5c-43.333 0 -84.833 6 -124.5 18s-68.5 24 -86.5 36z" />
    <glyph glyph-name="h" unicode="h" horiz-adv-x="610" 
d="M80 0v700h75v-287c37.333 70.667 99 106 185 106c57.333 0 105 -20 143 -60s57 -97.333 57 -172v-287h-75v263c0 62.667 -13.833 109.5 -41.5 140.5s-62.5 46.5 -104.5 46.5c-47.333 0 -86.5 -15.667 -117.5 -47s-46.5 -79.333 -46.5 -144v-259h-75z" />
    <glyph glyph-name="i" unicode="i" horiz-adv-x="247" 
d="M85 0v509h77v-509h-77zM123 709c15.333 0 28.166 -4.99902 38.499 -14.999s15.5 -22.667 15.5 -38c0 -15.3359 -5.16699 -28.1689 -15.5 -38.5c-10.333 -10.333 -23.166 -15.5 -38.499 -15.5s-28 5.16699 -38 15.5s-15 23.166 -15 38.499s5 28 15 38s22.667 15 38 15z
" />
    <glyph glyph-name="j" unicode="j" horiz-adv-x="247" 
d="M85 509l77.001 -0.000976562v-508c0 -55.333 -14 -97.666 -42 -126.999s-66 -44 -114 -44c-11.333 0 -22.833 1.16699 -34.5 3.5s-20.167 4.5 -25.5 6.5l-9 4l14 61c15.333 -6 31.666 -9 48.999 -9c56.667 0 85 32.333 85 97v516zM123.001 708.999
c15.333 0 28.166 -4.99902 38.499 -14.999s15.5 -22.667 15.5 -38c0 -15.3359 -5.16699 -28.1689 -15.5 -38.5c-10.333 -10.333 -23.166 -15.5 -38.499 -15.5s-28 5.16699 -38 15.5s-15 23.166 -15 38.499s5 28 15 38s22.667 15 38 15z" />
    <glyph glyph-name="k" unicode="k" horiz-adv-x="552" 
d="M80 0v700h75v-419l274 228h103l-293 -233l313 -276h-103l-294 265v-265h-75z" />
    <glyph glyph-name="l" unicode="l" horiz-adv-x="247" 
d="M85 0v700h77v-700h-77z" />
    <glyph glyph-name="m" unicode="m" horiz-adv-x="975" 
d="M80 0l0.00195312 509h66l5 -96c37.333 70.667 98.666 106 183.999 106c41.333 0 78 -11.167 110 -33.5s55.333 -54.833 70 -97.5c16.667 43.333 42.167 76 76.5 98s73.833 33 118.5 33c56 0 102.5 -19.5 139.5 -58.5s55.5 -95.5 55.5 -169.5v-291h-75v267
c0 61.334 -13.333 107.167 -40 137.5s-60.334 45.5 -101.001 45.5c-46 0 -84 -15.167 -114 -45.5s-45 -77.5 -45 -141.5v-263h-75v267c0 61.334 -13.333 107.167 -40 137.5s-60.334 45.5 -101 45.5c-46 0 -84 -15.167 -114 -45.5s-45 -77.5 -45 -141.5v-263h-75z" />
    <glyph glyph-name="n" unicode="n" horiz-adv-x="610" 
d="M155 248v-248h-75v509h66l6 -98c37.333 72 100 108 188 108c57.333 0 105 -20 143 -60s57 -97.333 57 -172v-287h-75v263c0 62.667 -13.833 109.5 -41.5 140.5s-62.5 46.5 -104.5 46.5c-48 0 -87.333 -16.333 -118 -49s-46 -83.667 -46 -153z" />
    <glyph glyph-name="o" unicode="o" horiz-adv-x="627" 
d="M313 59c55.333 0 101.5 18.666 138.5 55.999s55.5 84 55.5 140c0 55.334 -18.5 101.667 -55.5 139s-83.167 56 -138.5 56c-54.667 0 -100.5 -18.667 -137.5 -56s-55.5 -83.666 -55.5 -138.999c0 -56 18.333 -102.667 55 -140s82.667 -56 138 -56zM315 518.999
c76 0 139.5 -25.167 190.5 -75.5s76.5 -112.833 76.5 -187.5s-26 -137.667 -78 -189s-116 -77 -192 -77s-139.5 25.167 -190.5 75.5s-76.5 112.833 -76.5 187.5s26 137.667 78 189s116 77 192 77z" />
    <glyph glyph-name="p" unicode="p" horiz-adv-x="656" 
d="M343 59c55.333 0 101.333 18.666 138 55.999s55 84 55 140c0 55.334 -18.5 101.667 -55.5 139s-82.833 56 -137.5 56s-100.5 -18.667 -137.5 -56s-55.5 -83.666 -55.5 -138.999c0 -56 18.333 -102.667 55 -140s82.667 -56 138 -56zM80 -160.001l0.000976562 669h62
l9 -105c21.333 35.333 50 63.333 86 84s76 31 120 31c70.667 0 130.667 -25.333 180 -76s74 -113 74 -187s-25.167 -136.833 -75.5 -188.5s-110.833 -77.5 -181.5 -77.5c-42.667 0 -81.334 9.5 -116 28.5c-34.667 19 -62.334 45.167 -83.001 78.5v-257h-75z" />
    <glyph glyph-name="q" unicode="q" horiz-adv-x="656" 
d="M312 450c-54.667 0 -100.334 -18.668 -137.001 -56.001s-55 -83.666 -55 -138.999c0 -56 18.333 -102.667 55 -140s82.334 -56 137.001 -56c55.333 0 101.5 18.667 138.5 56s55.5 84 55.5 140c0 55.334 -18.5 101.667 -55.5 139s-83.167 56 -138.5 56zM576 508.999v-669
h-75v260c-22 -34.667 -50.667 -61.667 -86 -81s-74.333 -29 -117 -29c-70.667 0 -130.5 25.333 -179.5 76s-73.5 113 -73.5 187s25 136.833 75 188.5s110.333 77.5 181 77.5c43.333 0 82.833 -10 118.5 -30s64.167 -47.333 85.5 -82l9 102h62z" />
    <glyph glyph-name="r" unicode="r" horiz-adv-x="386" 
d="M80 0l0.000976562 508.999h66l6 -114c38 82.667 107.667 124 209 124l-1 -75h-13c-60.667 0 -107.834 -18.167 -141.501 -54.5s-50.5 -91.166 -50.5 -164.499v-225h-75z" />
    <glyph glyph-name="s" unicode="s" horiz-adv-x="451" 
d="M243 294c108.667 -28.667 162.999 -79.668 162.999 -153.001c0 -42.667 -16.667 -78.5 -50 -107.5s-79 -43.5 -137 -43.5c-35.333 0 -68.666 5.5 -99.999 16.5s-54 21.833 -68 32.5l-21 16l35 51c4.66699 -4 11.5 -9.16699 20.5 -15.5s27 -14.666 54 -24.999
s53.833 -15.5 80.5 -15.5c34.667 0 62 7.83301 82 23.5s30 34.5 30 56.5c0 23.333 -9.33301 43.666 -28 60.999s-54 33 -106 47c-46.667 12.667 -82.834 31.334 -108.501 56.001s-38.5 53.667 -38.5 87c0 38 15.5 70.5 46.5 97.5s74.167 40.5 129.5 40.5
c30.667 0 60 -4.5 88 -13.5s48.333 -18.167 61 -27.5l19 -14l-36 -52c-4 3.33691 -9.5 7.66992 -16.5 13c-7 5.33301 -21.667 12.333 -44 21s-45.166 13 -68.499 13c-33.334 0 -59.167 -7.16699 -77.5 -21.5s-27.5 -30.5 -27.5 -48.5c0 -20.667 8.5 -38.667 25.5 -54
s47.833 -29 92.5 -41z" />
    <glyph glyph-name="t" unicode="t" horiz-adv-x="430" 
d="M200 640l0.000976562 -131h200v-60h-200v-285c0 -70 31 -105 93 -105c14.667 0 30 1.16699 46 3.5s28.333 4.83301 37 7.5l13 3l11 -62c-29.333 -14 -69 -21 -119 -21c-48.667 0 -86.834 13.667 -114.501 41s-41.5 67.333 -41.5 120v298h-105v60h105v131h75z" />
    <glyph glyph-name="u" unicode="u" horiz-adv-x="610" 
d="M455 261v248h75v-509h-66l-6 98c-37.333 -72 -100 -108 -188 -108c-57.333 0 -105 20 -143 60s-57 97.333 -57 172v287h75v-263c0 -62.667 13.833 -109.5 41.5 -140.5s62.5 -46.5 104.5 -46.5c48 0 87.333 16.333 118 49s46 83.667 46 153z" />
    <glyph glyph-name="v" unicode="v" horiz-adv-x="517" 
d="M222 0l-217 509h83l172 -416l172 416h80l-217 -509h-73z" />
    <glyph glyph-name="w" unicode="w" horiz-adv-x="775" 
d="M188 0l-183 509h82l142 -406l132 406h57l131 -405l142 405h79l-184 -509h-71l-128 387l-128 -387h-71z" />
    <glyph glyph-name="x" unicode="x" horiz-adv-x="542" 
d="M527 509l-209 -247l219 -262h-93l-174 210l-176 -210h-89l219 259l-209 250h93l164 -198l166 198h89z" />
    <glyph glyph-name="y" unicode="y" horiz-adv-x="517" 
d="M221 2l-216 507h83l172 -424l172 424h80l-219 -514c-46.667 -110 -112 -165 -196 -165c-18.667 0 -35.667 1.83301 -51 5.5s-26 7.16699 -32 10.5l-9 6l24 60c14.667 -9.33301 36.667 -14 66 -14c52.667 0 94.667 34.667 126 104z" />
    <glyph glyph-name="z" unicode="z" horiz-adv-x="515" 
d="M50 54l312 389h-297v66h400v-53l-311 -390h311v-66h-415v54z" />
    <glyph glyph-name="braceleft" unicode="{" horiz-adv-x="475" 
d="M233 255l0.000976562 -192.004c0 -28 6.5 -48.333 19.5 -61s33.167 -19 60.5 -19h117v-63h-132c-92 0 -138 46.333 -138 139v200c0 23.333 -4.83301 39.5 -14.5 48.5s-25.834 13.5 -48.501 13.5h-52v58h52c22.667 0 38.834 4.66699 48.501 14
c9.66699 9.33398 14.5 25.667 14.5 49v199c0 92.667 46 139 138 139h132v-62h-117c-27.333 0 -47.5 -6.33301 -60.5 -19s-19.5 -33 -19.5 -61v-193c0 -29.333 -6.16699 -52.166 -18.5 -68.499c-12.334 -16.333 -29.167 -25.166 -50.5 -26.499
c21.333 -1.33301 38.166 -10.166 50.499 -26.499s18.5 -39.166 18.5 -68.499z" />
    <glyph glyph-name="bar" unicode="|" horiz-adv-x="325" 
d="M130 -100v900h65v-900h-65z" />
    <glyph glyph-name="braceright" unicode="}" horiz-adv-x="475" 
d="M242 445l-0.00195312 191.999c0 28 -6.5 48.333 -19.5 61s-33.167 19 -60.5 19h-117v63h132c92 0 138 -46.333 138 -139v-200c0 -23.333 4.83301 -39.5 14.5 -48.5s25.834 -13.5 48.501 -13.5h52v-58h-52c-22.667 0 -38.834 -4.66699 -48.5 -14
c-9.66699 -9.33301 -14.5 -25.666 -14.5 -48.999v-199c0 -92.667 -46 -139 -138 -139h-132v62h117c27.333 0 47.5 6.33301 60.5 19s19.5 33 19.5 61v193c0 29.334 6.16699 52.167 18.5 68.5c12.334 16.334 29.167 25.167 50.5 26.5
c-21.333 1.33496 -38.166 10.168 -50.499 26.5c-12.333 16.334 -18.5 39.167 -18.5 68.5z" />
    <glyph glyph-name="asciitilde" unicode="~" 
d="M101 255l-60.9971 6.99902c0 2 0.166992 5.16699 0.5 9.5c0.333008 4.33398 1.33301 12.167 3 23.499c1.66699 11.333 4.16699 22.333 7.5 33s8.66602 22.334 15.999 35.001s15.666 23.667 24.999 33c9.33301 9.33496 21.833 17.168 37.5 23.5
c15.667 6.33301 33.167 9.5 52.5 9.5c25.333 0 49.5 -6.83301 72.5 -20.5s41.667 -28.667 56 -45s31.5 -31.333 51.5 -45s39.667 -20.5 59 -20.5c24 0 42.833 8.83301 56.5 26.5s21.167 35.5 22.5 53.5l3 26l62 -6c0 -4.66699 -0.333008 -10.667 -1 -18
s-3.66699 -20.666 -9 -39.999s-12.5 -36.333 -21.5 -51s-23.333 -28 -43 -40c-19.668 -12 -42.835 -18 -69.501 -18c-25.333 0 -49.5 6.83301 -72.5 20.5s-41.667 28.5 -56 44.5s-31.333 30.833 -51 44.5s-39.167 20.5 -58.5 20.5c-24 0 -42.833 -8.83301 -56.5 -26.5
s-21.167 -35.167 -22.5 -52.5z" />
    <glyph glyph-name="exclamdown" unicode="&#xa1;" horiz-adv-x="287" 
d="M171 487l19 -487h-93l19 487h55zM144 602c-14.667 0 -27.334 5.33398 -38.001 16.001c-10.667 10.6719 -16 23.3389 -16 38.001c0 14.6719 5.33301 27.3389 16 38c10.667 10.667 23.334 16 38.001 16s27.167 -5.33301 37.5 -16s15.5 -23.334 15.5 -38.001
s-5.16699 -27.334 -15.5 -38.001s-22.833 -16 -37.5 -16z" />
    <glyph glyph-name="cent" unicode="&#xa2;" horiz-adv-x="564" 
d="M288 800h51.998v-92c34.667 -2 67 -9.66699 97 -23s51 -26.333 63 -39l19 -19l-50 -49c-4 4.66699 -9.5 10.5 -16.5 17.5s-23.167 16.333 -48.5 28s-52 17.5 -80 17.5c-54.667 0 -100.667 -18.833 -138 -56.5s-56 -84.167 -56 -139.5s18.667 -101.833 56 -139.5
s83.333 -56.5 138 -56.5c30 0 57.5 5.83301 82.5 17.5s42.167 23.167 51.5 34.5l15 17l51 -46c-1.34961 -2 -3.68262 -5 -7 -9c-3.33301 -4 -10.666 -10.833 -21.999 -20.5s-23.5 -18.334 -36.5 -26.001s-30.167 -15 -51.5 -22s-43.666 -11.167 -66.999 -12.5v-92h-52v93
c-68 8 -123.833 36.333 -167.5 85s-65.5 107.334 -65.5 176.001c0 68 22 126.5 66 175.5s99.667 77.833 167 86.5v94z" />
    <glyph glyph-name="sterling" unicode="&#xa3;" horiz-adv-x="603" 
d="M535 0l-395 -0.00195312v322h-95v51h95v108c0 71.333 20.5 127.333 61.5 168s94.5 61 160.5 61c27.333 0 52.833 -4 76.5 -12s42.5 -17.667 56.5 -29c14 -11.3379 26 -22.6709 36 -33.999c10 -11.333 17 -21 21 -29l6 -12l-62 -35c-0.681641 2 -1.84863 4.83301 -3.5 8.5
c-1.66699 3.67578 -6.16699 10.3428 -13.5 20.001c-7.33301 9.66699 -15.5 18 -24.5 25s-22 13.5 -39 19.5s-35.5 9 -55.5 9c-44 0 -79.167 -13.667 -105.5 -41s-39.5 -64 -39.5 -110v-117h235v-51h-235v-257h320v-65z" />
    <glyph glyph-name="currency" unicode="&#xa4;" horiz-adv-x="672" 
d="M336 169c50 0 92.333 17.5 127 52.5s52 77.833 52 128.5s-17.5 93.5 -52.5 128.5s-77.167 52.5 -126.5 52.5s-91.5 -17.5 -126.5 -52.5s-52.5 -77.833 -52.5 -128.5s17.333 -93.5 52 -128.5s77 -52.5 127 -52.5zM148 508l-93 90l37 37l94 -91c44.667 34 95 51 151 51
c56.667 0 106.667 -16.667 150 -50l93 90l37 -37l-92 -89c38.667 -45.333 58 -98 58 -158c0 -60.667 -19.667 -114 -59 -160l93 -89l-37 -37l-94 91c-44.667 -34 -95 -51 -151 -51c-58 0 -108.333 16.667 -151 50l-92 -90l-37 37l91 88c-38 45.333 -57 98.333 -57 159
c0 60 19.667 113 59 159z" />
    <glyph glyph-name="yen" unicode="&#xa5;" horiz-adv-x="630" 
d="M276 0v185h-231v48h231v89l-8 13h-223v48h193l-213 317h92l200 -312l200 312h88l-213 -317h193v-48h-224l-7 -13v-89h231v-48h-231v-185h-78z" />
    <glyph glyph-name="brokenbar" unicode="&#xa6;" horiz-adv-x="325" 
d="M195 800v-335h-65v335h65zM130 -100v335h65v-335h-65z" />
    <glyph glyph-name="section" unicode="&#xa7;" horiz-adv-x="630" 
d="M351 444c78.667 -24.667 135.668 -52.667 171.001 -84s53 -67.666 53 -108.999c0 -37.333 -13.167 -68.833 -39.5 -94.5s-63.5 -43.834 -111.5 -54.501c47.333 -32.667 71 -72 71 -118c0 -44 -17.5 -80.667 -52.5 -110s-82.5 -44 -142.5 -44
c-37.333 0 -71.333 5.5 -102 16.5s-52 22.167 -64 33.5l-19 16l47 48c4 -3.33301 9.5 -7.83301 16.5 -13.5s22.333 -13 46 -22s48.167 -13.5 73.5 -13.5c39.333 0 68.833 8.16699 88.5 24.5s29.5 35.833 29.5 58.5c0 51.333 -45.667 91 -137 119
c-78.667 24 -135.667 51.667 -171 83s-53 67.666 -53 108.999c0 36.667 13.333 68 40 94s63.667 44 111 54c-47.333 33.333 -71 73.333 -71 120c0 44 17.5 80.5 52.5 109.5s82.833 43.5 143.5 43.5c23.334 0 45.667 -2.33301 67 -7
c21.334 -4.66699 38.667 -10.167 51.999 -16.5c13.335 -6.33887 25.168 -12.6719 35.499 -19c10.333 -6.33301 17.833 -11.833 22.5 -16.5l7 -7l-47 -48c-4 3.33301 -9.5 7.83301 -16.5 13.5s-22.167 13 -45.5 22s-47.666 13.5 -72.999 13.5
c-39.333 0 -69 -8.16699 -89 -24.5s-30 -35.833 -30 -58.5c0 -51.333 45.667 -90.666 137 -117.999zM363.001 141c40.667 2.66699 73.5 12.834 98.5 30.5c25 17.667 37.5 40.834 37.5 69.5c0 29.334 -13.667 55.167 -41 77.5s-77 44.166 -149 65.499
c-22.667 7.33301 -36.667 12.333 -42 15c-40.667 -2.66699 -73.5 -12.834 -98.5 -30.5c-25 -17.667 -37.5 -40.5 -37.5 -68.5c0 -29.333 13.5 -54.666 40.5 -75.999s76.833 -44 149.5 -68z" />
    <glyph glyph-name="dieresis" unicode="&#xa8;" horiz-adv-x="510" 
d="M355 704c13.333 0 24.833 -4.66699 34.5 -14s14.5 -21 14.5 -35c0 -13.333 -4.83301 -24.833 -14.5 -34.5s-21.167 -14.5 -34.5 -14.5c-14 0 -25.667 4.83301 -35 14.5s-14 21.167 -14 34.5s4.83301 24.833 14.5 34.5s21.167 14.5 34.5 14.5zM155 704
c13.333 0 24.833 -4.66699 34.5 -14s14.5 -21 14.5 -35c0 -13.333 -4.83301 -24.833 -14.5 -34.5s-21.167 -14.5 -34.5 -14.5c-14 0 -25.667 4.83301 -35 14.5s-14 21.167 -14 34.5s4.83301 24.833 14.5 34.5s21.167 14.5 34.5 14.5z" />
    <glyph glyph-name="copyright" unicode="&#xa9;" horiz-adv-x="826" 
d="M540 260l37.999 -32.9961c-1.33301 -2 -3.33301 -4.66699 -6 -8s-8.66699 -9.33301 -18 -18c-9.33789 -8.66699 -19.6709 -16.334 -31 -23.001c-11.333 -6.66699 -26.166 -12.667 -44.499 -18s-37.5 -8 -57.5 -8c-58.667 0 -106.5 18.667 -143.5 56s-55.5 84 -55.5 140
s19.167 103.333 57.5 142s86.5 58 144.5 58c19.333 0 37.833 -2.33301 55.5 -7s32 -10.334 43 -17.001s20.667 -13.334 29 -20.001c8.33301 -6.6709 14.5 -12.3379 18.5 -17.001l5 -7l-41 -33c-2.66699 3.33691 -6.66699 7.66992 -12 13
c-5.33496 5.33301 -17.335 12.5 -36 21.5c-18.667 9 -39 13.5 -61 13.5c-40.667 0 -75 -13.833 -103 -41.5s-42 -62.167 -42 -103.5s14 -75.833 42 -103.5s62.333 -41.5 103 -41.5c14.667 0 28.667 1.83301 42 5.5s24.333 8.16699 33 13.5s16.167 10.833 22.5 16.5
s10.833 10.167 13.5 13.5zM414.999 710.004c102.667 0 188.5 -34.333 257.5 -103s103.5 -153.667 103.5 -255s-35.167 -187 -105.5 -257s-156.833 -105 -259.5 -105s-188.5 34.333 -257.5 103s-103.5 153.667 -103.5 255s35.167 187 105.5 257s156.833 105 259.5 105z
M412.999 40.0039c86.667 0 159.834 30 219.501 90s89.5 133.333 89.5 220s-29.833 160 -89.5 220s-132.834 90 -219.501 90s-159.834 -30 -219.501 -90s-89.5 -133.333 -89.5 -220s29.833 -160 89.5 -220s132.834 -90 219.501 -90z" />
    <glyph glyph-name="ordfeminine" unicode="&#xaa;" horiz-adv-x="404" 
d="M199 421c26.667 0 48.167 5.33301 64.5 16s24.5 24 24.5 40s-8.16699 29.667 -24.5 41s-37.833 17 -64.5 17c-23.333 0 -42.333 -5.66699 -57 -17s-22 -25 -22 -41s7.33301 -29.333 22 -40s33.667 -16 57 -16zM189 574c40.667 0 72.667 -9.66602 96 -28.999v16
c0 30.667 -8.16699 54 -24.5 70c-16.334 16 -38.167 24 -65.5 24c-16.667 0 -32.834 -2.5 -48.501 -7.5s-27.167 -9.83301 -34.5 -14.5l-11 -7l-25 38c3.33301 2.67676 8.5 6.34375 15.5 11c7 4.66699 21.333 10.667 43 18s44.167 11 67.5 11c44 0 78.667 -12.667 104 -38
s38 -60.333 38 -105v-175h-48l-5 29c-24.667 -23.333 -59 -35 -103 -35c-38 0 -68.833 9.16699 -92.5 27.5c-23.667 18.334 -35.5 41.167 -35.5 68.499c0 28 11.833 51.333 35.5 70s54.834 28 93.501 28zM70 278.001v43h274v-43h-274z" />
    <glyph glyph-name="guillemotleft" unicode="&#xab;" horiz-adv-x="761" 
d="M358 560l-223 -209l223 -208l-42 -45l-266 237v30l266 238zM686 560l-223 -209l223 -208l-42 -45l-266 237v30l266 238z" />
    <glyph glyph-name="logicalnot" unicode="&#xac;" 
d="M491 160v196h-441v62h505v-258h-64z" />
    <glyph glyph-name="registered" unicode="&#xae;" horiz-adv-x="536" 
d="M278 565h-48v-69h48c27.333 0 41 11.333 41 34c0 10.667 -3.66699 19.167 -11 25.5s-17.333 9.5 -30 9.5zM269 710c61.333 0 112.833 -20.667 154.5 -62s62.5 -92.333 62.5 -153s-21.167 -112 -63.5 -154s-94.166 -63 -155.499 -63s-112.833 20.667 -154.5 62
s-62.5 92.333 -62.5 153s21.167 112 63.5 154s94.166 63 155.499 63zM268 319c50 0 91.667 16.5 125 49.5s50 74.833 50 125.5s-16.667 92.667 -50 126s-75 50 -125 50s-91.667 -16.667 -125 -50s-50 -75.333 -50 -126s16.667 -92.5 50 -125.5s75 -49.5 125 -49.5zM190 389
v210h93c22 0 40 -6.16699 54 -18.5s21 -28.833 21 -49.5c0 -32.667 -16 -54 -48 -64l57 -78h-48l-52 74h-37v-74h-40z" />
    <glyph glyph-name="macron" unicode="&#xaf;" horiz-adv-x="460" 
d="M50 636v50h360v-50h-360z" />
    <glyph glyph-name="degree" unicode="&#xb0;" horiz-adv-x="407" 
d="M204 440c31.333 0 57 10.333 77 31s30 46.667 30 78s-10 57.333 -30 78s-45.667 31 -77 31c-32 0 -58 -10.333 -78 -31s-30 -46.667 -30 -78c0 -31.334 10 -57.334 30 -78c20 -20.667 46 -31 78 -31zM205 710c46.667 0 85.332 -15.166 115.999 -45.499
s46 -68.5 46 -114.5s-15.667 -84.5 -47 -115.5s-70.333 -46.5 -117 -46.5s-85.5 15.167 -116.5 45.5s-46.5 68.5 -46.5 114.5c0 45.333 15.833 83.666 47.5 114.999s70.834 47 117.501 47z" />
    <glyph glyph-name="plusminus" unicode="&#xb1;" 
d="M333 657v-197h222v-60h-222v-198h-62v198h-221v60h221v197h62zM555 42h-505v62h505v-62z" />
    <glyph glyph-name="twosuperior" unicode="&#xb2;" horiz-adv-x="353" 
d="M42 323l157.998 154.999c37.333 37.333 56 72.333 56 105c0 19.333 -7.5 36 -22.5 50s-33.5 21 -55.5 21c-19.333 0 -36.666 -4.66699 -51.999 -14c-15.333 -9.33789 -26 -18.6709 -32 -27.999l-8 -15l-46 25c1.33301 2 3 5 5 9s7 10.833 15 20.5s17 18.167 27 25.5
s23.333 14 40 20s34.667 9 54 9c38 0 69.5 -11.167 94.5 -33.5s37.5 -50.833 37.5 -85.5c0 -24.667 -5.66699 -47.5 -17 -68.5s-29.666 -44.167 -54.999 -69.5l-122 -119h191v-50h-268v43z" />
    <glyph glyph-name="threesuperior" unicode="&#xb3;" horiz-adv-x="344" 
d="M112 522h42.002c25.333 0 45.166 6.16699 59.499 18.5s21.5 28.5 21.5 48.5s-7.16699 36.167 -21.5 48.5s-33.833 18.5 -58.5 18.5c-16.667 0 -31.5 -3.33301 -44.5 -10s-21.833 -13.334 -26.5 -20.001l-6 -9l-43 24c0.666992 2 2 4.33301 4 7
c2 2.67676 6.66699 7.84375 14 15.5c7.33301 7.67676 15.333 14.3438 24 20c8.66699 5.67188 20.167 10.8389 34.5 15.5c14.333 4.66699 29.833 7 46.5 7c39.333 0 71.5 -10.333 96.5 -31s37.5 -46.667 37.5 -78c0 -43.334 -21 -75.667 -63 -96.999
c23.333 -10 41.666 -24.333 54.999 -43s20 -39.667 20 -63c0 -34.667 -14.167 -63.334 -42.5 -86c-28.333 -22.667 -63.833 -34 -106.5 -34c-28 0 -53.167 5.66699 -75.5 17c-22.333 11.335 -37.833 22.668 -46.5 34l-13 17l43 27c2 -3.33301 5.16699 -7.5 9.5 -12.5
s14.333 -11.667 30 -20s33.167 -12.5 52.5 -12.5c27.333 0 49.5 7 66.5 21s25.5 32 25.5 54s-8.5 40.333 -25.5 55s-40.167 22 -69.5 22h-40v46z" />
    <glyph glyph-name="acute" unicode="&#xb4;" horiz-adv-x="370" 
d="M105 577l79 163h81l-99 -163h-61z" />
    <glyph glyph-name="mu" unicode="&#xb5;" horiz-adv-x="620" 
d="M80 -160v669.001h75v-262c0 -64 13.333 -111.333 40 -142s62 -46 106 -46c48.667 0 88.167 15.667 118.5 47s45.5 79.666 45.5 144.999v258h75v-509h-66l-6 96c-37.333 -70.667 -99.333 -106 -186 -106c-52 0 -94.333 19 -127 57v-207h-75z" />
    <glyph glyph-name="mu" unicode="&#x3bc;" horiz-adv-x="620" 
d="M80 -160v669.001h75v-262c0 -64 13.333 -111.333 40 -142s62 -46 106 -46c48.667 0 88.167 15.667 118.5 47s45.5 79.666 45.5 144.999v258h75v-509h-66l-6 96c-37.333 -70.667 -99.333 -106 -186 -106c-52 0 -94.333 19 -127 57v-207h-75z" />
    <glyph glyph-name="paragraph" unicode="&#xb6;" horiz-adv-x="736" 
d="M301 0v299.999h-21c-70.667 0 -126.667 18.333 -168 55s-62 84.334 -62 143.001s21.167 107 63.5 145s98.833 57 169.5 57h333v-700h-70v638h-175v-638h-70z" />
    <glyph glyph-name="periodcentered" unicode="&#xb7;" horiz-adv-x="227" 
d="M113 404c14.667 0 27.332 -5.33496 37.999 -16.002c10.667 -10.668 16 -23.335 16 -38c0 -14.667 -5.16699 -27.334 -15.5 -38c-10.333 -10.667 -23.166 -16 -38.499 -16c-14.667 0 -27.167 5.33301 -37.5 16s-15.5 23.334 -15.5 38.001s5.16699 27.334 15.5 38.001
s22.833 16 37.5 16z" />
    <glyph glyph-name="cedilla" unicode="&#xb8;" horiz-adv-x="355" 
d="M200 0l29.998 29.001c2 -0.666992 4.66699 -1.83398 8 -3.50098s9.33301 -5.66699 18 -12s16.334 -13.333 23.001 -21s12.667 -18 18 -31s8 -26.833 8 -41.5c0 -35.333 -13.5 -63.333 -40.5 -84s-59.833 -31 -98.5 -31c-18 0 -35.5 2.5 -52.5 7.5
s-29.5 9.83301 -37.5 14.5l-11 7l20 48c20 -14.667 47.333 -22 82 -22c24 0 42.833 6.16699 56.5 18.5s20.5 28.5 20.5 48.5c0 14 -3.66699 27.167 -11 39.5c-7.33398 12.333 -14.667 20.833 -21.999 25.5z" />
    <glyph glyph-name="onesuperior" unicode="&#xb9;" horiz-adv-x="279" 
d="M30 596l142 104h47v-420h-57v348l-101 -71z" />
    <glyph glyph-name="ordmasculine" unicode="&#xba;" horiz-adv-x="458" 
d="M229 433c30.667 0 56.667 10.333 78 31s32 46.667 32 78s-10.667 57.5 -32 78.5s-47.333 31.5 -78 31.5s-56.5 -10.5 -77.5 -31.5s-31.5 -47.167 -31.5 -78.5s10.5 -57.333 31.5 -78s46.833 -31 77.5 -31zM231 704c48 0 87.833 -15.167 119.5 -45.5
s47.5 -68.5 47.5 -114.5s-16.333 -84.833 -49 -116.5s-73.334 -47.5 -122 -47.5c-48 0 -87.833 15.333 -119.5 46s-47.5 68.667 -47.5 114c0 46 16.5 84.833 49.5 116.5s73.5 47.5 121.5 47.5zM70 278v43h318v-43h-318z" />
    <glyph glyph-name="guillemotright" unicode="&#xbb;" horiz-adv-x="761" 
d="M75 140l223 209l-223 208l42 45l266 -237v-30l-266 -238zM403 140l223 209l-223 208l42 45l266 -237v-30l-266 -238z" />
    <glyph glyph-name="onequarter" unicode="&#xbc;" horiz-adv-x="835" 
d="M70 596l142 104h47v-420h-57v348l-101 -71zM529 152h146v198zM479 154l194 266h56v-268h66v-46h-66v-106h-54v106h-196v48zM150 0l512 700h58l-511 -700h-59z" />
    <glyph glyph-name="onehalf" unicode="&#xbd;" horiz-adv-x="886" 
d="M70 596l142 104h47v-420h-57v348l-101 -71zM150 0l512 700h58l-511 -700h-59zM555 43l157.999 154.999c37.333 37.333 56 72.333 56 105c0 19.333 -7.5 36 -22.5 50s-33.5 21 -55.5 21c-19.3359 0 -36.6689 -4.66699 -52 -14
c-15.3379 -9.33301 -25.6709 -18.666 -31 -27.999l-9 -15l-46 25c1.33301 2 3 5 5 9s7 10.833 15 20.5s17 18.167 27 25.5s23.333 14 40 20s34.667 9 54 9c38 0 69.5 -11.167 94.5 -33.5s37.5 -50.833 37.5 -85.5c0 -24.667 -5.66699 -47.5 -17 -68.5
c-11.3359 -21 -29.6689 -44.167 -54.999 -69.5l-122 -119h191v-50h-268v43z" />
    <glyph glyph-name="threequarters" unicode="&#xbe;" horiz-adv-x="855" 
d="M549 152h146v198zM499 154l194 266h56v-268h66v-46h-66v-106h-54v106h-196v48zM170 0l512 700h58l-511 -700h-59zM137 522h42.001c25.333 0 45.166 6.16699 59.499 18.5s21.5 28.5 21.5 48.5s-7.16699 36.167 -21.5 48.5s-33.833 18.5 -58.5 18.5
c-16.667 0 -31.5 -3.33301 -44.5 -10s-21.5 -13.334 -25.5 -20.001l-7 -9l-43 24c0.666992 2 2 4.33301 4 7c2 2.67676 6.66699 7.84375 14 15.5c7.33301 7.67676 15.333 14.3438 24 20c8.66699 5.67188 20.167 10.8389 34.5 15.5c14.333 4.66699 29.833 7 46.5 7
c39.333 0 71.5 -10.333 96.5 -31s37.5 -46.667 37.5 -78c0 -43.334 -21 -75.667 -63 -96.999c23.334 -10 41.667 -24.333 55 -43s20 -39.667 20 -63c0 -34.667 -14.167 -63.334 -42.5 -86c-28.333 -22.667 -63.833 -34 -106.5 -34c-28 0 -53.167 5.66699 -75.5 17
c-22.333 11.335 -37.833 22.668 -46.5 34l-13 17l43 27c2 -3.33301 5.16699 -7.5 9.5 -12.5s14.333 -11.667 30 -20s33.167 -12.5 52.5 -12.5c27.333 0 49.5 7 66.5 21s25.5 32 25.5 54s-8.5 40.333 -25.5 55s-40.167 22 -69.5 22h-40v46z" />
    <glyph glyph-name="questiondown" unicode="&#xbf;" horiz-adv-x="543" 
d="M280 602c-14.667 0 -27.334 5.33398 -38.001 16.001c-10.667 10.6719 -16 23.3389 -16 38.001c0 14.6719 5.33301 27.3389 16 38c10.667 10.667 23.334 16 38.001 16s27.167 -5.33301 37.5 -16s15.5 -23.334 15.5 -38.001s-5.16699 -27.334 -15.5 -38.001
s-22.833 -16 -37.5 -16zM146 189.001c0 -37.333 12.499 -68.001 37.499 -92.001s55.833 -36 92.5 -36c20 0 38.833 3.5 56.5 10.5s31.834 15.333 42.501 25s19.834 19.334 27.501 29.001s12.834 17.834 15.501 24.5l5 11l60 -31c-1.33301 -4 -3.33301 -9.16699 -6 -15.5
s-9.66699 -17.5 -21 -33.5s-24.333 -30.167 -39 -42.5s-35 -23.5 -61 -33.5s-54.333 -15 -85 -15c-58 0 -106 18.167 -144 54.5s-57 80.833 -57 133.5c0 26 4.16699 50 12.5 72s18.666 40.333 30.999 55s26 29.5 41 44.5s28.833 28.667 41.5 41s23.667 26.833 33 43.5
s14.666 34.334 15.999 53.001h70c0 -26.667 -5.83301 -51.334 -17.5 -74.001s-25.834 -42 -42.5 -58c-16.667 -16 -33.167 -31.833 -49.5 -47.5s-30.333 -33.5 -42 -53.5s-17.5 -41.667 -17.5 -65z" />
    <glyph glyph-name="Agrave" unicode="&#xc0;" horiz-adv-x="700" 
d="M348 612l-148 -347h295zM389 700l301 -700h-85l-86 202h-342l-86 -202h-81l301 700h78zM291 920l79 -163h-61l-99 163h81z" />
    <glyph glyph-name="Aacute" unicode="&#xc1;" horiz-adv-x="700" 
d="M348 612l-148 -347h295zM389 700l301 -700h-85l-86 202h-342l-86 -202h-81l301 700h78zM330 757l79 163h81l-99 -163h-61z" />
    <glyph glyph-name="Acircumflex" unicode="&#xc2;" horiz-adv-x="700" 
d="M348 612l-148 -347h295zM389 700l301 -700h-85l-86 202h-342l-86 -202h-81l301 700h78zM165 757l150 163h70l150 -163h-70l-117 112l-116 -112h-67z" />
    <glyph glyph-name="Atilde" unicode="&#xc3;" horiz-adv-x="700" 
d="M348 612l-148 -347h295zM389 700l301 -700h-85l-86 202h-342l-86 -202h-81l301 700h78zM226 782l-48.002 6.00391c0 3.33301 0.333008 7.66602 1 12.999c0.667969 5.33301 2.83496 14.666 6.5 27.999c3.66699 13.333 8.5 25.166 14.5 35.499s15.5 19.666 28.5 27.999
s27.833 12.5 44.5 12.5c18.667 0 35.834 -4.66699 51.501 -14s27.667 -19.5 36 -30.5s18.333 -21.167 30 -30.5s23.834 -14 36.501 -14s22.834 6 30.501 18s12.167 24 13.5 36l2 18l49 -5c0 -3.34668 -0.333008 -7.67969 -1 -13
c-0.666992 -5.33984 -2.83398 -14.6729 -6.50098 -28c-3.66699 -13.3369 -8.66699 -25.1699 -15 -35.5c-6.33301 -10.333 -16 -19.833 -29 -28.5s-28.167 -13 -45.5 -13c-18 0 -34.667 4.66699 -50 14s-27.166 19.5 -35.499 30.5s-18.5 21.167 -30.5 30.5s-24.333 14 -37 14
s-22.834 -6 -30.501 -18s-12.167 -24 -13.5 -36z" />
    <glyph glyph-name="Adieresis" unicode="&#xc4;" horiz-adv-x="700" 
d="M348 612l-148 -347h295zM389 700l301 -700h-85l-86 202h-342l-86 -202h-81l301 700h78zM450 884c13.333 0 24.833 -4.66699 34.5 -14s14.5 -21 14.5 -35c0 -13.333 -4.83301 -24.833 -14.5 -34.5s-21.167 -14.5 -34.5 -14.5c-14 0 -25.667 4.83301 -35 14.5
s-14 21.167 -14 34.5s4.83301 24.833 14.5 34.5s21.167 14.5 34.5 14.5zM250 884c13.333 0 24.833 -4.66699 34.5 -14s14.5 -21 14.5 -35c0 -13.333 -4.83301 -24.833 -14.5 -34.5s-21.167 -14.5 -34.5 -14.5c-14 0 -25.667 4.83301 -35 14.5s-14 21.167 -14 34.5
s4.83301 24.833 14.5 34.5s21.167 14.5 34.5 14.5z" />
    <glyph glyph-name="Aring" unicode="&#xc5;" horiz-adv-x="700" 
d="M348 612l-148 -347h295zM389 700l301 -700h-85l-86 202h-342l-86 -202h-81l301 700h78zM350 788c16.667 0 31 5.83398 43 17.501s18 26.167 18 43.5s-6 31.666 -18 42.999s-26.333 17 -43 17c-17.333 0 -32 -5.66699 -44 -17c-12 -11.3369 -18 -25.6699 -18 -43
c0 -17.333 6 -31.833 18 -43.5s26.667 -17.5 44 -17.5zM350 950.001c30 0 55.167 -9.66602 75.5 -28.999s30.5 -43.333 30.5 -72c0 -29.3369 -10.167 -53.6699 -30.5 -73c-20.333 -19.333 -45.5 -29 -75.5 -29s-55.167 9.66699 -75.5 29s-30.5 43.666 -30.5 72.999
c0 28.667 10.167 52.667 30.5 72s45.5 29 75.5 29z" />
    <glyph glyph-name="AE" unicode="&#xc6;" horiz-adv-x="1055" 
d="M260 265h245v370zM990 633h-407v-236h357v-64h-357v-265h417v-68h-495v203h-282l-134 -203h-89l465 700h525v-67z" />
    <glyph glyph-name="Ccedilla" unicode="&#xc7;" horiz-adv-x="718" 
d="M55 348c0 101.333 35.168 186.999 105.501 256.999s156.5 105 258.5 105c31.334 0 61.667 -3.66699 91 -11c29.333 -7.33887 53.666 -16.1719 72.999 -26.5c19.333 -10.335 36.333 -20.668 51 -31c14.6719 -10.3379 25.3389 -19.1709 32.001 -26.499l11 -11l-55 -49l-9 9
c-4 4 -12.5 10.667 -25.5 20s-26.833 17.666 -41.5 24.999s-33.667 14 -57 20s-47 9 -71 9c-80.667 0 -148.334 -27.667 -203.001 -83s-82 -123.666 -82 -204.999c0 -82 27.333 -150.667 82 -206s122.334 -83 203.001 -83c40.667 0 78.667 7.83301 114 23.5
s60.666 31.167 75.999 46.5l23 23l52 -48c-2 -2.66699 -5.16699 -6.33398 -9.5 -11c-4.33301 -4.66699 -14 -13.167 -29 -25.5s-30.833 -23.333 -47.5 -33s-38.5 -19 -65.5 -28s-54.833 -14.5 -83.5 -16.5c17.333 -22 26 -46 26 -72c0 -35.333 -13.5 -63.333 -40.5 -84
s-59.833 -31 -98.5 -31c-18 0 -35.5 2.5 -52.5 7.5s-29.167 9.83301 -36.5 14.5l-12 7l20 48c20 -14.667 47.333 -22 82 -22c24 0 42.833 6.16699 56.5 18.5s20.5 28.5 20.5 48.5c0 25.333 -10.667 47 -32 65c-94 8 -171.833 45.667 -233.5 113s-92.5 148.333 -92.5 243z
" />
    <glyph glyph-name="Egrave" unicode="&#xc8;" horiz-adv-x="650" 
d="M595 0h-495v700h485v-68h-407v-235h357v-64h-357v-266h417v-67zM326 920l79 -163h-61l-99 163h81z" />
    <glyph glyph-name="Eacute" unicode="&#xc9;" horiz-adv-x="650" 
d="M595 0h-495v700h485v-68h-407v-235h357v-64h-357v-266h417v-67zM305 757l79 163h81l-99 -163h-61z" />
    <glyph glyph-name="Ecircumflex" unicode="&#xca;" horiz-adv-x="650" 
d="M595 0h-495v700h485v-68h-407v-235h357v-64h-357v-266h417v-67zM160 757l150 163h70l150 -163h-70l-117 112l-116 -112h-67z" />
    <glyph glyph-name="Edieresis" unicode="&#xcb;" horiz-adv-x="650" 
d="M595 0h-495v700h485v-68h-407v-235h357v-64h-357v-266h417v-67zM445 884c13.333 0 24.833 -4.66699 34.5 -14s14.5 -21 14.5 -35c0 -13.333 -4.83301 -24.833 -14.5 -34.5s-21.167 -14.5 -34.5 -14.5c-14 0 -25.667 4.83301 -35 14.5s-14 21.167 -14 34.5
s4.83301 24.833 14.5 34.5s21.167 14.5 34.5 14.5zM245 884c13.333 0 24.833 -4.66699 34.5 -14s14.5 -21 14.5 -35c0 -13.333 -4.83301 -24.833 -14.5 -34.5s-21.167 -14.5 -34.5 -14.5c-14 0 -25.667 4.83301 -35 14.5s-14 21.167 -14 34.5s4.83301 24.833 14.5 34.5
s21.167 14.5 34.5 14.5z" />
    <glyph glyph-name="Igrave" unicode="&#xcc;" horiz-adv-x="290" 
d="M105 0v700h80v-700h-80zM96 920l79 -163h-61l-99 163h81z" />
    <glyph glyph-name="Iacute" unicode="&#xcd;" horiz-adv-x="290" 
d="M105 0v700h80v-700h-80zM115 757l79 163h81l-99 -163h-61z" />
    <glyph glyph-name="Icircumflex" unicode="&#xce;" horiz-adv-x="290" 
d="M105 0v700h80v-700h-80zM-40 757l150 163h70l150 -163h-70l-117 112l-116 -112h-67z" />
    <glyph glyph-name="Idieresis" unicode="&#xcf;" horiz-adv-x="290" 
d="M105 0v700h80v-700h-80zM245 884c13.333 0 24.833 -4.66699 34.5 -14s14.5 -21 14.5 -35c0 -13.333 -4.83301 -24.833 -14.5 -34.5s-21.167 -14.5 -34.5 -14.5c-14 0 -25.667 4.83301 -35 14.5s-14 21.167 -14 34.5s4.83301 24.833 14.5 34.5s21.167 14.5 34.5 14.5z
M45 884c13.333 0 24.833 -4.66699 34.5 -14s14.5 -21 14.5 -35c0 -13.333 -4.83301 -24.833 -14.5 -34.5s-21.167 -14.5 -34.5 -14.5c-14 0 -25.667 4.83301 -35 14.5s-14 21.167 -14 34.5s4.83301 24.833 14.5 34.5s21.167 14.5 34.5 14.5z" />
    <glyph glyph-name="Eth" unicode="&#xd0;" horiz-adv-x="792" 
d="M440 336l-230 -0.000976562v-269h150c86.667 0 158.334 27 215.001 81s85 121.333 85 202s-28.333 147.834 -85 201.501s-128.334 80.5 -215.001 80.5h-150v-247h230v-49zM132 -0.000976562v336.001h-102v49h102v315h224c111.333 0 202.666 -33.167 273.999 -99.5
c71.333 -66.334 107 -149.501 107 -249.501s-36.167 -183.5 -108.5 -250.5s-164.166 -100.5 -275.499 -100.5h-221z" />
    <glyph glyph-name="Ntilde" unicode="&#xd1;" horiz-adv-x="790" 
d="M614 0l-438 587v-587h-76v700h83l431 -579v579h76v-700h-76zM271 782l-48.002 6.00391c0 3.33301 0.333008 7.66602 1 12.999c0.667969 5.33301 2.83496 14.666 6.5 27.999c3.66699 13.333 8.5 25.166 14.5 35.499s15.5 19.666 28.5 27.999s27.833 12.5 44.5 12.5
c18.667 0 35.667 -4.66699 51 -14s27.333 -19.5 36 -30.5s18.834 -21.167 30.501 -30.5s23.834 -14 36.501 -14s22.834 6 30.501 18s12.167 24 13.5 36l2 18l49 -5c0 -3.34668 -0.333008 -7.67969 -1 -13c-0.666992 -5.33984 -2.83398 -14.6729 -6.50098 -28
c-3.66699 -13.3369 -8.66699 -25.1699 -15 -35.5c-6.33301 -10.333 -16 -19.833 -29 -28.5s-28.167 -13 -45.5 -13c-18 0 -34.667 4.66699 -50 14s-27.166 19.5 -35.499 30.5s-18.5 21.167 -30.5 30.5s-24.333 14 -37 14c-12.668 0 -22.835 -6 -30.501 -18
c-7.66699 -12 -12.167 -24 -13.5 -36z" />
    <glyph glyph-name="Ograve" unicode="&#xd2;" horiz-adv-x="835" 
d="M418 61c80.667 0 148.334 27.666 203.001 82.999s82 124 82 206c0 81.334 -27.333 149.667 -82 205s-122.334 83 -203.001 83s-148.334 -27.667 -203.001 -83s-82 -123.666 -82 -204.999c0 -82 27.333 -150.667 82 -206s122.334 -83 203.001 -83zM419 709.999
c102 0 187.667 -34.5 257 -103.5s104 -154.167 104 -255.5s-35.167 -186.833 -105.5 -256.5s-156.5 -104.5 -258.5 -104.5s-187.667 34.333 -257 103s-104 153.667 -104 255s35.167 187 105.5 257s156.5 105 258.5 105zM371 919.999l79 -163h-61l-99 163h81z" />
    <glyph glyph-name="Oacute" unicode="&#xd3;" horiz-adv-x="835" 
d="M418 61c80.667 0 148.334 27.666 203.001 82.999s82 124 82 206c0 81.334 -27.333 149.667 -82 205s-122.334 83 -203.001 83s-148.334 -27.667 -203.001 -83s-82 -123.666 -82 -204.999c0 -82 27.333 -150.667 82 -206s122.334 -83 203.001 -83zM419 709.999
c102 0 187.667 -34.5 257 -103.5s104 -154.167 104 -255.5s-35.167 -186.833 -105.5 -256.5s-156.5 -104.5 -258.5 -104.5s-187.667 34.333 -257 103s-104 153.667 -104 255s35.167 187 105.5 257s156.5 105 258.5 105zM385 756.999l79 163h81l-99 -163h-61z" />
    <glyph glyph-name="Ocircumflex" unicode="&#xd4;" horiz-adv-x="835" 
d="M418 61c80.667 0 148.334 27.666 203.001 82.999s82 124 82 206c0 81.334 -27.333 149.667 -82 205s-122.334 83 -203.001 83s-148.334 -27.667 -203.001 -83s-82 -123.666 -82 -204.999c0 -82 27.333 -150.667 82 -206s122.334 -83 203.001 -83zM419 709.999
c102 0 187.667 -34.5 257 -103.5s104 -154.167 104 -255.5s-35.167 -186.833 -105.5 -256.5s-156.5 -104.5 -258.5 -104.5s-187.667 34.333 -257 103s-104 153.667 -104 255s35.167 187 105.5 257s156.5 105 258.5 105zM233 756.999l150 163h70l150 -163h-70l-117 112
l-116 -112h-67z" />
    <glyph glyph-name="Otilde" unicode="&#xd5;" horiz-adv-x="835" 
d="M418 61c80.667 0 148.334 27.666 203.001 82.999s82 124 82 206c0 81.334 -27.333 149.667 -82 205s-122.334 83 -203.001 83s-148.334 -27.667 -203.001 -83s-82 -123.666 -82 -204.999c0 -82 27.333 -150.667 82 -206s122.334 -83 203.001 -83zM419 709.999
c102 0 187.667 -34.5 257 -103.5s104 -154.167 104 -255.5s-35.167 -186.833 -105.5 -256.5s-156.5 -104.5 -258.5 -104.5s-187.667 34.333 -257 103s-104 153.667 -104 255s35.167 187 105.5 257s156.5 105 258.5 105zM294 781.999l-48.0039 6.00391
c0 3.33301 0.333008 7.66602 1 12.999c0.668945 5.33301 2.83594 14.666 6.50098 27.999c3.66699 13.333 8.5 25.166 14.5 35.499s15.5 19.666 28.5 27.999s27.833 12.5 44.5 12.5c18.667 0 35.834 -4.66699 51.501 -14s27.667 -19.5 36 -30.5s18.333 -21.167 30 -30.5
s23.834 -14 36.501 -14s22.834 6 30.501 18s12.167 24 13.5 36l2 18l49 -5c0 -3.34668 -0.333008 -7.67969 -1 -13c-0.666992 -5.33984 -2.83398 -14.6729 -6.50098 -28c-3.66699 -13.3369 -8.66699 -25.1699 -15 -35.5c-6.33301 -10.333 -16 -19.833 -29 -28.5
s-28.167 -13 -45.5 -13c-18 0 -34.667 4.66699 -50 14s-27.166 19.5 -35.499 30.5s-18.5 21.167 -30.5 30.5s-24.333 14 -37 14c-12.668 0 -22.835 -6 -30.5 -18c-7.66699 -12 -12.167 -24 -13.5 -36z" />
    <glyph glyph-name="Odieresis" unicode="&#xd6;" horiz-adv-x="835" 
d="M418 61c80.667 0 148.334 27.666 203.001 82.999s82 124 82 206c0 81.334 -27.333 149.667 -82 205s-122.334 83 -203.001 83s-148.334 -27.667 -203.001 -83s-82 -123.666 -82 -204.999c0 -82 27.333 -150.667 82 -206s122.334 -83 203.001 -83zM419 709.999
c102 0 187.667 -34.5 257 -103.5s104 -154.167 104 -255.5s-35.167 -186.833 -105.5 -256.5s-156.5 -104.5 -258.5 -104.5s-187.667 34.333 -257 103s-104 153.667 -104 255s35.167 187 105.5 257s156.5 105 258.5 105zM518 883.999c13.333 0 24.833 -4.66699 34.5 -14
s14.5 -21 14.5 -35c0 -13.333 -4.83301 -24.833 -14.5 -34.5s-21.167 -14.5 -34.5 -14.5c-14 0 -25.667 4.83301 -35 14.5s-14 21.167 -14 34.5s4.83301 24.833 14.5 34.5s21.167 14.5 34.5 14.5zM318 883.999c13.333 0 24.833 -4.66699 34.5 -14s14.5 -21 14.5 -35
c0 -13.333 -4.83301 -24.833 -14.5 -34.5s-21.167 -14.5 -34.5 -14.5c-14 0 -25.667 4.83301 -35 14.5s-14 21.167 -14 34.5s4.83301 24.833 14.5 34.5s21.167 14.5 34.5 14.5z" />
    <glyph glyph-name="multiply" unicode="&#xd7;" 
d="M495 114l-193 194l-193 -194l-43 43l194 193l-194 192l43 44l193 -195l193 195l44 -44l-195 -192l195 -193z" />
    <glyph glyph-name="Oslash" unicode="&#xd8;" horiz-adv-x="835" 
d="M626 550l-381.001 -432c50.667 -38.667 108.334 -58 173.001 -58c80.667 0 148.5 27.833 203.5 83.5s82.5 124.5 82.5 206.5c0 79.333 -26 146 -78 200zM782.999 730l-108 -123c70 -68.667 105 -153.667 105 -255s-35.167 -187 -105.5 -257s-156.5 -105 -258.5 -105
c-82 0 -155 24 -219 72l-80 -92h-64l107 123c-70 68.667 -105 154 -105 256c0 101.334 35.167 186.834 105.5 256.5c70.333 69.667 156.5 104.5 258.5 104.5c82.667 0 155.667 -23.667 219 -71l81 91h64zM208.999 150l380.999 433.001c-49.333 38 -106.666 57 -171.999 57
c-80.667 0 -148.5 -27.833 -203.5 -83.5s-82.5 -124.5 -82.5 -206.5c0 -78.667 25.667 -145.334 77 -200.001z" />
    <glyph glyph-name="Ugrave" unicode="&#xd9;" horiz-adv-x="740" 
d="M574 700h76v-416c0 -86 -26.5 -156.5 -79.5 -211.5s-120.167 -82.5 -201.5 -82.5c-82 0 -149 27 -201 81s-78 124 -78 210v419h79v-419c0 -65.333 19 -118.333 57 -159s86.667 -61 146 -61c58.667 0 107 20.333 145 61s57 93.667 57 159v419zM351 920l79 -163h-61
l-99 163h81z" />
    <glyph glyph-name="Uacute" unicode="&#xda;" horiz-adv-x="740" 
d="M574 700h76v-416c0 -86 -26.5 -156.5 -79.5 -211.5s-120.167 -82.5 -201.5 -82.5c-82 0 -149 27 -201 81s-78 124 -78 210v419h79v-419c0 -65.333 19 -118.333 57 -159s86.667 -61 146 -61c58.667 0 107 20.333 145 61s57 93.667 57 159v419zM310 757l79 163h81l-99 -163
h-61z" />
    <glyph glyph-name="Ucircumflex" unicode="&#xdb;" horiz-adv-x="740" 
d="M574 700h76v-416c0 -86 -26.5 -156.5 -79.5 -211.5s-120.167 -82.5 -201.5 -82.5c-82 0 -149 27 -201 81s-78 124 -78 210v419h79v-419c0 -65.333 19 -118.333 57 -159s86.667 -61 146 -61c58.667 0 107 20.333 145 61s57 93.667 57 159v419zM185 757l150 163h70
l150 -163h-70l-117 112l-116 -112h-67z" />
    <glyph glyph-name="Udieresis" unicode="&#xdc;" horiz-adv-x="740" 
d="M574 700h76v-416c0 -86 -26.5 -156.5 -79.5 -211.5s-120.167 -82.5 -201.5 -82.5c-82 0 -149 27 -201 81s-78 124 -78 210v419h79v-419c0 -65.333 19 -118.333 57 -159s86.667 -61 146 -61c58.667 0 107 20.333 145 61s57 93.667 57 159v419zM470 884
c13.333 0 24.833 -4.66699 34.5 -14s14.5 -21 14.5 -35c0 -13.333 -4.83301 -24.833 -14.5 -34.5s-21.167 -14.5 -34.5 -14.5c-14 0 -25.667 4.83301 -35 14.5s-14 21.167 -14 34.5s4.83301 24.833 14.5 34.5s21.167 14.5 34.5 14.5zM270 884
c13.333 0 24.833 -4.66699 34.5 -14s14.5 -21 14.5 -35c0 -13.333 -4.83301 -24.833 -14.5 -34.5s-21.167 -14.5 -34.5 -14.5c-14 0 -25.667 4.83301 -35 14.5s-14 21.167 -14 34.5s4.83301 24.833 14.5 34.5s21.167 14.5 34.5 14.5z" />
    <glyph glyph-name="Yacute" unicode="&#xdd;" horiz-adv-x="670" 
d="M297 0v280l-287 420h92l235 -349l236 349h87l-286 -420v-280h-77zM305 757l79 163h81l-99 -163h-61z" />
    <glyph glyph-name="Thorn" unicode="&#xde;" horiz-adv-x="670" 
d="M178 516v-301h191c50.667 0 91.5 14.167 122.5 42.5c31 28.334 46.5 64.167 46.5 107.5c0 44 -15.5 80.167 -46.5 108.5s-71.833 42.5 -122.5 42.5h-191zM100 0v700h78v-119h201c70 0 126.833 -20.167 170.5 -60.5s65.5 -91.5 65.5 -153.5s-22.333 -113.667 -67 -155
s-102 -62 -172 -62h-198v-150h-78z" />
    <glyph glyph-name="germandbls" unicode="&#xdf;" horiz-adv-x="600" 
d="M155 473l-0.00292969 -473.001h-75v472c0 72 20.5 129.667 61.5 173s95.167 65 162.5 65c64.667 0 117.667 -17.333 159 -52s62 -78.667 62 -132c0 -34.667 -8.66699 -65.334 -26 -92c-17.333 -26.667 -41.333 -47.334 -72 -62
c42.667 -12.667 76.334 -35.167 101.001 -67.5s37 -70.5 37 -114.5c0 -57.333 -20.333 -105 -61 -143s-93 -57 -157 -57c-14.667 0 -28.167 1 -40.5 3s-21.166 3.66699 -26.499 5l-8 3l11 63c19.333 -6 39 -9 59 -9c44.667 0 80.5 13 107.5 39s40.5 59.333 40.5 100
s-14 74 -42 100s-64.667 39 -110 39h-43v61h8c43.334 0 78.667 11.667 106 35s41 53.333 41 90c0 36.668 -13.667 66.835 -41 90.501c-27.333 23.667 -62.666 35.5 -105.999 35.5c-44.667 0 -80.5 -15.333 -107.5 -46s-40.5 -72.667 -40.5 -126z" />
    <glyph glyph-name="agrave" unicode="&#xe0;" horiz-adv-x="570" 
d="M273 48c48 0 85.333 9.5 112 28.5s40 43.167 40 72.5c0 28.667 -13.333 52.667 -40 72s-64 29 -112 29c-44 0 -78.833 -9.66699 -104.5 -29s-38.5 -43.333 -38.5 -72c0 -29.333 12.833 -53.5 38.5 -72.5s60.5 -28.5 104.5 -28.5zM257 306
c69.334 0 123.667 -19.0029 163 -57.0029v42c0 54.667 -13.833 95.834 -41.5 123.501s-64.834 41.5 -111.5 41.5c-28 0 -54.167 -4.33301 -78.5 -13s-41.833 -17 -52.5 -25l-15 -13l-36 48c2 2 4.66699 4.5 8 7.5s11 8.16699 23 15.5s24.833 14 38.5 20s31.5 11.333 53.5 16
s45 7 69 7c68.667 0 122.167 -19.667 160.5 -59s57.5 -95.666 57.5 -168.999v-291h-58l-8 55c-40 -43.333 -98 -65 -174 -65c-61.333 0 -110 14.833 -146 44.5s-54 66.834 -54 111.501c0 45.333 18.333 83.333 55 114s85.667 46 147 46zM247 739.997l79 -163h-61l-99 163h81
z" />
    <glyph glyph-name="aacute" unicode="&#xe1;" horiz-adv-x="570" 
d="M273 48c48 0 85.333 9.5 112 28.5s40 43.167 40 72.5c0 28.667 -13.333 52.667 -40 72s-64 29 -112 29c-44 0 -78.833 -9.66699 -104.5 -29s-38.5 -43.333 -38.5 -72c0 -29.333 12.833 -53.5 38.5 -72.5s60.5 -28.5 104.5 -28.5zM257 306
c69.334 0 123.667 -19.0029 163 -57.0029v42c0 54.667 -13.833 95.834 -41.5 123.501s-64.834 41.5 -111.5 41.5c-28 0 -54.167 -4.33301 -78.5 -13s-41.833 -17 -52.5 -25l-15 -13l-36 48c2 2 4.66699 4.5 8 7.5s11 8.16699 23 15.5s24.833 14 38.5 20s31.5 11.333 53.5 16
s45 7 69 7c68.667 0 122.167 -19.667 160.5 -59s57.5 -95.666 57.5 -168.999v-291h-58l-8 55c-40 -43.333 -98 -65 -174 -65c-61.333 0 -110 14.833 -146 44.5s-54 66.834 -54 111.501c0 45.333 18.333 83.333 55 114s85.667 46 147 46zM247 576.997l79 163h81l-99 -163h-61
z" />
    <glyph glyph-name="acircumflex" unicode="&#xe2;" horiz-adv-x="570" 
d="M273 48c48 0 85.333 9.5 112 28.5s40 43.167 40 72.5c0 28.667 -13.333 52.667 -40 72s-64 29 -112 29c-44 0 -78.833 -9.66699 -104.5 -29s-38.5 -43.333 -38.5 -72c0 -29.333 12.833 -53.5 38.5 -72.5s60.5 -28.5 104.5 -28.5zM257 306
c69.334 0 123.667 -19.0029 163 -57.0029v42c0 54.667 -13.833 95.834 -41.5 123.501s-64.834 41.5 -111.5 41.5c-28 0 -54.167 -4.33301 -78.5 -13s-41.833 -17 -52.5 -25l-15 -13l-36 48c2 2 4.66699 4.5 8 7.5s11 8.16699 23 15.5s24.833 14 38.5 20s31.5 11.333 53.5 16
s45 7 69 7c68.667 0 122.167 -19.667 160.5 -59s57.5 -95.666 57.5 -168.999v-291h-58l-8 55c-40 -43.333 -98 -65 -174 -65c-61.333 0 -110 14.833 -146 44.5s-54 66.834 -54 111.501c0 45.333 18.333 83.333 55 114s85.667 46 147 46zM102 576.997l150 163h70l150 -163
h-70l-117 112l-116 -112h-67z" />
    <glyph glyph-name="atilde" unicode="&#xe3;" horiz-adv-x="570" 
d="M273 48c48 0 85.333 9.5 112 28.5s40 43.167 40 72.5c0 28.667 -13.333 52.667 -40 72s-64 29 -112 29c-44 0 -78.833 -9.66699 -104.5 -29s-38.5 -43.333 -38.5 -72c0 -29.333 12.833 -53.5 38.5 -72.5s60.5 -28.5 104.5 -28.5zM257 306
c69.334 0 123.667 -19.0029 163 -57.0029v42c0 54.667 -13.833 95.834 -41.5 123.501s-64.834 41.5 -111.5 41.5c-28 0 -54.167 -4.33301 -78.5 -13s-41.833 -17 -52.5 -25l-15 -13l-36 48c2 2 4.66699 4.5 8 7.5s11 8.16699 23 15.5s24.833 14 38.5 20s31.5 11.333 53.5 16
s45 7 69 7c68.667 0 122.167 -19.667 160.5 -59s57.5 -95.666 57.5 -168.999v-291h-58l-8 55c-40 -43.333 -98 -65 -174 -65c-61.333 0 -110 14.833 -146 44.5s-54 66.834 -54 111.501c0 45.333 18.333 83.333 55 114s85.667 46 147 46zM169 601.997l-48.0039 6.00195
c0 3.33301 0.333008 7.66602 1 12.999s2.83398 14.666 6.50098 27.999s8.5 25.166 14.5 35.499s15.5 19.666 28.5 27.999s27.833 12.5 44.5 12.5c18.667 0 35.667 -4.66699 51 -14s27.333 -19.5 36 -30.5s18.834 -21.167 30.501 -30.5s23.834 -14 36.501 -14
s22.834 6 30.501 18s12.167 24 13.5 36l2 18l49 -5c0 -3.34375 -0.333008 -7.67676 -1 -12.999c-0.673828 -5.33594 -2.84082 -14.6689 -6.5 -28c-3.66699 -13.3379 -8.66699 -25.1709 -15 -35.499c-6.33301 -10.333 -16 -19.833 -29 -28.5s-28.167 -13 -45.5 -13
c-18 0 -34.667 4.66699 -50 14s-27.166 19.5 -35.499 30.5s-18.5 21.167 -30.5 30.5s-24.333 14 -37 14s-22.834 -6 -30.501 -18s-12.167 -24 -13.5 -36z" />
    <glyph glyph-name="adieresis" unicode="&#xe4;" horiz-adv-x="570" 
d="M273 48c48 0 85.333 9.5 112 28.5s40 43.167 40 72.5c0 28.667 -13.333 52.667 -40 72s-64 29 -112 29c-44 0 -78.833 -9.66699 -104.5 -29s-38.5 -43.333 -38.5 -72c0 -29.333 12.833 -53.5 38.5 -72.5s60.5 -28.5 104.5 -28.5zM257 306
c69.334 0 123.667 -19.0029 163 -57.0029v42c0 54.667 -13.833 95.834 -41.5 123.501s-64.834 41.5 -111.5 41.5c-28 0 -54.167 -4.33301 -78.5 -13s-41.833 -17 -52.5 -25l-15 -13l-36 48c2 2 4.66699 4.5 8 7.5s11 8.16699 23 15.5s24.833 14 38.5 20s31.5 11.333 53.5 16
s45 7 69 7c68.667 0 122.167 -19.667 160.5 -59s57.5 -95.666 57.5 -168.999v-291h-58l-8 55c-40 -43.333 -98 -65 -174 -65c-61.333 0 -110 14.833 -146 44.5s-54 66.834 -54 111.501c0 45.333 18.333 83.333 55 114s85.667 46 147 46zM387 703.997
c13.333 0 24.833 -4.66699 34.5 -14s14.5 -21 14.5 -35c0 -13.333 -4.83301 -24.833 -14.5 -34.5s-21.167 -14.5 -34.5 -14.5c-14 0 -25.667 4.83301 -35 14.5s-14 21.167 -14 34.5s4.83301 24.833 14.5 34.5s21.167 14.5 34.5 14.5zM187 703.997
c13.333 0 24.833 -4.66699 34.5 -14s14.5 -21 14.5 -35c0 -13.333 -4.83301 -24.833 -14.5 -34.5s-21.167 -14.5 -34.5 -14.5c-14 0 -25.667 4.83301 -35 14.5s-14 21.167 -14 34.5s4.83301 24.833 14.5 34.5s21.167 14.5 34.5 14.5z" />
    <glyph glyph-name="aring" unicode="&#xe5;" horiz-adv-x="570" 
d="M273 48c48 0 85.333 9.5 112 28.5s40 43.167 40 72.5c0 28.667 -13.333 52.667 -40 72s-64 29 -112 29c-44 0 -78.833 -9.66699 -104.5 -29s-38.5 -43.333 -38.5 -72c0 -29.333 12.833 -53.5 38.5 -72.5s60.5 -28.5 104.5 -28.5zM257 306
c69.334 0 123.667 -19.0029 163 -57.0029v42c0 54.667 -13.833 95.834 -41.5 123.501s-64.834 41.5 -111.5 41.5c-28 0 -54.167 -4.33301 -78.5 -13s-41.833 -17 -52.5 -25l-15 -13l-36 48c2 2 4.66699 4.5 8 7.5s11 8.16699 23 15.5s24.833 14 38.5 20s31.5 11.333 53.5 16
s45 7 69 7c68.667 0 122.167 -19.667 160.5 -59s57.5 -95.666 57.5 -168.999v-291h-58l-8 55c-40 -43.333 -98 -65 -174 -65c-61.333 0 -110 14.833 -146 44.5s-54 66.834 -54 111.501c0 45.333 18.333 83.333 55 114s85.667 46 147 46zM292 607.997
c16.667 0 31 5.83398 43 17.501s18 26.167 18 43.5s-6 31.666 -18 42.999s-26.333 17 -43 17c-17.333 0 -32 -5.66699 -44 -17c-12 -11.3359 -18 -25.6689 -18 -43c0 -17.333 6 -31.833 18 -43.5s26.667 -17.5 44 -17.5zM292 769.998c30 0 55.167 -9.66602 75.5 -28.999
s30.5 -43.333 30.5 -72c0 -29.335 -10.167 -53.668 -30.5 -73c-20.333 -19.333 -45.5 -29 -75.5 -29s-55.167 9.66699 -75.5 29s-30.5 43.666 -30.5 72.999c0 28.667 10.167 52.667 30.5 72s45.5 29 75.5 29z" />
    <glyph glyph-name="ae" unicode="&#xe6;" horiz-adv-x="981" 
d="M257 306c68 0 122.332 -18.002 162.999 -54.002v39c0 54.667 -13.667 95.834 -41 123.501s-64.333 41.5 -111 41.5c-28.667 0 -55.167 -4.16699 -79.5 -12.5s-41.833 -16.833 -52.5 -25.5l-15 -12l-36 49c2 2 4.66699 4.33301 8 7s11 7.66699 23 15
s24.833 13.833 38.5 19.5s31.667 10.834 54 15.501s45.5 7 69.5 7c95.333 0 159.333 -38.333 192 -115c23.333 35.333 54.166 63.333 92.499 84s80.5 31 126.5 31c68 0 126.167 -24.5 174.5 -73.5s72.5 -107.833 72.5 -176.5l-2 -19h-439
c0.666992 -55.333 19.5 -101.5 56.5 -138.5s83.5 -55.5 139.5 -55.5c22.6699 0 44.3369 3.16699 65.001 9.5c20.667 6.33301 37.5 14.166 50.5 23.499s24.333 18.666 34 27.999s16.5 17 20.5 23l6 10l48 -39c-2 -3.33301 -4.83301 -7.66602 -8.5 -12.999
s-12.167 -15 -25.5 -29s-28 -26.333 -44 -37s-37.5 -20.334 -64.5 -29.001s-55.5 -13 -85.5 -13c-46 0 -87.833 9.83301 -125.5 29.5s-68.167 46.834 -91.5 81.501c-13.333 -34 -37.833 -61 -73.5 -81s-80.5 -30 -134.5 -30c-63.333 0 -113.666 14.833 -150.999 44.5
s-56 66.834 -56 111.501c0 45.333 18.333 83.333 55 114s85.667 46 147 46zM272.999 249.998c-44 0 -78.833 -9.66699 -104.5 -29s-38.5 -43.333 -38.5 -72c0 -29.333 12.833 -53.5 38.5 -72.5s60.5 -28.5 104.5 -28.5c48 0 85.333 9.5 112 28.5s40 43.167 40 72.5
c0 28.667 -13.333 52.667 -40 72s-64 29 -112 29zM687.999 459.998c-48 0 -89.5 -14.667 -124.5 -44s-56.5 -67 -64.5 -113h363c-6.66699 44.667 -26.667 82 -60 112s-71.333 45 -114 45z" />
    <glyph glyph-name="ccedilla" unicode="&#xe7;" horiz-adv-x="548" 
d="M462 128l51.002 -47.0039c-1.33301 -2 -3.5 -4.66699 -6.5 -8s-9.83301 -9.66602 -20.5 -18.999c-10.6689 -9.33301 -21.8359 -17.833 -33.501 -25.5c-11.668 -7.66699 -27.335 -15 -47.001 -22c-19.667 -7 -39.834 -11.833 -60.5 -14.5c18 -20.667 27 -44.667 27 -72
c0 -35.333 -13.5 -63.333 -40.5 -84s-59.833 -31 -98.5 -31c-18 0 -35.5 2.5 -52.5 7.5s-29.167 9.83301 -36.5 14.5l-12 7l20 48c20 -14.667 47.333 -22 82 -22c24 0 42.833 6.16699 56.5 18.5s20.5 28.5 20.5 48.5c0 24.667 -11 46.334 -33 65.001
c-68 7.33301 -123.833 35.5 -167.5 84.5s-65.5 107.833 -65.5 176.5c0 74.667 26 137.667 78 189s116 77 192 77c38 0 73 -6.83301 105 -20.5s54.667 -27.167 68 -40.5l20 -21l-50 -50c-4 4.66699 -9.5 10.5 -16.5 17.5s-23 16.333 -48 28s-51.833 17.5 -80.5 17.5
c-54.667 0 -100.5 -18.667 -137.5 -56s-55.5 -83.666 -55.5 -138.999c0 -56 18.333 -102.667 55 -140s82.667 -56 138 -56c19.333 0 37.5 2.33301 54.5 7s31 10.334 42 17.001s20.667 13.5 29 20.5c8.33691 7 14.1699 12.833 17.5 17.5z" />
    <glyph glyph-name="egrave" unicode="&#xe8;" horiz-adv-x="606" 
d="M559 250l-439.001 0.00195312c0.666992 -55.333 19.5 -101.5 56.5 -138.5s83.5 -55.5 139.5 -55.5c22.667 0 44.334 3.16699 65.001 9.5s37.5 14.166 50.5 23.499s24.333 18.666 34 27.999s16.5 17 20.5 23l6 10l48 -39c-2 -3.33301 -4.83301 -7.66602 -8.5 -12.999
s-12.167 -15 -25.5 -29s-28 -26.333 -44 -37s-37.5 -20.334 -64.5 -29.001s-55.5 -13 -85.5 -13c-76 0 -139.5 25.167 -190.5 75.5s-76.5 112.833 -76.5 187.5s26 137.667 78 189s115.667 77 191 77c68 0 126.167 -24.5 174.5 -73.5s72.5 -107.833 72.5 -176.5z
M312.999 460.002c-48 0 -89.5 -14.667 -124.5 -44s-56.5 -67 -64.5 -113h363c-6.66699 44.667 -26.667 82 -60 112s-71.333 45 -114 45zM260.999 740.002l79 -163h-61l-99 163h81z" />
    <glyph glyph-name="eacute" unicode="&#xe9;" horiz-adv-x="606" 
d="M559 250l-439.001 0.00195312c0.666992 -55.333 19.5 -101.5 56.5 -138.5s83.5 -55.5 139.5 -55.5c22.667 0 44.334 3.16699 65.001 9.5s37.5 14.166 50.5 23.499s24.333 18.666 34 27.999s16.5 17 20.5 23l6 10l48 -39c-2 -3.33301 -4.83301 -7.66602 -8.5 -12.999
s-12.167 -15 -25.5 -29s-28 -26.333 -44 -37s-37.5 -20.334 -64.5 -29.001s-55.5 -13 -85.5 -13c-76 0 -139.5 25.167 -190.5 75.5s-76.5 112.833 -76.5 187.5s26 137.667 78 189s115.667 77 191 77c68 0 126.167 -24.5 174.5 -73.5s72.5 -107.833 72.5 -176.5z
M312.999 460.002c-48 0 -89.5 -14.667 -124.5 -44s-56.5 -67 -64.5 -113h363c-6.66699 44.667 -26.667 82 -60 112s-71.333 45 -114 45zM269.999 577.002l79 163h81l-99 -163h-61z" />
    <glyph glyph-name="ecircumflex" unicode="&#xea;" horiz-adv-x="606" 
d="M559 250l-439.001 0.00195312c0.666992 -55.333 19.5 -101.5 56.5 -138.5s83.5 -55.5 139.5 -55.5c22.667 0 44.334 3.16699 65.001 9.5s37.5 14.166 50.5 23.499s24.333 18.666 34 27.999s16.5 17 20.5 23l6 10l48 -39c-2 -3.33301 -4.83301 -7.66602 -8.5 -12.999
s-12.167 -15 -25.5 -29s-28 -26.333 -44 -37s-37.5 -20.334 -64.5 -29.001s-55.5 -13 -85.5 -13c-76 0 -139.5 25.167 -190.5 75.5s-76.5 112.833 -76.5 187.5s26 137.667 78 189s115.667 77 191 77c68 0 126.167 -24.5 174.5 -73.5s72.5 -107.833 72.5 -176.5z
M312.999 460.002c-48 0 -89.5 -14.667 -124.5 -44s-56.5 -67 -64.5 -113h363c-6.66699 44.667 -26.667 82 -60 112s-71.333 45 -114 45zM124.999 577.002l150 163h70l150 -163h-70l-117 112l-116 -112h-67z" />
    <glyph glyph-name="edieresis" unicode="&#xeb;" horiz-adv-x="606" 
d="M559 250l-439.001 0.00195312c0.666992 -55.333 19.5 -101.5 56.5 -138.5s83.5 -55.5 139.5 -55.5c22.667 0 44.334 3.16699 65.001 9.5s37.5 14.166 50.5 23.499s24.333 18.666 34 27.999s16.5 17 20.5 23l6 10l48 -39c-2 -3.33301 -4.83301 -7.66602 -8.5 -12.999
s-12.167 -15 -25.5 -29s-28 -26.333 -44 -37s-37.5 -20.334 -64.5 -29.001s-55.5 -13 -85.5 -13c-76 0 -139.5 25.167 -190.5 75.5s-76.5 112.833 -76.5 187.5s26 137.667 78 189s115.667 77 191 77c68 0 126.167 -24.5 174.5 -73.5s72.5 -107.833 72.5 -176.5z
M312.999 460.002c-48 0 -89.5 -14.667 -124.5 -44s-56.5 -67 -64.5 -113h363c-6.66699 44.667 -26.667 82 -60 112s-71.333 45 -114 45zM409.999 704.002c13.333 0 24.833 -4.66699 34.5 -14s14.5 -21 14.5 -35c0 -13.333 -4.83301 -24.833 -14.5 -34.5
s-21.167 -14.5 -34.5 -14.5c-14 0 -25.667 4.83301 -35 14.5s-14 21.167 -14 34.5s4.83301 24.833 14.5 34.5s21.167 14.5 34.5 14.5zM209.999 704.002c13.333 0 24.833 -4.66699 34.5 -14s14.5 -21 14.5 -35c0 -13.333 -4.83301 -24.833 -14.5 -34.5
s-21.167 -14.5 -34.5 -14.5c-14 0 -25.667 4.83301 -35 14.5s-14 21.167 -14 34.5s4.83301 24.833 14.5 34.5s21.167 14.5 34.5 14.5z" />
    <glyph glyph-name="igrave" unicode="&#xec;" horiz-adv-x="247" 
d="M71 740l79 -163h-61l-99 163h81zM85 0v509h77v-509h-77z" />
    <glyph glyph-name="iacute" unicode="&#xed;" horiz-adv-x="247" 
d="M97 577l79 163h81l-99 -163h-61zM85 0v509h77v-509h-77z" />
    <glyph glyph-name="icircumflex" unicode="&#xee;" horiz-adv-x="247" 
d="M-61 577l150 163h70l150 -163h-70l-117 112l-116 -112h-67zM85 0v509h77v-509h-77z" />
    <glyph glyph-name="idieresis" unicode="&#xef;" horiz-adv-x="247" 
d="M224 704c13.333 0 24.833 -4.66699 34.5 -14s14.5 -21 14.5 -35c0 -13.333 -4.83301 -24.833 -14.5 -34.5s-21.167 -14.5 -34.5 -14.5c-14 0 -25.667 4.83301 -35 14.5s-14 21.167 -14 34.5s4.83301 24.833 14.5 34.5s21.167 14.5 34.5 14.5zM24 704
c13.333 0 24.833 -4.66699 34.5 -14s14.5 -21 14.5 -35c0 -13.333 -4.83301 -24.833 -14.5 -34.5s-21.167 -14.5 -34.5 -14.5c-14 0 -25.667 4.83301 -35 14.5s-14 21.167 -14 34.5s4.83301 24.833 14.5 34.5s21.167 14.5 34.5 14.5zM85 0v509h77v-509h-77z" />
    <glyph glyph-name="eth" unicode="&#xf0;" horiz-adv-x="627" 
d="M314 59c54 0 99.667 18.333 137 55s56 81 56 133c0 52.667 -18.5 97.167 -55.5 133.5s-82.833 54.5 -137.5 54.5s-100.667 -18.167 -138 -54.5s-56 -80.833 -56 -133.5c0 -52 18.667 -96.333 56 -133s83.333 -55 138 -55zM305 497c41.333 0 78.999 -11.333 112.999 -34
l-80 119l-184 -39v47l155 33l-51 77h85l39 -61l144 31v-47l-117 -25l112 -171c40.667 -62 61 -121.667 61 -179c0 -72 -26.5 -133 -79.5 -183s-116.5 -75 -190.5 -75c-75.333 0 -138.666 24.5 -189.999 73.5s-77 109.833 -77 182.5c0 69.333 25.5 128.5 76.5 177.5
s112.167 73.5 183.5 73.5z" />
    <glyph glyph-name="ntilde" unicode="&#xf1;" horiz-adv-x="610" 
d="M155 248v-248h-75v509h66l6 -98c37.333 72 100 108 188 108c57.333 0 105 -20 143 -60s57 -97.333 57 -172v-287h-75v263c0 62.667 -13.833 109.5 -41.5 140.5s-62.5 46.5 -104.5 46.5c-48 0 -87.333 -16.333 -118 -49s-46 -83.667 -46 -153zM184 602l-48.0039 6.00195
c0 3.33301 0.333008 7.66602 1 12.999c0.667969 5.33301 2.83496 14.666 6.50098 27.999c3.66699 13.333 8.5 25.166 14.5 35.499s15.5 19.666 28.5 27.999s27.833 12.5 44.5 12.5c18.667 0 35.834 -4.66699 51.501 -14s27.667 -19.5 36 -30.5s18.333 -21.167 30 -30.5
s23.834 -14 36.501 -14s22.834 6 30.501 18s12.167 24 13.5 36l2 18l49 -5c0 -3.34375 -0.333008 -7.67676 -1 -12.999c-0.673828 -5.33594 -2.84082 -14.6689 -6.5 -28c-3.66699 -13.3379 -8.66699 -25.1709 -15 -35.499c-6.33301 -10.333 -16 -19.833 -29 -28.5
s-28.167 -13 -45.5 -13c-18 0 -34.667 4.66699 -50 14s-27.166 19.5 -35.499 30.5s-18.5 21.167 -30.5 30.5s-24.333 14 -37 14s-22.834 -6 -30.501 -18s-12.167 -24 -13.5 -36z" />
    <glyph glyph-name="ograve" unicode="&#xf2;" horiz-adv-x="627" 
d="M313 59c55.333 0 101.5 18.666 138.5 55.999s55.5 84 55.5 140c0 55.334 -18.5 101.667 -55.5 139s-83.167 56 -138.5 56c-54.667 0 -100.5 -18.667 -137.5 -56s-55.5 -83.666 -55.5 -138.999c0 -56 18.333 -102.667 55 -140s82.667 -56 138 -56zM315 518.999
c76 0 139.5 -25.167 190.5 -75.5s76.5 -112.833 76.5 -187.5s-26 -137.667 -78 -189s-116 -77 -192 -77s-139.5 25.167 -190.5 75.5s-76.5 112.833 -76.5 187.5s26 137.667 78 189s116 77 192 77zM276 739.999l79 -163h-61l-99 163h81z" />
    <glyph glyph-name="oacute" unicode="&#xf3;" horiz-adv-x="627" 
d="M313 59c55.333 0 101.5 18.666 138.5 55.999s55.5 84 55.5 140c0 55.334 -18.5 101.667 -55.5 139s-83.167 56 -138.5 56c-54.667 0 -100.5 -18.667 -137.5 -56s-55.5 -83.666 -55.5 -138.999c0 -56 18.333 -102.667 55 -140s82.667 -56 138 -56zM315 518.999
c76 0 139.5 -25.167 190.5 -75.5s76.5 -112.833 76.5 -187.5s-26 -137.667 -78 -189s-116 -77 -192 -77s-139.5 25.167 -190.5 75.5s-76.5 112.833 -76.5 187.5s26 137.667 78 189s116 77 192 77zM271 576.999l79 163h81l-99 -163h-61z" />
    <glyph glyph-name="ocircumflex" unicode="&#xf4;" horiz-adv-x="627" 
d="M313 59c55.333 0 101.5 18.666 138.5 55.999s55.5 84 55.5 140c0 55.334 -18.5 101.667 -55.5 139s-83.167 56 -138.5 56c-54.667 0 -100.5 -18.667 -137.5 -56s-55.5 -83.666 -55.5 -138.999c0 -56 18.333 -102.667 55 -140s82.667 -56 138 -56zM315 518.999
c76 0 139.5 -25.167 190.5 -75.5s76.5 -112.833 76.5 -187.5s-26 -137.667 -78 -189s-116 -77 -192 -77s-139.5 25.167 -190.5 75.5s-76.5 112.833 -76.5 187.5s26 137.667 78 189s116 77 192 77zM128 576.999l150 163h70l150 -163h-70l-117 112l-116 -112h-67z" />
    <glyph glyph-name="otilde" unicode="&#xf5;" horiz-adv-x="627" 
d="M313 59c55.333 0 101.5 18.666 138.5 55.999s55.5 84 55.5 140c0 55.334 -18.5 101.667 -55.5 139s-83.167 56 -138.5 56c-54.667 0 -100.5 -18.667 -137.5 -56s-55.5 -83.666 -55.5 -138.999c0 -56 18.333 -102.667 55 -140s82.667 -56 138 -56zM315 518.999
c76 0 139.5 -25.167 190.5 -75.5s76.5 -112.833 76.5 -187.5s-26 -137.667 -78 -189s-116 -77 -192 -77s-139.5 25.167 -190.5 75.5s-76.5 112.833 -76.5 187.5s26 137.667 78 189s116 77 192 77zM190 601.999l-48.0039 6.00195c0 3.33301 0.333008 7.66602 1 12.999
c0.667969 5.33301 2.83496 14.666 6.50098 27.999c3.66699 13.333 8.5 25.166 14.5 35.499s15.5 19.666 28.5 27.999s27.833 12.5 44.5 12.5c18.667 0 35.834 -4.66699 51.501 -14s27.667 -19.5 36 -30.5s18.333 -21.167 30 -30.5s23.834 -14 36.501 -14s22.834 6 30.501 18
s12.167 24 13.5 36l2 18l49 -5c0 -3.34375 -0.333008 -7.67676 -1 -12.999c-0.673828 -5.33594 -2.84082 -14.6689 -6.5 -28c-3.66699 -13.3379 -8.66699 -25.1709 -15 -35.499c-6.33301 -10.333 -16 -19.833 -29 -28.5s-28.167 -13 -45.5 -13c-18 0 -34.667 4.66699 -50 14
s-27.166 19.5 -35.499 30.5s-18.5 21.167 -30.5 30.5s-24.333 14 -37 14s-22.834 -6 -30.501 -18s-12.167 -24 -13.5 -36z" />
    <glyph glyph-name="odieresis" unicode="&#xf6;" horiz-adv-x="627" 
d="M313 59c55.333 0 101.5 18.666 138.5 55.999s55.5 84 55.5 140c0 55.334 -18.5 101.667 -55.5 139s-83.167 56 -138.5 56c-54.667 0 -100.5 -18.667 -137.5 -56s-55.5 -83.666 -55.5 -138.999c0 -56 18.333 -102.667 55 -140s82.667 -56 138 -56zM315 518.999
c76 0 139.5 -25.167 190.5 -75.5s76.5 -112.833 76.5 -187.5s-26 -137.667 -78 -189s-116 -77 -192 -77s-139.5 25.167 -190.5 75.5s-76.5 112.833 -76.5 187.5s26 137.667 78 189s116 77 192 77zM413 703.999c13.333 0 24.833 -4.66699 34.5 -14s14.5 -21 14.5 -35
c0 -13.333 -4.83301 -24.833 -14.5 -34.5s-21.167 -14.5 -34.5 -14.5c-14 0 -25.667 4.83301 -35 14.5s-14 21.167 -14 34.5s4.83301 24.833 14.5 34.5s21.167 14.5 34.5 14.5zM213 703.999c13.333 0 24.833 -4.66699 34.5 -14s14.5 -21 14.5 -35
c0 -13.333 -4.83301 -24.833 -14.5 -34.5s-21.167 -14.5 -34.5 -14.5c-14 0 -25.667 4.83301 -35 14.5s-14 21.167 -14 34.5s4.83301 24.833 14.5 34.5s21.167 14.5 34.5 14.5z" />
    <glyph glyph-name="divide" unicode="&#xf7;" 
d="M302 614c14 0 26 -5 36 -15s15 -22 15 -36s-5 -26 -15 -36s-22 -15 -36 -15s-26 5 -36 15s-15 22 -15 36s5 26 15 36s22 15 36 15zM555 325h-505v64h505v-64zM302 201c14 0 26 -5 36 -15s15 -22 15 -36s-5 -26 -15 -36s-22 -15 -36 -15s-26 5 -36 15s-15 22 -15 36
s5 26 15 36s22 15 36 15z" />
    <glyph glyph-name="oslash" unicode="&#xf8;" horiz-adv-x="626" 
d="M463 385l-264 -293c32.667 -25.333 70.667 -38 114 -38c56 0 103 19.167 141 57.5s57 85.833 57 142.5c0 51.333 -16 95 -48 131zM315 519c58 0 110.667 -16.6689 158 -50.002l63 71h61l-89 -101c49.333 -49.333 74 -110.666 74 -183.999
c0 -74.667 -26 -137.667 -78 -189s-116 -77 -192 -77c-59.333 0 -112 16.667 -158 50l-63 -69h-61l88 98c-48.667 50 -73 111.333 -73 184c0 74.667 26 137.834 78 189.501s116 77.5 192 77.5zM164 121.998l264 293c-32.667 25.333 -71 38 -115 38
c-56 0 -102.833 -19 -140.5 -57s-56.5 -85.333 -56.5 -142c0 -50.667 16 -94.667 48 -132z" />
    <glyph glyph-name="ugrave" unicode="&#xf9;" horiz-adv-x="610" 
d="M455 261v248h75v-509h-66l-6 98c-37.333 -72 -100 -108 -188 -108c-57.333 0 -105 20 -143 60s-57 97.333 -57 172v287h75v-263c0 -62.667 13.833 -109.5 41.5 -140.5s62.5 -46.5 104.5 -46.5c48 0 87.333 16.333 118 49s46 83.667 46 153zM268 740l79 -163h-61l-99 163
h81z" />
    <glyph glyph-name="uacute" unicode="&#xfa;" horiz-adv-x="610" 
d="M257 577l79 163h81l-99 -163h-61zM455 261v248h75v-509h-66l-6 98c-37.333 -72 -100 -108 -188 -108c-57.333 0 -105 20 -143 60s-57 97.333 -57 172v287h75v-263c0 -62.667 13.833 -109.5 41.5 -140.5s62.5 -46.5 104.5 -46.5c48 0 87.333 16.333 118 49
s46 83.667 46 153z" />
    <glyph glyph-name="ucircumflex" unicode="&#xfb;" horiz-adv-x="610" 
d="M115 577l150 163h70l150 -163h-70l-117 112l-116 -112h-67zM455 261v248h75v-509h-66l-6 98c-37.333 -72 -100 -108 -188 -108c-57.333 0 -105 20 -143 60s-57 97.333 -57 172v287h75v-263c0 -62.667 13.833 -109.5 41.5 -140.5s62.5 -46.5 104.5 -46.5
c48 0 87.333 16.333 118 49s46 83.667 46 153z" />
    <glyph glyph-name="udieresis" unicode="&#xfc;" horiz-adv-x="610" 
d="M400 704c13.333 0 24.833 -4.66699 34.5 -14s14.5 -21 14.5 -35c0 -13.333 -4.83301 -24.833 -14.5 -34.5s-21.167 -14.5 -34.5 -14.5c-14 0 -25.667 4.83301 -35 14.5s-14 21.167 -14 34.5s4.83301 24.833 14.5 34.5s21.167 14.5 34.5 14.5zM200 704
c13.333 0 24.833 -4.66699 34.5 -14s14.5 -21 14.5 -35c0 -13.333 -4.83301 -24.833 -14.5 -34.5s-21.167 -14.5 -34.5 -14.5c-14 0 -25.667 4.83301 -35 14.5s-14 21.167 -14 34.5s4.83301 24.833 14.5 34.5s21.167 14.5 34.5 14.5zM455 261v248h75v-509h-66l-6 98
c-37.333 -72 -100 -108 -188 -108c-57.333 0 -105 20 -143 60s-57 97.333 -57 172v287h75v-263c0 -62.667 13.833 -109.5 41.5 -140.5s62.5 -46.5 104.5 -46.5c48 0 87.333 16.333 118 49s46 83.667 46 153z" />
    <glyph glyph-name="yacute" unicode="&#xfd;" horiz-adv-x="517" 
d="M221 2l-216 507h83l172 -424l172 424h80l-219 -514c-46.667 -110 -112 -165 -196 -165c-18.667 0 -35.667 1.83301 -51 5.5s-26 7.16699 -32 10.5l-9 6l24 60c14.667 -9.33301 36.667 -14 66 -14c52.667 0 94.667 34.667 126 104zM227 577l79 163h81l-99 -163h-61z" />
    <glyph glyph-name="thorn" unicode="&#xfe;" horiz-adv-x="656" 
d="M344 59c54.667 0 100.333 18.667 137 56s55 83.666 55 138.999c0 56 -18.333 102.667 -55 140s-82.334 56 -137 56c-55.333 0 -101.5 -18.667 -138.5 -56s-55.5 -84 -55.5 -140c0 -55.333 18.5 -101.666 55.5 -138.999s83.167 -56 138.5 -56zM79.999 -160
l-0.000976562 859.999h75v-292c21.333 34.667 49.833 61.834 85.5 81.501s74.834 29.5 117.501 29.5c70.667 0 130.5 -25.333 179.5 -76s73.5 -113 73.5 -187s-25 -136.833 -75 -188.5s-110.333 -77.5 -181 -77.5c-42.667 0 -81.334 9.33301 -116 28
c-34.667 18.667 -62.667 44.667 -84 78v-256h-75z" />
    <glyph glyph-name="ydieresis" unicode="&#xff;" horiz-adv-x="517" 
d="M221 2l-216 507h83l172 -424l172 424h80l-219 -514c-46.667 -110 -112 -165 -196 -165c-18.667 0 -35.667 1.83301 -51 5.5s-26 7.16699 -32 10.5l-9 6l24 60c14.667 -9.33301 36.667 -14 66 -14c52.667 0 94.667 34.667 126 104zM360 704
c13.333 0 24.833 -4.66699 34.5 -14s14.5 -21 14.5 -35c0 -13.333 -4.83301 -24.833 -14.5 -34.5s-21.167 -14.5 -34.5 -14.5c-14 0 -25.667 4.83301 -35 14.5s-14 21.167 -14 34.5s4.83301 24.833 14.5 34.5s21.167 14.5 34.5 14.5zM160 704
c13.333 0 24.833 -4.66699 34.5 -14s14.5 -21 14.5 -35c0 -13.333 -4.83301 -24.833 -14.5 -34.5s-21.167 -14.5 -34.5 -14.5c-14 0 -25.667 4.83301 -35 14.5s-14 21.167 -14 34.5s4.83301 24.833 14.5 34.5s21.167 14.5 34.5 14.5z" />
    <glyph glyph-name="Amacron" unicode="&#x100;" horiz-adv-x="700" 
d="M348 612l-148 -347h295zM389 700l301 -700h-85l-86 202h-342l-86 -202h-81l301 700h78zM170 797v50h360v-50h-360z" />
    <glyph glyph-name="amacron" unicode="&#x101;" horiz-adv-x="570" 
d="M273 48c48 0 85.333 9.5 112 28.5s40 43.167 40 72.5c0 28.667 -13.333 52.667 -40 72s-64 29 -112 29c-44 0 -78.833 -9.66699 -104.5 -29s-38.5 -43.333 -38.5 -72c0 -29.333 12.833 -53.5 38.5 -72.5s60.5 -28.5 104.5 -28.5zM257 306
c69.334 0 123.667 -19.0029 163 -57.0029v42c0 54.667 -13.833 95.834 -41.5 123.501s-64.834 41.5 -111.5 41.5c-28 0 -54.167 -4.33301 -78.5 -13s-41.833 -17 -52.5 -25l-15 -13l-36 48c2 2 4.66699 4.5 8 7.5s11 8.16699 23 15.5s24.833 14 38.5 20s31.5 11.333 53.5 16
s45 7 69 7c68.667 0 122.167 -19.667 160.5 -59s57.5 -95.666 57.5 -168.999v-291h-58l-8 55c-40 -43.333 -98 -65 -174 -65c-61.333 0 -110 14.833 -146 44.5s-54 66.834 -54 111.501c0 45.333 18.333 83.333 55 114s85.667 46 147 46zM110 605.997v50h360v-50h-360z" />
    <glyph glyph-name="Abreve" unicode="&#x102;" horiz-adv-x="700" 
d="M348 612l-148 -347h295zM389 700l301 -700h-85l-86 202h-342l-86 -202h-81l301 700h78zM189 920h58v-8c0 -30.667 9.66699 -55.5 29 -74.5s44.333 -28.5 75 -28.5s55.167 9.5 73.5 28.5s27.5 43.833 27.5 74.5v8h59v-5c0 -45.333 -15.167 -83 -45.5 -113
s-68.833 -45 -115.5 -45s-85.167 15 -115.5 45s-45.5 67.667 -45.5 113v5z" />
    <glyph glyph-name="abreve" unicode="&#x103;" horiz-adv-x="570" 
d="M273 48c48 0 85.333 9.5 112 28.5s40 43.167 40 72.5c0 28.667 -13.333 52.667 -40 72s-64 29 -112 29c-44 0 -78.833 -9.66699 -104.5 -29s-38.5 -43.333 -38.5 -72c0 -29.333 12.833 -53.5 38.5 -72.5s60.5 -28.5 104.5 -28.5zM257 306
c69.334 0 123.667 -19.0029 163 -57.0029v42c0 54.667 -13.833 95.834 -41.5 123.501s-64.834 41.5 -111.5 41.5c-28 0 -54.167 -4.33301 -78.5 -13s-41.833 -17 -52.5 -25l-15 -13l-36 48c2 2 4.66699 4.5 8 7.5s11 8.16699 23 15.5s24.833 14 38.5 20s31.5 11.333 53.5 16
s45 7 69 7c68.667 0 122.167 -19.667 160.5 -59s57.5 -95.666 57.5 -168.999v-291h-58l-8 55c-40 -43.333 -98 -65 -174 -65c-61.333 0 -110 14.833 -146 44.5s-54 66.834 -54 111.501c0 45.333 18.333 83.333 55 114s85.667 46 147 46zM129 739.997h58v-8
c0 -30.667 9.66699 -55.5 29 -74.5s44.333 -28.5 75 -28.5s55.167 9.5 73.5 28.5s27.5 43.833 27.5 74.5v8h59v-5c0 -45.333 -15.167 -83 -45.5 -113s-68.833 -45 -115.5 -45s-85.167 15 -115.5 45s-45.5 67.667 -45.5 113v5z" />
    <glyph glyph-name="Aogonek" unicode="&#x104;" horiz-adv-x="700" 
d="M389 700l300.999 -700.002h-28c-17.333 -10.667 -26 -30 -26 -58c0 -21.333 8 -38.666 24 -51.999s36 -20 60 -20c10.667 0 21.167 1.33301 31.5 4s17.833 5.33398 22.5 8.00098l7 3l19 -45c-19.333 -16.667 -47.666 -25 -84.999 -25c-39.335 0 -71.668 10.833 -97 32.5
c-25.333 21.667 -38 50.167 -38 85.5c0 26 8 49 24 69l-85 200h-342l-86 -202h-81l301 700h78zM347.999 611.998l-148 -347h295z" />
    <glyph glyph-name="aogonek" unicode="&#x105;" horiz-adv-x="570" 
d="M257 306c69.333 0 123.666 -19.0049 162.999 -57.0049v42c0 54.667 -13.833 95.834 -41.5 123.501s-64.834 41.5 -111.5 41.5c-28 0 -54.167 -4.33301 -78.5 -13s-41.833 -17 -52.5 -25l-15 -13l-36 48c2 2 4.66699 4.5 8 7.5s11 8.16699 23 15.5s24.833 14 38.5 20
s31.5 11.333 53.5 16s45 7 69 7c68.667 0 122.167 -19.667 160.5 -59s57.5 -95.666 57.5 -168.999v-291h-33c-17.333 -10.667 -26 -30 -26 -58c0 -21.333 8 -38.666 24 -51.999s36 -20 60 -20c10.667 0 21.167 1.33301 31.5 4s17.833 5.33398 22.5 8.00098l7 3l19 -45
c-19.3359 -16.667 -47.6689 -25 -85 -25c-39.333 0 -71.666 10.833 -96.999 32.5s-38 50.167 -38 85.5c0 41.333 17.667 73 53 95l-4 27c-40 -43.333 -98 -65 -174 -65c-61.333 0 -110 14.833 -146 44.5s-54 66.834 -54 111.501c0 45.333 18.333 83.333 55 114
s85.667 46 147 46zM273 47.9951c48 0 85.333 9.5 112 28.5s40 43.167 40 72.5c0 28.667 -13.333 52.667 -40 72s-64 29 -112 29c-44 0 -78.833 -9.66699 -104.5 -29s-38.5 -43.333 -38.5 -72c0 -29.333 12.833 -53.5 38.5 -72.5s60.5 -28.5 104.5 -28.5z" />
    <glyph glyph-name="Cacute" unicode="&#x106;" horiz-adv-x="718" 
d="M55 348c0 101.333 35.1699 186.997 105.503 256.997s156.5 105 258.5 105c31.334 0 61.667 -3.66699 91 -11c29.333 -7.33887 53.666 -16.1719 72.999 -26.5c19.333 -10.335 36.333 -20.668 51 -31c14.6719 -10.3379 25.3389 -19.1709 32.001 -26.499l11 -11l-55 -49
l-9 9c-4 4 -12.5 10.667 -25.5 20s-26.833 17.666 -41.5 24.999s-33.667 14 -57 20s-47 9 -71 9c-80.667 0 -148.334 -27.667 -203.001 -83s-82 -123.666 -82 -204.999c0 -82 27.333 -150.667 82 -206s122.334 -83 203.001 -83c40.667 0 78.667 7.83301 114 23.5
s60.666 31.167 75.999 46.5l23 23l52 -48c-2.66699 -3.33301 -6.33398 -7.5 -11.001 -12.5s-15.334 -14.167 -32.001 -27.5s-34.667 -25.166 -54 -35.499s-44.333 -19.666 -75 -27.999s-62.334 -12.5 -95 -12.5c-102 0 -187.667 34.333 -257 103s-104 153.667 -104 255z
M389.003 756.997l79 163h81l-99 -163h-61z" />
    <glyph glyph-name="cacute" unicode="&#x107;" horiz-adv-x="548" 
d="M462 128l50.999 -47.002c-2 -2.66699 -4.66699 -6 -8 -10s-11.333 -11.167 -24 -21.5s-26 -19.5 -40 -27.5s-32.667 -15.333 -56 -22s-47.666 -10 -72.999 -10c-76 0 -139.5 25.167 -190.5 75.5s-76.5 112.833 -76.5 187.5s26 137.667 78 189s116 77 192 77
c38 0 73 -6.83301 105 -20.5s54.667 -27.167 68 -40.5l20 -21l-50 -50c-4 4.66699 -9.5 10.5 -16.5 17.5s-23 16.333 -48 28s-51.833 17.5 -80.5 17.5c-54.667 0 -100.5 -18.667 -137.5 -56s-55.5 -83.666 -55.5 -138.999c0 -56 18.333 -102.667 55 -140s82.667 -56 138 -56
c19.333 0 37.5 2.33301 54.5 7s31 10.334 42 17.001s20.667 13.5 29 20.5c8.33691 7 14.1699 12.833 17.5 17.5zM273.999 576.998l79 163h81l-99 -163h-61z" />
    <glyph glyph-name="Ccircumflex" unicode="&#x108;" horiz-adv-x="718" 
d="M55 348c0 101.333 35.1699 186.997 105.503 256.997s156.5 105 258.5 105c31.334 0 61.667 -3.66699 91 -11c29.333 -7.33887 53.666 -16.1719 72.999 -26.5c19.333 -10.335 36.333 -20.668 51 -31c14.6719 -10.3379 25.3389 -19.1709 32.001 -26.499l11 -11l-55 -49
l-9 9c-4 4 -12.5 10.667 -25.5 20s-26.833 17.666 -41.5 24.999s-33.667 14 -57 20s-47 9 -71 9c-80.667 0 -148.334 -27.667 -203.001 -83s-82 -123.666 -82 -204.999c0 -82 27.333 -150.667 82 -206s122.334 -83 203.001 -83c40.667 0 78.667 7.83301 114 23.5
s60.666 31.167 75.999 46.5l23 23l52 -48c-2.66699 -3.33301 -6.33398 -7.5 -11.001 -12.5s-15.334 -14.167 -32.001 -27.5s-34.667 -25.166 -54 -35.499s-44.333 -19.666 -75 -27.999s-62.334 -12.5 -95 -12.5c-102 0 -187.667 34.333 -257 103s-104 153.667 -104 255z
M224.003 756.997l150 163h70l150 -163h-70l-117 112l-116 -112h-67z" />
    <glyph glyph-name="ccircumflex" unicode="&#x109;" horiz-adv-x="548" 
d="M462 128l50.999 -47.002c-2 -2.66699 -4.66699 -6 -8 -10s-11.333 -11.167 -24 -21.5s-26 -19.5 -40 -27.5s-32.667 -15.333 -56 -22s-47.666 -10 -72.999 -10c-76 0 -139.5 25.167 -190.5 75.5s-76.5 112.833 -76.5 187.5s26 137.667 78 189s116 77 192 77
c38 0 73 -6.83301 105 -20.5s54.667 -27.167 68 -40.5l20 -21l-50 -50c-4 4.66699 -9.5 10.5 -16.5 17.5s-23 16.333 -48 28s-51.833 17.5 -80.5 17.5c-54.667 0 -100.5 -18.667 -137.5 -56s-55.5 -83.666 -55.5 -138.999c0 -56 18.333 -102.667 55 -140s82.667 -56 138 -56
c19.333 0 37.5 2.33301 54.5 7s31 10.334 42 17.001s20.667 13.5 29 20.5c8.33691 7 14.1699 12.833 17.5 17.5zM118.999 576.998l150 163h70l150 -163h-70l-117 112l-116 -112h-67z" />
    <glyph glyph-name="Cdotaccent" unicode="&#x10a;" horiz-adv-x="718" 
d="M55 348c0 101.333 35.1699 186.997 105.503 256.997s156.5 105 258.5 105c31.334 0 61.667 -3.66699 91 -11c29.333 -7.33887 53.666 -16.1719 72.999 -26.5c19.333 -10.335 36.333 -20.668 51 -31c14.6719 -10.3379 25.3389 -19.1709 32.001 -26.499l11 -11l-55 -49
l-9 9c-4 4 -12.5 10.667 -25.5 20s-26.833 17.666 -41.5 24.999s-33.667 14 -57 20s-47 9 -71 9c-80.667 0 -148.334 -27.667 -203.001 -83s-82 -123.666 -82 -204.999c0 -82 27.333 -150.667 82 -206s122.334 -83 203.001 -83c40.667 0 78.667 7.83301 114 23.5
s60.666 31.167 75.999 46.5l23 23l52 -48c-2.66699 -3.33301 -6.33398 -7.5 -11.001 -12.5s-15.334 -14.167 -32.001 -27.5s-34.667 -25.166 -54 -35.499s-44.333 -19.666 -75 -27.999s-62.334 -12.5 -95 -12.5c-102 0 -187.667 34.333 -257 103s-104 153.667 -104 255z
M409.003 883.997c13.335 0 24.667 -4.66699 33.999 -14c9.33301 -9.33301 14 -21 14 -35c0 -13.333 -4.83301 -24.833 -14.5 -34.5s-21.167 -14.5 -34.5 -14.5s-24.666 4.83301 -33.999 14.5s-14 21.167 -14 34.5s4.66699 24.833 14 34.5s21 14.5 35 14.5z" />
    <glyph glyph-name="cdotaccent" unicode="&#x10b;" horiz-adv-x="548" 
d="M462 128l50.999 -47.002c-2 -2.66699 -4.66699 -6 -8 -10s-11.333 -11.167 -24 -21.5s-26 -19.5 -40 -27.5s-32.667 -15.333 -56 -22s-47.666 -10 -72.999 -10c-76 0 -139.5 25.167 -190.5 75.5s-76.5 112.833 -76.5 187.5s26 137.667 78 189s116 77 192 77
c38 0 73 -6.83301 105 -20.5s54.667 -27.167 68 -40.5l20 -21l-50 -50c-4 4.66699 -9.5 10.5 -16.5 17.5s-23 16.333 -48 28s-51.833 17.5 -80.5 17.5c-54.667 0 -100.5 -18.667 -137.5 -56s-55.5 -83.666 -55.5 -138.999c0 -56 18.333 -102.667 55 -140s82.667 -56 138 -56
c19.333 0 37.5 2.33301 54.5 7s31 10.334 42 17.001s20.667 13.5 29 20.5c8.33691 7 14.1699 12.833 17.5 17.5zM303.999 703.998c13.335 0 24.667 -4.66699 33.999 -14c9.33301 -9.33301 14 -21 14 -35c0 -13.333 -4.83301 -24.833 -14.5 -34.5s-21.167 -14.5 -34.5 -14.5
s-24.666 4.83301 -33.999 14.5s-14 21.167 -14 34.5s4.66699 24.833 14 34.5s21 14.5 35 14.5z" />
    <glyph glyph-name="Ccaron" unicode="&#x10c;" horiz-adv-x="718" 
d="M55 348c0 101.333 35.1699 186.997 105.503 256.997s156.5 105 258.5 105c31.334 0 61.667 -3.66699 91 -11c29.333 -7.33887 53.666 -16.1719 72.999 -26.5c19.333 -10.335 36.333 -20.668 51 -31c14.6719 -10.3379 25.3389 -19.1709 32.001 -26.499l11 -11l-55 -49
l-9 9c-4 4 -12.5 10.667 -25.5 20s-26.833 17.666 -41.5 24.999s-33.667 14 -57 20s-47 9 -71 9c-80.667 0 -148.334 -27.667 -203.001 -83s-82 -123.666 -82 -204.999c0 -82 27.333 -150.667 82 -206s122.334 -83 203.001 -83c40.667 0 78.667 7.83301 114 23.5
s60.666 31.167 75.999 46.5l23 23l52 -48c-2.66699 -3.33301 -6.33398 -7.5 -11.001 -12.5s-15.334 -14.167 -32.001 -27.5s-34.667 -25.166 -54 -35.499s-44.333 -19.666 -75 -27.999s-62.334 -12.5 -95 -12.5c-102 0 -187.667 34.333 -257 103s-104 153.667 -104 255z
M594.003 919.997l-150 -163h-70l-150 163h70l117 -112l116 112h67z" />
    <glyph glyph-name="ccaron" unicode="&#x10d;" horiz-adv-x="548" 
d="M462 128l50.999 -47.002c-2 -2.66699 -4.66699 -6 -8 -10s-11.333 -11.167 -24 -21.5s-26 -19.5 -40 -27.5s-32.667 -15.333 -56 -22s-47.666 -10 -72.999 -10c-76 0 -139.5 25.167 -190.5 75.5s-76.5 112.833 -76.5 187.5s26 137.667 78 189s116 77 192 77
c38 0 73 -6.83301 105 -20.5s54.667 -27.167 68 -40.5l20 -21l-50 -50c-4 4.66699 -9.5 10.5 -16.5 17.5s-23 16.333 -48 28s-51.833 17.5 -80.5 17.5c-54.667 0 -100.5 -18.667 -137.5 -56s-55.5 -83.666 -55.5 -138.999c0 -56 18.333 -102.667 55 -140s82.667 -56 138 -56
c19.333 0 37.5 2.33301 54.5 7s31 10.334 42 17.001s20.667 13.5 29 20.5c8.33691 7 14.1699 12.833 17.5 17.5zM488.999 739.998l-150 -163h-70l-150 163h70l117 -112l116 112h67z" />
    <glyph glyph-name="Dcaron" unicode="&#x10e;" horiz-adv-x="760" 
d="M178 632v-565.001h150c86.667 0 158.334 27 215.001 81s85 121.333 85 202s-28.333 147.834 -85 201.501s-128.334 80.5 -215.001 80.5h-150zM100 699.999l224 0.000976562c111.333 0 202.666 -33.167 273.999 -99.5c71.333 -66.334 107 -149.501 107 -249.501
s-36.167 -183.5 -108.5 -250.5s-164.166 -100.5 -275.499 -100.5h-221v700zM535 920l-150 -163h-70l-150 163h70l117 -112l116 112h67z" />
    <glyph glyph-name="dcaron" unicode="&#x10f;" horiz-adv-x="772" 
d="M711 467h-55l38 233h78zM312 450c-54.667 0 -100.334 -18.668 -137.001 -56.001s-55 -83.666 -55 -138.999c0 -56 18.333 -102.667 55 -140s82.334 -56 137.001 -56c55.333 0 101.5 18.667 138.5 56s55.5 84 55.5 140c0 55.334 -18.5 101.667 -55.5 139
s-83.167 56 -138.5 56zM576 699.999l-0.000976562 -700h-62l-9 105c-22 -36 -51 -64.167 -87 -84.5s-76 -30.5 -120 -30.5c-70.667 0 -130.5 25.333 -179.5 76s-73.5 113 -73.5 187s25 136.833 75 188.5s110.333 77.5 181 77.5c42.667 0 81.334 -9.5 116.001 -28.5
s62.667 -45.167 84 -78.5v288h75z" />
    <glyph glyph-name="Dcroat" unicode="&#x110;" horiz-adv-x="792" 
d="M440 336l-230 -0.000976562v-269h150c86.667 0 158.334 27 215.001 81s85 121.333 85 202s-28.333 147.834 -85 201.501s-128.334 80.5 -215.001 80.5h-150v-247h230v-49zM132 -0.000976562v336.001h-102v49h102v315h224c111.333 0 202.666 -33.167 273.999 -99.5
c71.333 -66.334 107 -149.501 107 -249.501s-36.167 -183.5 -108.5 -250.5s-164.166 -100.5 -275.499 -100.5h-221z" />
    <glyph glyph-name="dcroat" unicode="&#x111;" horiz-adv-x="674" 
d="M313 450c-54.667 0 -100.5 -18.668 -137.5 -56.001s-55.5 -83.666 -55.5 -138.999c0 -56 18.333 -102.667 55 -140s82.667 -56 138 -56c54.667 0 100.5 18.667 137.5 56s55.5 84 55.5 140c0 55.334 -18.5 101.667 -55.5 139s-82.833 56 -137.5 56zM576 699.999v-67h78
v-50h-78v-583h-62l-9 105c-22 -36 -51 -64.167 -87 -84.5s-75.667 -30.5 -119 -30.5c-70.667 0 -130.667 25.333 -180 76s-74 113 -74 187s25.167 136.833 75.5 188.5s110.833 77.5 181.5 77.5c42 0 80.5 -9.5 115.5 -28.5s62.833 -45.167 83.5 -78.5v171h-166v50h166v67h75
z" />
    <glyph glyph-name="Emacron" unicode="&#x112;" horiz-adv-x="650" 
d="M595 0h-495v700h485v-68h-407v-235h357v-64h-357v-266h417v-67zM165 797v50h360v-50h-360z" />
    <glyph glyph-name="emacron" unicode="&#x113;" horiz-adv-x="606" 
d="M559 250l-439.001 0.00195312c0.666992 -55.333 19.5 -101.5 56.5 -138.5s83.5 -55.5 139.5 -55.5c22.667 0 44.334 3.16699 65.001 9.5s37.5 14.166 50.5 23.499s24.333 18.666 34 27.999s16.5 17 20.5 23l6 10l48 -39c-2 -3.33301 -4.83301 -7.66602 -8.5 -12.999
s-12.167 -15 -25.5 -29s-28 -26.333 -44 -37s-37.5 -20.334 -64.5 -29.001s-55.5 -13 -85.5 -13c-76 0 -139.5 25.167 -190.5 75.5s-76.5 112.833 -76.5 187.5s26 137.667 78 189s115.667 77 191 77c68 0 126.167 -24.5 174.5 -73.5s72.5 -107.833 72.5 -176.5z
M312.999 460.002c-48 0 -89.5 -14.667 -124.5 -44s-56.5 -67 -64.5 -113h363c-6.66699 44.667 -26.667 82 -60 112s-71.333 45 -114 45zM132.999 606.002v50h360v-50h-360z" />
    <glyph glyph-name="Ebreve" unicode="&#x114;" horiz-adv-x="650" 
d="M595 0h-495v700h485v-68h-407v-235h357v-64h-357v-266h417v-67zM184 920h58v-8c0 -30.667 9.66699 -55.5 29 -74.5s44.333 -28.5 75 -28.5s55.167 9.5 73.5 28.5s27.5 43.833 27.5 74.5v8h59v-5c0 -45.333 -15.167 -83 -45.5 -113s-68.833 -45 -115.5 -45
s-85.167 15 -115.5 45s-45.5 67.667 -45.5 113v5z" />
    <glyph glyph-name="ebreve" unicode="&#x115;" horiz-adv-x="606" 
d="M559 250l-439.001 0.00195312c0.666992 -55.333 19.5 -101.5 56.5 -138.5s83.5 -55.5 139.5 -55.5c22.667 0 44.334 3.16699 65.001 9.5s37.5 14.166 50.5 23.499s24.333 18.666 34 27.999s16.5 17 20.5 23l6 10l48 -39c-2 -3.33301 -4.83301 -7.66602 -8.5 -12.999
s-12.167 -15 -25.5 -29s-28 -26.333 -44 -37s-37.5 -20.334 -64.5 -29.001s-55.5 -13 -85.5 -13c-76 0 -139.5 25.167 -190.5 75.5s-76.5 112.833 -76.5 187.5s26 137.667 78 189s115.667 77 191 77c68 0 126.167 -24.5 174.5 -73.5s72.5 -107.833 72.5 -176.5z
M312.999 460.002c-48 0 -89.5 -14.667 -124.5 -44s-56.5 -67 -64.5 -113h363c-6.66699 44.667 -26.667 82 -60 112s-71.333 45 -114 45zM151.999 740.002h58v-8c0 -30.667 9.66699 -55.5 29 -74.5s44.333 -28.5 75 -28.5s55.167 9.5 73.5 28.5s27.5 43.833 27.5 74.5v8h59
v-5c0 -45.333 -15.167 -83 -45.5 -113s-68.833 -45 -115.5 -45s-85.167 15 -115.5 45s-45.5 67.667 -45.5 113v5z" />
    <glyph glyph-name="Edotaccent" unicode="&#x116;" horiz-adv-x="650" 
d="M595 0h-495v700h485v-68h-407v-235h357v-64h-357v-266h417v-67zM345 884c13.335 0 24.667 -4.66699 33.999 -14c9.33301 -9.33301 14 -21 14 -35c0 -13.333 -4.83301 -24.833 -14.5 -34.5s-21.167 -14.5 -34.5 -14.5s-24.666 4.83301 -33.999 14.5s-14 21.167 -14 34.5
s4.66699 24.833 14 34.5s21 14.5 35 14.5z" />
    <glyph glyph-name="edotaccent" unicode="&#x117;" horiz-adv-x="606" 
d="M559 250l-439.001 0.00195312c0.666992 -55.333 19.5 -101.5 56.5 -138.5s83.5 -55.5 139.5 -55.5c22.667 0 44.334 3.16699 65.001 9.5s37.5 14.166 50.5 23.499s24.333 18.666 34 27.999s16.5 17 20.5 23l6 10l48 -39c-2 -3.33301 -4.83301 -7.66602 -8.5 -12.999
s-12.167 -15 -25.5 -29s-28 -26.333 -44 -37s-37.5 -20.334 -64.5 -29.001s-55.5 -13 -85.5 -13c-76 0 -139.5 25.167 -190.5 75.5s-76.5 112.833 -76.5 187.5s26 137.667 78 189s115.667 77 191 77c68 0 126.167 -24.5 174.5 -73.5s72.5 -107.833 72.5 -176.5z
M312.999 460.002c-48 0 -89.5 -14.667 -124.5 -44s-56.5 -67 -64.5 -113h363c-6.66699 44.667 -26.667 82 -60 112s-71.333 45 -114 45zM312.999 704.002c13.335 0 24.667 -4.66699 33.999 -14c9.33301 -9.33301 14 -21 14 -35c0 -13.333 -4.83301 -24.833 -14.5 -34.5
s-21.167 -14.5 -34.5 -14.5s-24.666 4.83301 -33.999 14.5s-14 21.167 -14 34.5s4.66699 24.833 14 34.5s21 14.5 35 14.5z" />
    <glyph glyph-name="Eogonek" unicode="&#x118;" horiz-adv-x="650" 
d="M595 0l-128.002 -0.000976562c-17.333 -10.667 -26 -30 -26 -58c0 -21.333 8 -38.666 24 -51.999s36 -20 60 -20c10.667 0 21.167 1.33301 31.5 4s17.833 5.33398 22.5 8.00098l7 3l19 -45c-19.334 -16.667 -47.667 -25 -84.999 -25
c-39.333 0 -71.666 10.833 -96.999 32.5s-38 50.167 -38 85.5c0 25.333 7.33301 47.666 22 66.999h-307v700h485v-68h-407v-235h357v-64h-357v-266h417v-67z" />
    <glyph glyph-name="eogonek" unicode="&#x119;" horiz-adv-x="606" 
d="M559 250h-439.003c0.666992 -55.333 19.5 -101.5 56.5 -138.5s83.5 -55.5 139.5 -55.5c22.667 0 44.334 3.16699 65.001 9.5s37.5 14.166 50.5 23.499s24.333 18.666 34 27.999s16.5 17 20.5 23l6 10l48 -39l-6 -9c-2.66699 -4 -8.5 -11.167 -17.5 -21.5
s-18.833 -20 -29.5 -29s-25 -18.5 -43 -28.5s-36.667 -17.667 -56 -23c-17.333 -10.667 -26 -30 -26 -58c0 -21.333 8 -38.666 24 -51.999s36 -20 60 -20c10.667 0 21.167 1.33301 31.5 4s17.833 5.33398 22.5 8.00098l7 3l19 -45c-19.333 -16.667 -47.666 -25 -84.999 -25
c-39.333 0 -71.666 10.833 -96.999 32.5s-38 50.167 -38 85.5c0 21.333 5.33301 40.333 16 57h-10c-76 0 -139.5 25.167 -190.5 75.5s-76.5 112.833 -76.5 187.5s26 137.667 78 189s115.667 77 191 77c68 0 126.167 -24.5 174.5 -73.5s72.5 -107.833 72.5 -176.5z
M312.997 460c-48 0 -89.5 -14.667 -124.5 -44s-56.5 -67 -64.5 -113h363c-6.66699 44.667 -26.667 82 -60 112s-71.333 45 -114 45z" />
    <glyph glyph-name="Ecaron" unicode="&#x11a;" horiz-adv-x="650" 
d="M595 0h-495v700h485v-68h-407v-235h357v-64h-357v-266h417v-67zM530 920l-150 -163h-70l-150 163h70l117 -112l116 112h67z" />
    <glyph glyph-name="ecaron" unicode="&#x11b;" horiz-adv-x="606" 
d="M559 250l-439.001 0.00195312c0.666992 -55.333 19.5 -101.5 56.5 -138.5s83.5 -55.5 139.5 -55.5c22.667 0 44.334 3.16699 65.001 9.5s37.5 14.166 50.5 23.499s24.333 18.666 34 27.999s16.5 17 20.5 23l6 10l48 -39c-2 -3.33301 -4.83301 -7.66602 -8.5 -12.999
s-12.167 -15 -25.5 -29s-28 -26.333 -44 -37s-37.5 -20.334 -64.5 -29.001s-55.5 -13 -85.5 -13c-76 0 -139.5 25.167 -190.5 75.5s-76.5 112.833 -76.5 187.5s26 137.667 78 189s115.667 77 191 77c68 0 126.167 -24.5 174.5 -73.5s72.5 -107.833 72.5 -176.5z
M312.999 460.002c-48 0 -89.5 -14.667 -124.5 -44s-56.5 -67 -64.5 -113h363c-6.66699 44.667 -26.667 82 -60 112s-71.333 45 -114 45zM497.999 740.002l-150 -163h-70l-150 163h70l117 -112l116 112h67z" />
    <glyph glyph-name="Gcircumflex" unicode="&#x11c;" horiz-adv-x="814" 
d="M758 350c0.666992 -2.66699 0.998047 -7 0.998047 -13c-0.666992 -98.667 -34.167 -181.167 -100.5 -247.5s-147.166 -99.5 -242.499 -99.5c-102 0 -187.667 34.5 -257 103.5s-104 154.167 -104 255.5c0 101.334 35.167 186.834 105.5 256.5
c70.333 69.667 156.5 104.5 258.5 104.5c31.334 0 61.667 -3.5 91 -10.5s53.5 -15.5 72.5 -25.5s35.833 -20 50.5 -30c14.6719 -10 25.3389 -18.667 32.001 -26l10 -10l-53 -54c-2 2 -4.83301 5 -8.5 9s-12 10.833 -25 20.5c-13 9.6709 -26.833 18.3379 -41.5 26
c-14.667 7.66699 -33.667 14.5 -57 20.5s-47.333 9 -72 9c-80.667 0 -148.334 -27.667 -203.001 -83s-82 -124 -82 -206s27.333 -150.667 82 -206s122.334 -83 203.001 -83c66.667 0 124.5 21.167 173.5 63.5s77.833 97.5 86.5 165.5h-262v60h342zM231.998 757l150 163h70
l150 -163h-70l-117 112l-116 -112h-67z" />
    <glyph glyph-name="gcircumflex" unicode="&#x11d;" horiz-adv-x="656" 
d="M312 454c-54.667 0 -100.334 -17 -137.001 -51s-55 -76.333 -55 -127s18.333 -93 55 -127s82.334 -51 137.001 -51c55.333 0 101.5 17 138.5 51s55.5 76.333 55.5 127s-18.5 93 -55.5 127s-83.167 51 -138.5 51zM56 -98l30.999 56c6 -4.66699 14.667 -10.5 26 -17.5
s34.833 -16.333 70.5 -28s71.5 -17.5 107.5 -17.5c67.333 0 119.166 18.5 155.499 55.5s54.5 88.833 54.5 155.5v29c-20.667 -31.333 -48.5 -55.833 -83.5 -73.5s-74.167 -26.5 -117.5 -26.5c-71.333 0 -131.666 23.333 -180.999 70s-74 103.667 -74 171
c0 68 24.833 125.5 74.5 172.5s110.834 70.5 183.501 70.5c42.667 0 81.667 -9 117 -27s64 -43 86 -75l8 92h62v-389c0 -88.667 -24.833 -159.167 -74.5 -211.5s-118.834 -78.5 -207.5 -78.5c-43.333 0 -84.833 6 -124.5 18s-68.5 24 -86.5 36zM142.999 577l150 163h70
l150 -163h-70l-117 112l-116 -112h-67z" />
    <glyph glyph-name="Gbreve" unicode="&#x11e;" horiz-adv-x="814" 
d="M758 350c0.666992 -2.66699 0.998047 -7 0.998047 -13c-0.666992 -98.667 -34.167 -181.167 -100.5 -247.5s-147.166 -99.5 -242.499 -99.5c-102 0 -187.667 34.5 -257 103.5s-104 154.167 -104 255.5c0 101.334 35.167 186.834 105.5 256.5
c70.333 69.667 156.5 104.5 258.5 104.5c31.334 0 61.667 -3.5 91 -10.5s53.5 -15.5 72.5 -25.5s35.833 -20 50.5 -30c14.6719 -10 25.3389 -18.667 32.001 -26l10 -10l-53 -54c-2 2 -4.83301 5 -8.5 9s-12 10.833 -25 20.5c-13 9.6709 -26.833 18.3379 -41.5 26
c-14.667 7.66699 -33.667 14.5 -57 20.5s-47.333 9 -72 9c-80.667 0 -148.334 -27.667 -203.001 -83s-82 -124 -82 -206s27.333 -150.667 82 -206s122.334 -83 203.001 -83c66.667 0 124.5 21.167 173.5 63.5s77.833 97.5 86.5 165.5h-262v60h342zM255.998 920h58v-8
c0 -30.667 9.66699 -55.5 29 -74.5s44.333 -28.5 75 -28.5s55.167 9.5 73.5 28.5s27.5 43.833 27.5 74.5v8h59v-5c0 -45.333 -15.167 -83 -45.5 -113s-68.833 -45 -115.5 -45s-85.167 15 -115.5 45s-45.5 67.667 -45.5 113v5z" />
    <glyph glyph-name="gbreve" unicode="&#x11f;" horiz-adv-x="656" 
d="M312 454c-54.667 0 -100.334 -17 -137.001 -51s-55 -76.333 -55 -127s18.333 -93 55 -127s82.334 -51 137.001 -51c55.333 0 101.5 17 138.5 51s55.5 76.333 55.5 127s-18.5 93 -55.5 127s-83.167 51 -138.5 51zM56 -98l30.999 56c6 -4.66699 14.667 -10.5 26 -17.5
s34.833 -16.333 70.5 -28s71.5 -17.5 107.5 -17.5c67.333 0 119.166 18.5 155.499 55.5s54.5 88.833 54.5 155.5v29c-20.667 -31.333 -48.5 -55.833 -83.5 -73.5s-74.167 -26.5 -117.5 -26.5c-71.333 0 -131.666 23.333 -180.999 70s-74 103.667 -74 171
c0 68 24.833 125.5 74.5 172.5s110.834 70.5 183.501 70.5c42.667 0 81.667 -9 117 -27s64 -43 86 -75l8 92h62v-389c0 -88.667 -24.833 -159.167 -74.5 -211.5s-118.834 -78.5 -207.5 -78.5c-43.333 0 -84.833 6 -124.5 18s-68.5 24 -86.5 36zM166.999 740h58v-8
c0 -30.667 9.66699 -55.5 29 -74.5s44.333 -28.5 75 -28.5s55.167 9.5 73.5 28.5s27.5 43.833 27.5 74.5v8h59v-5c0 -45.333 -15.167 -83 -45.5 -113s-68.833 -45 -115.5 -45s-85.167 15 -115.5 45s-45.5 67.667 -45.5 113v5z" />
    <glyph glyph-name="Gdotaccent" unicode="&#x120;" horiz-adv-x="814" 
d="M758 350c0.666992 -2.66699 0.998047 -7 0.998047 -13c-0.666992 -98.667 -34.167 -181.167 -100.5 -247.5s-147.166 -99.5 -242.499 -99.5c-102 0 -187.667 34.5 -257 103.5s-104 154.167 -104 255.5c0 101.334 35.167 186.834 105.5 256.5
c70.333 69.667 156.5 104.5 258.5 104.5c31.334 0 61.667 -3.5 91 -10.5s53.5 -15.5 72.5 -25.5s35.833 -20 50.5 -30c14.6719 -10 25.3389 -18.667 32.001 -26l10 -10l-53 -54c-2 2 -4.83301 5 -8.5 9s-12 10.833 -25 20.5c-13 9.6709 -26.833 18.3379 -41.5 26
c-14.667 7.66699 -33.667 14.5 -57 20.5s-47.333 9 -72 9c-80.667 0 -148.334 -27.667 -203.001 -83s-82 -124 -82 -206s27.333 -150.667 82 -206s122.334 -83 203.001 -83c66.667 0 124.5 21.167 173.5 63.5s77.833 97.5 86.5 165.5h-262v60h342zM416.998 884
c13.335 0 24.667 -4.66699 33.999 -14c9.33301 -9.33301 14 -21 14 -35c0 -13.333 -4.83301 -24.833 -14.5 -34.5s-21.167 -14.5 -34.5 -14.5s-24.666 4.83301 -33.999 14.5s-14 21.167 -14 34.5s4.66699 24.833 14 34.5s21 14.5 35 14.5z" />
    <glyph glyph-name="gdotaccent" unicode="&#x121;" horiz-adv-x="656" 
d="M312 454c-54.667 0 -100.334 -17 -137.001 -51s-55 -76.333 -55 -127s18.333 -93 55 -127s82.334 -51 137.001 -51c55.333 0 101.5 17 138.5 51s55.5 76.333 55.5 127s-18.5 93 -55.5 127s-83.167 51 -138.5 51zM56 -98l30.999 56c6 -4.66699 14.667 -10.5 26 -17.5
s34.833 -16.333 70.5 -28s71.5 -17.5 107.5 -17.5c67.333 0 119.166 18.5 155.499 55.5s54.5 88.833 54.5 155.5v29c-20.667 -31.333 -48.5 -55.833 -83.5 -73.5s-74.167 -26.5 -117.5 -26.5c-71.333 0 -131.666 23.333 -180.999 70s-74 103.667 -74 171
c0 68 24.833 125.5 74.5 172.5s110.834 70.5 183.501 70.5c42.667 0 81.667 -9 117 -27s64 -43 86 -75l8 92h62v-389c0 -88.667 -24.833 -159.167 -74.5 -211.5s-118.834 -78.5 -207.5 -78.5c-43.333 0 -84.833 6 -124.5 18s-68.5 24 -86.5 36zM327.999 704
c13.335 0 24.667 -4.66699 33.999 -14c9.33301 -9.33301 14 -21 14 -35c0 -13.333 -4.83301 -24.833 -14.5 -34.5s-21.167 -14.5 -34.5 -14.5s-24.666 4.83301 -33.999 14.5s-14 21.167 -14 34.5s4.66699 24.833 14 34.5s21 14.5 35 14.5z" />
    <glyph glyph-name="Gcommaaccent" unicode="&#x122;" horiz-adv-x="814" 
d="M758 350c0.666992 -2.66699 0.998047 -7 0.998047 -13c-0.666992 -98.667 -34.167 -181.167 -100.5 -247.5s-147.166 -99.5 -242.499 -99.5c-102 0 -187.667 34.5 -257 103.5s-104 154.167 -104 255.5c0 101.334 35.167 186.834 105.5 256.5
c70.333 69.667 156.5 104.5 258.5 104.5c31.334 0 61.667 -3.5 91 -10.5s53.5 -15.5 72.5 -25.5s35.833 -20 50.5 -30c14.6719 -10 25.3389 -18.667 32.001 -26l10 -10l-53 -54c-2 2 -4.83301 5 -8.5 9s-12 10.833 -25 20.5c-13 9.6709 -26.833 18.3379 -41.5 26
c-14.667 7.66699 -33.667 14.5 -57 20.5s-47.333 9 -72 9c-80.667 0 -148.334 -27.667 -203.001 -83s-82 -124 -82 -206s27.333 -150.667 82 -206s122.334 -83 203.001 -83c66.667 0 124.5 21.167 173.5 63.5s77.833 97.5 86.5 165.5h-262v60h342zM303.998 -212l79 163h81
l-99 -163h-61z" />
    <glyph glyph-name="gcommaaccent" unicode="&#x123;" horiz-adv-x="656" 
d="M312 454c-54.667 0 -100.334 -17 -137.001 -51s-55 -76.333 -55 -127s18.333 -93 55 -127s82.334 -51 137.001 -51c55.333 0 101.5 17 138.5 51s55.5 76.333 55.5 127s-18.5 93 -55.5 127s-83.167 51 -138.5 51zM56 -98l30.999 56c6 -4.66699 14.667 -10.5 26 -17.5
s34.833 -16.333 70.5 -28s71.5 -17.5 107.5 -17.5c67.333 0 119.166 18.5 155.499 55.5s54.5 88.833 54.5 155.5v29c-20.667 -31.333 -48.5 -55.833 -83.5 -73.5s-74.167 -26.5 -117.5 -26.5c-71.333 0 -131.666 23.333 -180.999 70s-74 103.667 -74 171
c0 68 24.833 125.5 74.5 172.5s110.834 70.5 183.501 70.5c42.667 0 81.667 -9 117 -27s64 -43 86 -75l8 92h62v-389c0 -88.667 -24.833 -159.167 -74.5 -211.5s-118.834 -78.5 -207.5 -78.5c-43.333 0 -84.833 6 -124.5 18s-68.5 24 -86.5 36zM429.999 740l-79 -163h-81
l99 163h61z" />
    <glyph glyph-name="Hcircumflex" unicode="&#x124;" horiz-adv-x="770" 
d="M593 0v335h-415v-335h-78v700h78v-296h415v296h77v-700h-77zM200 757l150 163h70l150 -163h-70l-117 112l-116 -112h-67z" />
    <glyph glyph-name="hcircumflex" unicode="&#x125;" horiz-adv-x="610" 
d="M80 0v700h75v-287c37.333 70.667 99 106 185 106c57.333 0 105 -20 143 -60s57 -97.333 57 -172v-287h-75v263c0 62.667 -13.833 109.5 -41.5 140.5s-62.5 46.5 -104.5 46.5c-47.333 0 -86.5 -15.667 -117.5 -47s-46.5 -79.333 -46.5 -144v-259h-75zM120 757l150 163h70
l150 -163h-70l-117 112l-116 -112h-67z" />
    <glyph glyph-name="Hbar" unicode="&#x126;" horiz-adv-x="834" 
d="M210 524v-120h415v120h-415zM132 0v524h-102v50h102v126h78v-126h415v126h77v-126h102v-50h-102v-524h-77v335h-415v-335h-78z" />
    <glyph glyph-name="hbar" unicode="&#x127;" horiz-adv-x="627" 
d="M97 0v583h-77v50h77v67h75v-67h166v-50h-166v-170c37.333 70.667 99.333 106 186 106c56.667 0 104 -20 142 -60s57 -97.333 57 -172v-287h-75v263c0 62.667 -13.667 109.5 -41 140.5s-62 46.5 -104 46.5c-48 0 -87.5 -15.667 -118.5 -47s-46.5 -79.333 -46.5 -144v-259
h-75z" />
    <glyph glyph-name="Itilde" unicode="&#x128;" horiz-adv-x="290" 
d="M105 0v700h80v-700h-80zM21 782l-48.001 6.00391c0 3.33301 0.333008 7.66602 1 12.999s2.83398 14.666 6.50098 27.999s8.5 25.166 14.5 35.499s15.5 19.666 28.5 27.999s27.833 12.5 44.5 12.5c18.667 0 35.667 -4.66699 51 -14s27.333 -19.5 36 -30.5
s18.834 -21.167 30.501 -30.5s23.834 -14 36.5 -14c12.667 0 22.834 6 30.501 18s12.167 24 13.5 36l2 18l49 -5c0 -3.34668 -0.333008 -7.67969 -1 -13c-0.671875 -5.33984 -2.83887 -14.6729 -6.50098 -28c-3.66699 -13.3369 -8.66699 -25.1699 -15 -35.5
c-6.33301 -10.333 -16 -19.833 -29 -28.5s-28.167 -13 -45.5 -13c-18 0 -34.667 4.66699 -50 14c-15.334 9.33301 -27.167 19.5 -35.5 30.5s-18.5 21.167 -30.5 30.5s-24.333 14 -37 14s-22.834 -6 -30.501 -18s-12.167 -24 -13.5 -36z" />
    <glyph glyph-name="itilde" unicode="&#x129;" horiz-adv-x="247" 
d="M85 0v509h77v-509h-77zM0 602l-48.002 6.00195c0 3.33301 0.333008 7.66602 1 12.999s2.83398 14.666 6.50098 27.999s8.5 25.166 14.5 35.499s15.5 19.666 28.5 27.999s27.833 12.5 44.5 12.5c18.667 0 35.834 -4.66699 51.501 -14s27.667 -19.5 36 -30.5
s18.333 -21.167 30 -30.5s23.834 -14 36.5 -14c12.667 0 22.834 6 30.5 18c7.66699 12 12.167 24 13.5 36l2 18l49 -5c0 -3.34375 -0.333008 -7.67676 -1 -12.999c-0.670898 -5.33594 -2.83789 -14.6689 -6.5 -28c-3.66699 -13.3379 -8.66699 -25.1709 -15 -35.499
c-6.33301 -10.333 -16 -19.833 -29 -28.5s-28.167 -13 -45.5 -13c-18 0 -34.667 4.66699 -50 14s-27.166 19.5 -35.499 30.5s-18.5 21.167 -30.5 30.5s-24.333 14 -37 14s-22.834 -6 -30.501 -18s-12.167 -24 -13.5 -36z" />
    <glyph glyph-name="Imacron" unicode="&#x12a;" horiz-adv-x="290" 
d="M105 0v700h80v-700h-80zM-35 797v50h360v-50h-360z" />
    <glyph glyph-name="imacron" unicode="&#x12b;" horiz-adv-x="247" 
d="M85 0v509h77v-509h-77zM-56 606v50h360v-50h-360z" />
    <glyph glyph-name="Ibreve" unicode="&#x12c;" horiz-adv-x="290" 
d="M105 0v700h80v-700h-80zM-16 920h58v-8c0 -30.667 9.66699 -55.5 29 -74.5s44.333 -28.5 75 -28.5s55.167 9.5 73.5 28.5s27.5 43.833 27.5 74.5v8h59v-5c0 -45.333 -15.167 -83 -45.5 -113s-68.833 -45 -115.5 -45s-85.167 15 -115.5 45s-45.5 67.667 -45.5 113v5z" />
    <glyph glyph-name="ibreve" unicode="&#x12d;" horiz-adv-x="247" 
d="M85 0v509h77v-509h-77zM-37 740h58v-8c0 -30.667 9.66699 -55.5 29 -74.5s44.333 -28.5 75 -28.5s55.167 9.5 73.5 28.5s27.5 43.833 27.5 74.5v8h59v-5c0 -45.333 -15.167 -83 -45.5 -113s-68.833 -45 -115.5 -45s-85.167 15 -115.5 45s-45.5 67.667 -45.5 113v5z" />
    <glyph glyph-name="Iogonek" unicode="&#x12e;" horiz-adv-x="290" 
d="M185 0l-33.002 -0.00195312c-17.333 -10.667 -26 -30 -26 -58c0 -21.333 8 -38.666 24 -51.999s36 -20 60 -20c10.667 0 21.167 1.33301 31.5 4s17.833 5.33398 22.5 8.00098l7 3l19 -45c-19.333 -16.667 -47.666 -25 -84.999 -25c-39.333 0 -71.666 10.833 -96.999 32.5
s-38 50.167 -38 85.5c0 33.333 11.667 60.333 35 81v686h80v-700z" />
    <glyph glyph-name="iogonek" unicode="&#x12f;" horiz-adv-x="247" 
d="M162 0l-38.002 -0.00195312c-17.333 -10.667 -26 -30 -26 -58c0 -21.333 8 -38.666 24 -51.999s36 -20 60 -20c10.667 0 21.167 1.33301 31.5 4s17.833 5.33398 22.5 8.00098l7 3l19 -45c-19.333 -16.667 -47.666 -25 -84.999 -25c-39.333 0 -71.666 10.833 -96.999 32.5
s-38 50.167 -38 85.5c0 36.667 14.333 66 43 88v488h77v-509zM122.998 708.998c15.333 0 28.166 -4.99902 38.499 -14.999s15.5 -22.667 15.5 -38c0 -15.3359 -5.16699 -28.1689 -15.5 -38.5c-10.333 -10.333 -23.166 -15.5 -38.499 -15.5s-28 5.16699 -38 15.5
s-15 23.166 -15 38.499s5 28 15 38s22.667 15 38 15z" />
    <glyph glyph-name="Idotaccent" unicode="&#x130;" horiz-adv-x="290" 
d="M105 0v700h80v-700h-80zM145 884c13.333 0 24.666 -4.66699 33.999 -14s14 -21 14 -35c0 -13.333 -4.83301 -24.833 -14.5 -34.5s-21.167 -14.5 -34.5 -14.5s-24.666 4.83301 -33.999 14.5s-14 21.167 -14 34.5s4.66699 24.833 14 34.5s21 14.5 35 14.5z" />
    <glyph glyph-name="dotlessi" unicode="&#x131;" horiz-adv-x="247" 
d="M85 0v509h77v-509h-77z" />
    <glyph glyph-name="IJ" unicode="&#x132;" horiz-adv-x="754" 
d="M105 0v700h80v-700h-80zM584 240l-0.000976562 460h80v-462c0 -76 -22.333 -136.333 -67 -181s-100.667 -67 -168 -67c-24.667 0 -46.834 2.16699 -66.5 6.5c-19.667 4.33301 -33.167 8.83301 -40.5 13.5l-12 6l24 67c20 -13.333 50.333 -20 91 -20
c46.667 0 84.834 15.5 114.501 46.5s44.5 74.5 44.5 130.5z" />
    <glyph glyph-name="ij" unicode="&#x133;" horiz-adv-x="494" 
d="M85 0v509h77v-509h-77zM123 709c15.333 0 28.166 -4.99902 38.499 -14.999s15.5 -22.667 15.5 -38c0 -15.3359 -5.16699 -28.1689 -15.5 -38.5c-10.333 -10.333 -23.166 -15.5 -38.499 -15.5s-28 5.16699 -38 15.5s-15 23.166 -15 38.499s5 28 15 38s22.667 15 38 15z
M332 509.001l77.001 -0.000976562v-508c0 -55.333 -14 -97.666 -42 -126.999s-66 -44 -114 -44c-11.333 0 -22.833 1.16699 -34.5 3.5s-20.5 4.5 -26.5 6.5l-8 4l14 61c15.333 -6 31.666 -9 48.999 -9c56.667 0 85 32.333 85 97v516zM370.001 709
c15.334 0 28.166 -4.99902 38.499 -14.999s15.5 -22.667 15.5 -38c0 -15.3359 -5.16699 -28.1689 -15.5 -38.5c-10.333 -10.333 -23.166 -15.5 -38.499 -15.5s-28 5.16699 -38 15.5s-15 23.166 -15 38.499s5 28 15 38s22.667 15 38 15z" />
    <glyph glyph-name="Jcircumflex" unicode="&#x134;" horiz-adv-x="464" 
d="M294 240v460h80v-462c0 -76 -22.333 -136.333 -67 -181s-100.667 -67 -168 -67c-24.667 0 -46.834 2.16699 -66.501 6.5s-33.167 8.83301 -40.5 13.5l-12 6l24 67c20 -13.333 50.333 -20 91 -20c46.667 0 84.834 15.5 114.501 46.5s44.5 74.5 44.5 130.5zM148 757
l150 163h70l150 -163h-70l-117 112l-116 -112h-67z" />
    <glyph glyph-name="jcircumflex" unicode="&#x135;" horiz-adv-x="247" 
d="M85 509l77.001 -0.000976562v-508c0 -55.333 -14 -97.666 -42 -126.999s-66 -44 -114 -44c-11.333 0 -22.833 1.16699 -34.5 3.5s-20.167 4.5 -25.5 6.5l-9 4l14 61c15.333 -6 31.666 -9 48.999 -9c56.667 0 85 32.333 85 97v516zM-60.999 576.999l150 163h70l150 -163
h-70l-117 112l-116 -112h-67z" />
    <glyph glyph-name="Kcommaaccent" unicode="&#x136;" horiz-adv-x="668" 
d="M563 0l-385 350v-350h-78v700h78v-330l365 330h105l-384 -337l404 -363h-105zM244 -212l79 163h81l-99 -163h-61z" />
    <glyph glyph-name="kcommaaccent" unicode="&#x137;" horiz-adv-x="552" 
d="M80 0v700h75v-419l274 228h103l-293 -233l313 -276h-103l-294 265v-265h-75zM184 -212l79 163h81l-99 -163h-61z" />
    <glyph glyph-name="Lacute" unicode="&#x139;" horiz-adv-x="590" 
d="M565 0h-465v700h78v-631h387v-69zM115 757l79 163h81l-99 -163h-61z" />
    <glyph glyph-name="lacute" unicode="&#x13a;" horiz-adv-x="247" 
d="M85 0v700h77v-700h-77zM97 757l79 163h81l-99 -163h-61z" />
    <glyph glyph-name="Lcommaaccent" unicode="&#x13b;" horiz-adv-x="590" 
d="M565 0h-465v700h78v-631h387v-69zM234 -212l79 163h81l-99 -163h-61z" />
    <glyph glyph-name="lcommaaccent" unicode="&#x13c;" horiz-adv-x="247" 
d="M85 0v700h77v-700h-77zM304 -212l79 163h81l-99 -163h-61z" />
    <glyph glyph-name="Lcaron" unicode="&#x13d;" horiz-adv-x="590" 
d="M440 467h-55l38 233h78zM565 0h-465v700h78v-631h387v-69z" />
    <glyph glyph-name="lcaron" unicode="&#x13e;" horiz-adv-x="358" 
d="M297 467h-55l37 233h79zM85 0v700h77v-700h-77z" />
    <glyph glyph-name="Ldot" unicode="&#x13f;" horiz-adv-x="590" 
d="M565 0h-465v700h78v-631h387v-69zM378 408c14.667 0 27.333 -5.33496 38 -16.002s16 -23.334 16 -38c0 -14.668 -5.33301 -27.335 -16 -38c-10.667 -10.667 -23.334 -16 -38 -16c-14.667 0 -27.167 5.33301 -37.5 16s-15.5 23.334 -15.5 38.001
s5.16699 27.334 15.5 38.001s22.833 16 37.5 16z" />
    <glyph glyph-name="ldot" unicode="&#x140;" horiz-adv-x="387" 
d="M85 0v700h77v-700h-77zM303 404c14.667 0 27.332 -5.33496 37.999 -16.002c10.667 -10.668 16 -23.335 16 -38c0 -14.667 -5.16699 -27.334 -15.5 -38c-10.333 -10.667 -23.166 -16 -38.499 -16c-14.667 0 -27.167 5.33301 -37.5 16s-15.5 23.334 -15.5 38.001
s5.16699 27.334 15.5 38.001s22.833 16 37.5 16z" />
    <glyph glyph-name="Lslash" unicode="&#x141;" horiz-adv-x="622" 
d="M597 0h-465v327l-102 -18v51l102 18v322h78v-309l272 50v-51l-272 -50v-271h387v-69z" />
    <glyph glyph-name="lslash" unicode="&#x142;" horiz-adv-x="324" 
d="M118 0v336l-88 -20v51l88 20v313h77v-296l99 22v-51l-99 -22v-353h-77z" />
    <glyph glyph-name="Nacute" unicode="&#x143;" horiz-adv-x="790" 
d="M614 0l-438 587v-587h-76v700h83l431 -579v579h76v-700h-76zM355 757l79 163h81l-99 -163h-61z" />
    <glyph glyph-name="nacute" unicode="&#x144;" horiz-adv-x="610" 
d="M155 248v-248h-75v509h66l6 -98c37.333 72 100 108 188 108c57.333 0 105 -20 143 -60s57 -97.333 57 -172v-287h-75v263c0 62.667 -13.833 109.5 -41.5 140.5s-62.5 46.5 -104.5 46.5c-48 0 -87.333 -16.333 -118 -49s-46 -83.667 -46 -153zM265 577l79 163h81l-99 -163
h-61z" />
    <glyph glyph-name="Ncommaaccent" unicode="&#x145;" horiz-adv-x="790" 
d="M614 0l-438 587v-587h-76v700h83l431 -579v579h76v-700h-76zM284 -212l79 163h81l-99 -163h-61z" />
    <glyph glyph-name="ncommaaccent" unicode="&#x146;" horiz-adv-x="610" 
d="M155 248v-248h-75v509h66l6 -98c37.333 72 100 108 188 108c57.333 0 105 -20 143 -60s57 -97.333 57 -172v-287h-75v263c0 62.667 -13.833 109.5 -41.5 140.5s-62.5 46.5 -104.5 46.5c-48 0 -87.333 -16.333 -118 -49s-46 -83.667 -46 -153zM204 -212l79 163h81
l-99 -163h-61z" />
    <glyph glyph-name="Ncaron" unicode="&#x147;" horiz-adv-x="790" 
d="M614 0l-438 587v-587h-76v700h83l431 -579v579h76v-700h-76zM580 920l-150 -163h-70l-150 163h70l117 -112l116 112h67z" />
    <glyph glyph-name="ncaron" unicode="&#x148;" horiz-adv-x="610" 
d="M155 248v-248h-75v509h66l6 -98c37.333 72 100 108 188 108c57.333 0 105 -20 143 -60s57 -97.333 57 -172v-287h-75v263c0 62.667 -13.833 109.5 -41.5 140.5s-62.5 46.5 -104.5 46.5c-48 0 -87.333 -16.333 -118 -49s-46 -83.667 -46 -153zM495 740l-150 -163h-70
l-150 163h70l117 -112l116 112h67z" />
    <glyph glyph-name="Eng" unicode="&#x14a;" horiz-adv-x="790" 
d="M183 700l431.001 -578.999v579h76v-675c0 -62.667 -16.667 -110.834 -50 -144.501s-77 -50.5 -131 -50.5c-18.667 0 -35.667 1.66699 -51 5s-26 6.66602 -32 9.99902l-8 5l20 59c16 -9.33301 38 -14 66 -14c29.333 0 54.166 8.83301 74.499 26.5
s31.833 43.834 34.5 78.501l-437 586v-586h-76v700h83z" />
    <glyph glyph-name="eng" unicode="&#x14b;" horiz-adv-x="610" 
d="M80 0l-0.000976562 509h66l6 -97c36.667 71.333 99.667 107 189 107c58.667 0 106.5 -19.833 143.5 -59.5s55.5 -97.167 55.5 -172.5v-285c0 -56 -14.167 -98.667 -42.5 -128s-66.5 -44 -114.5 -44c-9.33301 0 -18.5 0.833008 -27.5 2.5s-15.5 3.5 -19.5 5.5l-6 2l10 63
c10.667 -4 23.667 -6 39 -6c57.333 0 86 32 86 96v269c0 63.333 -13.333 110.5 -40 141.5s-61.667 46.5 -105 46.5c-49.333 0 -89.166 -15.667 -119.499 -47s-45.5 -80 -45.5 -146v-257h-75z" />
    <glyph glyph-name="Omacron" unicode="&#x14c;" horiz-adv-x="835" 
d="M418 61c80.667 0 148.334 27.666 203.001 82.999s82 124 82 206c0 81.334 -27.333 149.667 -82 205s-122.334 83 -203.001 83s-148.334 -27.667 -203.001 -83s-82 -123.666 -82 -204.999c0 -82 27.333 -150.667 82 -206s122.334 -83 203.001 -83zM419 709.999
c102 0 187.667 -34.5 257 -103.5s104 -154.167 104 -255.5s-35.167 -186.833 -105.5 -256.5s-156.5 -104.5 -258.5 -104.5s-187.667 34.333 -257 103s-104 153.667 -104 255s35.167 187 105.5 257s156.5 105 258.5 105zM237 796.999v50h360v-50h-360z" />
    <glyph glyph-name="omacron" unicode="&#x14d;" horiz-adv-x="627" 
d="M313 59c55.333 0 101.5 18.666 138.5 55.999s55.5 84 55.5 140c0 55.334 -18.5 101.667 -55.5 139s-83.167 56 -138.5 56c-54.667 0 -100.5 -18.667 -137.5 -56s-55.5 -83.666 -55.5 -138.999c0 -56 18.333 -102.667 55 -140s82.667 -56 138 -56zM315 518.999
c76 0 139.5 -25.167 190.5 -75.5s76.5 -112.833 76.5 -187.5s-26 -137.667 -78 -189s-116 -77 -192 -77s-139.5 25.167 -190.5 75.5s-76.5 112.833 -76.5 187.5s26 137.667 78 189s116 77 192 77zM133 605.999v50h360v-50h-360z" />
    <glyph glyph-name="Obreve" unicode="&#x14e;" horiz-adv-x="835" 
d="M418 61c80.667 0 148.334 27.666 203.001 82.999s82 124 82 206c0 81.334 -27.333 149.667 -82 205s-122.334 83 -203.001 83s-148.334 -27.667 -203.001 -83s-82 -123.666 -82 -204.999c0 -82 27.333 -150.667 82 -206s122.334 -83 203.001 -83zM419 709.999
c102 0 187.667 -34.5 257 -103.5s104 -154.167 104 -255.5s-35.167 -186.833 -105.5 -256.5s-156.5 -104.5 -258.5 -104.5s-187.667 34.333 -257 103s-104 153.667 -104 255s35.167 187 105.5 257s156.5 105 258.5 105zM256 919.999h58v-8c0 -30.667 9.66699 -55.5 29 -74.5
s44.333 -28.5 75 -28.5s55.167 9.5 73.5 28.5s27.5 43.833 27.5 74.5v8h59v-5c0 -45.333 -15.167 -83 -45.5 -113s-68.833 -45 -115.5 -45s-85.167 15 -115.5 45s-45.5 67.667 -45.5 113v5z" />
    <glyph glyph-name="obreve" unicode="&#x14f;" horiz-adv-x="627" 
d="M313 59c55.333 0 101.5 18.666 138.5 55.999s55.5 84 55.5 140c0 55.334 -18.5 101.667 -55.5 139s-83.167 56 -138.5 56c-54.667 0 -100.5 -18.667 -137.5 -56s-55.5 -83.666 -55.5 -138.999c0 -56 18.333 -102.667 55 -140s82.667 -56 138 -56zM315 518.999
c76 0 139.5 -25.167 190.5 -75.5s76.5 -112.833 76.5 -187.5s-26 -137.667 -78 -189s-116 -77 -192 -77s-139.5 25.167 -190.5 75.5s-76.5 112.833 -76.5 187.5s26 137.667 78 189s116 77 192 77zM152 739.999h58v-8c0 -30.667 9.66699 -55.5 29 -74.5
s44.333 -28.5 75 -28.5s55.167 9.5 73.5 28.5s27.5 43.833 27.5 74.5v8h59v-5c0 -45.333 -15.167 -83 -45.5 -113s-68.833 -45 -115.5 -45s-85.167 15 -115.5 45s-45.5 67.667 -45.5 113v5z" />
    <glyph glyph-name="Ohungarumlaut" unicode="&#x150;" horiz-adv-x="835" 
d="M418 61c80.667 0 148.334 27.666 203.001 82.999s82 124 82 206c0 81.334 -27.333 149.667 -82 205s-122.334 83 -203.001 83s-148.334 -27.667 -203.001 -83s-82 -123.666 -82 -204.999c0 -82 27.333 -150.667 82 -206s122.334 -83 203.001 -83zM419 709.999
c102 0 187.667 -34.5 257 -103.5s104 -154.167 104 -255.5s-35.167 -186.833 -105.5 -256.5s-156.5 -104.5 -258.5 -104.5s-187.667 34.333 -257 103s-104 153.667 -104 255s35.167 187 105.5 257s156.5 105 258.5 105zM478 756.999l61 163h80l-81 -163h-60zM295 756.999
l62 163h80l-82 -163h-60z" />
    <glyph glyph-name="ohungarumlaut" unicode="&#x151;" horiz-adv-x="627" 
d="M313 59c55.333 0 101.5 18.666 138.5 55.999s55.5 84 55.5 140c0 55.334 -18.5 101.667 -55.5 139s-83.167 56 -138.5 56c-54.667 0 -100.5 -18.667 -137.5 -56s-55.5 -83.666 -55.5 -138.999c0 -56 18.333 -102.667 55 -140s82.667 -56 138 -56zM315 518.999
c76 0 139.5 -25.167 190.5 -75.5s76.5 -112.833 76.5 -187.5s-26 -137.667 -78 -189s-116 -77 -192 -77s-139.5 25.167 -190.5 75.5s-76.5 112.833 -76.5 187.5s26 137.667 78 189s116 77 192 77zM374 576.999l61 163h80l-81 -163h-60zM191 576.999l62 163h80l-82 -163h-60z
" />
    <glyph glyph-name="OE" unicode="&#x152;" horiz-adv-x="1112" 
d="M562 67v565h-130c-86.667 0 -158.334 -26.833 -215.001 -80.5s-85 -120.834 -85 -201.5c0 -80.667 28.333 -148 85 -202s128.334 -81 215.001 -81h130zM1047 632h-407v-235h357v-64h-357v-266h417v-67h-621c-111.333 0 -202.666 33 -273.999 99s-107 149 -107 249
s36.167 183.667 108.5 251s164.166 101 275.499 101h608v-68z" />
    <glyph glyph-name="oe" unicode="&#x153;" horiz-adv-x="1068" 
d="M1021 250l-438.999 0.00195312c0.666992 -55.333 19.5 -101.5 56.5 -138.5s83.5 -55.5 139.5 -55.5c22.6699 0 44.3369 3.16699 65.001 9.5c20.667 6.33301 37.5 14.166 50.5 23.499s24.333 18.666 34 27.999s16.5 17 20.5 23l6 10l48 -39
c-2 -3.33301 -4.83301 -7.66602 -8.5 -12.999s-12.167 -15 -25.5 -29s-28 -26.333 -44 -37s-37.5 -20.334 -64.5 -29.001s-55.5 -13 -85.5 -13c-51.334 0 -97.167 12 -137.5 36s-71.5 56.667 -93.5 98c-22.667 -41.333 -54.334 -74 -95.001 -98s-86 -36 -136 -36
c-76 0 -139.5 25.167 -190.5 75.5s-76.5 112.833 -76.5 187.5s26 137.667 78 189s116 77 192 77c50.667 0 96.167 -12 136.5 -36s71.5 -56.667 93.5 -98c23.333 40.667 55.166 73.167 95.499 97.5s85.5 36.5 135.5 36.5c68 0 126.167 -24.5 174.5 -73.5
s72.5 -107.833 72.5 -176.5zM313.001 59.002c55.333 0 101.5 18.666 138.5 55.999s55.5 84 55.5 140c0 55.334 -18.5 101.667 -55.5 139s-83.167 56 -138.5 56c-54.667 0 -100.5 -18.667 -137.5 -56s-55.5 -83.666 -55.5 -138.999c0 -56 18.333 -102.667 55 -140
s82.667 -56 138 -56zM775.001 460.001c-48 0 -89.5 -14.667 -124.5 -44s-56.5 -67 -64.5 -113h363c-6.66699 44.667 -26.667 82 -60 112s-71.333 45 -114 45z" />
    <glyph glyph-name="Racute" unicode="&#x154;" horiz-adv-x="695" 
d="M381 634h-203v-298h203c50 0 90.333 14 121 42s46 63.667 46 107s-15.333 79 -46 107s-71 42 -121 42zM100 0l0.000976562 699.998h292c68.667 0 124.667 -20 168 -60s65 -90.667 65 -152c0 -51.333 -15.833 -95.666 -47.5 -132.999s-73.834 -61.666 -126.501 -72.999
l204 -282h-92l-197 274h-188v-274h-78zM297.001 756.998l79 163h81l-99 -163h-61z" />
    <glyph glyph-name="racute" unicode="&#x155;" horiz-adv-x="386" 
d="M80 0l0.000976562 508.999h66l6 -114c38 82.667 107.667 124 209 124l-1 -75h-13c-60.667 0 -107.834 -18.167 -141.501 -54.5s-50.5 -91.166 -50.5 -164.499v-225h-75zM183.001 576.999l79 163h81l-99 -163h-61z" />
    <glyph glyph-name="Rcommaaccent" unicode="&#x156;" horiz-adv-x="695" 
d="M381 634h-203v-298h203c50 0 90.333 14 121 42s46 63.667 46 107s-15.333 79 -46 107s-71 42 -121 42zM100 0l0.000976562 699.998h292c68.667 0 124.667 -20 168 -60s65 -90.667 65 -152c0 -51.333 -15.833 -95.666 -47.5 -132.999s-73.834 -61.666 -126.501 -72.999
l204 -282h-92l-197 274h-188v-274h-78zM244.001 -212.002l79 163h81l-99 -163h-61z" />
    <glyph glyph-name="rcommaaccent" unicode="&#x157;" horiz-adv-x="386" 
d="M80 0l0.000976562 508.999h66l6 -114c38 82.667 107.667 124 209 124l-1 -75h-13c-60.667 0 -107.834 -18.167 -141.501 -54.5s-50.5 -91.166 -50.5 -164.499v-225h-75zM-4.99902 -212.001l79 163h81l-99 -163h-61z" />
    <glyph glyph-name="Rcaron" unicode="&#x158;" horiz-adv-x="695" 
d="M381 634h-203v-298h203c50 0 90.333 14 121 42s46 63.667 46 107s-15.333 79 -46 107s-71 42 -121 42zM100 0l0.000976562 699.998h292c68.667 0 124.667 -20 168 -60s65 -90.667 65 -152c0 -51.333 -15.833 -95.666 -47.5 -132.999s-73.834 -61.666 -126.501 -72.999
l204 -282h-92l-197 274h-188v-274h-78zM522.001 919.998l-150 -163h-70l-150 163h70l117 -112l116 112h67z" />
    <glyph glyph-name="rcaron" unicode="&#x159;" horiz-adv-x="386" 
d="M80 0l0.000976562 508.999h66l6 -114c38 82.667 107.667 124 209 124l-1 -75h-13c-60.667 0 -107.834 -18.167 -141.501 -54.5s-50.5 -91.166 -50.5 -164.499v-225h-75zM388.001 739.999l-150 -163h-70l-150 163h70l117 -112l116 112h67z" />
    <glyph glyph-name="Sacute" unicode="&#x15a;" horiz-adv-x="570" 
d="M302 398c142 -45.333 212.999 -116.332 212.999 -212.999c0 -56 -21 -102.5 -63 -139.5s-98.667 -55.5 -170 -55.5c-30.667 0 -60.167 3.33301 -88.5 10s-51.666 14.5 -69.999 23.5s-34.5 18.167 -48.5 27.5s-24.333 17.333 -31 24l-9 10l49 52l8.5 -8.5
c3.66699 -3.66699 12.167 -10.167 25.5 -19.5s27.333 -17.5 42 -24.5s33.834 -13.5 57.5 -19.5c23.667 -6 47.834 -9 72.501 -9c43.333 0 78.5 11.5 105.5 34.5s40.5 51.5 40.5 85.5c0 36 -13.667 66.333 -41 91s-75.333 48.667 -144 72c-122 40.667 -183 104 -183 190
c0 52 20.333 95.167 61 129.5s94.667 51.5 162 51.5c26.667 0 52.5 -2.66699 77.5 -8s45.5 -12 61.5 -20s30.167 -16 42.5 -24s21.5 -14.667 27.5 -20l8 -8l-49 -52c-1.33301 2 -3.66602 4.5 -6.99902 7.5s-10.333 8.16699 -21 15.5s-22 14 -34 20s-27.333 11.333 -46 16
s-38 7 -58 7c-46.667 0 -82.834 -10.833 -108.501 -32.5s-38.5 -46.834 -38.5 -75.501c0 -30.667 12.167 -56.834 36.5 -78.5c24.333 -21.667 64.166 -41.5 119.499 -59.5zM264.999 757.001l79 163h81l-99 -163h-61z" />
    <glyph glyph-name="sacute" unicode="&#x15b;" horiz-adv-x="451" 
d="M243 294c108.667 -28.667 162.999 -79.668 162.999 -153.001c0 -42.667 -16.667 -78.5 -50 -107.5s-79 -43.5 -137 -43.5c-35.333 0 -68.666 5.5 -99.999 16.5s-54 21.833 -68 32.5l-21 16l35 51c4.66699 -4 11.5 -9.16699 20.5 -15.5s27 -14.666 54 -24.999
s53.833 -15.5 80.5 -15.5c34.667 0 62 7.83301 82 23.5s30 34.5 30 56.5c0 23.333 -9.33301 43.666 -28 60.999s-54 33 -106 47c-46.667 12.667 -82.834 31.334 -108.501 56.001s-38.5 53.667 -38.5 87c0 38 15.5 70.5 46.5 97.5s74.167 40.5 129.5 40.5
c30.667 0 60 -4.5 88 -13.5s48.333 -18.167 61 -27.5l19 -14l-36 -52c-4 3.33691 -9.5 7.66992 -16.5 13c-7 5.33301 -21.667 12.333 -44 21s-45.166 13 -68.499 13c-33.334 0 -59.167 -7.16699 -77.5 -21.5s-27.5 -30.5 -27.5 -48.5c0 -20.667 8.5 -38.667 25.5 -54
s47.833 -29 92.5 -41zM194.999 576.999l79 163h81l-99 -163h-61z" />
    <glyph glyph-name="Scircumflex" unicode="&#x15c;" horiz-adv-x="570" 
d="M302 398c142 -45.333 212.999 -116.332 212.999 -212.999c0 -56 -21 -102.5 -63 -139.5s-98.667 -55.5 -170 -55.5c-30.667 0 -60.167 3.33301 -88.5 10s-51.666 14.5 -69.999 23.5s-34.5 18.167 -48.5 27.5s-24.333 17.333 -31 24l-9 10l49 52l8.5 -8.5
c3.66699 -3.66699 12.167 -10.167 25.5 -19.5s27.333 -17.5 42 -24.5s33.834 -13.5 57.5 -19.5c23.667 -6 47.834 -9 72.501 -9c43.333 0 78.5 11.5 105.5 34.5s40.5 51.5 40.5 85.5c0 36 -13.667 66.333 -41 91s-75.333 48.667 -144 72c-122 40.667 -183 104 -183 190
c0 52 20.333 95.167 61 129.5s94.667 51.5 162 51.5c26.667 0 52.5 -2.66699 77.5 -8s45.5 -12 61.5 -20s30.167 -16 42.5 -24s21.5 -14.667 27.5 -20l8 -8l-49 -52c-1.33301 2 -3.66602 4.5 -6.99902 7.5s-10.333 8.16699 -21 15.5s-22 14 -34 20s-27.333 11.333 -46 16
s-38 7 -58 7c-46.667 0 -82.834 -10.833 -108.501 -32.5s-38.5 -46.834 -38.5 -75.501c0 -30.667 12.167 -56.834 36.5 -78.5c24.333 -21.667 64.166 -41.5 119.499 -59.5zM99.999 757.001l150 163h70l150 -163h-70l-117 112l-116 -112h-67z" />
    <glyph glyph-name="scircumflex" unicode="&#x15d;" horiz-adv-x="451" 
d="M243 294c108.667 -28.667 162.999 -79.668 162.999 -153.001c0 -42.667 -16.667 -78.5 -50 -107.5s-79 -43.5 -137 -43.5c-35.333 0 -68.666 5.5 -99.999 16.5s-54 21.833 -68 32.5l-21 16l35 51c4.66699 -4 11.5 -9.16699 20.5 -15.5s27 -14.666 54 -24.999
s53.833 -15.5 80.5 -15.5c34.667 0 62 7.83301 82 23.5s30 34.5 30 56.5c0 23.333 -9.33301 43.666 -28 60.999s-54 33 -106 47c-46.667 12.667 -82.834 31.334 -108.501 56.001s-38.5 53.667 -38.5 87c0 38 15.5 70.5 46.5 97.5s74.167 40.5 129.5 40.5
c30.667 0 60 -4.5 88 -13.5s48.333 -18.167 61 -27.5l19 -14l-36 -52c-4 3.33691 -9.5 7.66992 -16.5 13c-7 5.33301 -21.667 12.333 -44 21s-45.166 13 -68.499 13c-33.334 0 -59.167 -7.16699 -77.5 -21.5s-27.5 -30.5 -27.5 -48.5c0 -20.667 8.5 -38.667 25.5 -54
s47.833 -29 92.5 -41zM35.999 576.999l150 163h70l150 -163h-70l-117 112l-116 -112h-67z" />
    <glyph glyph-name="Scedilla" unicode="&#x15e;" horiz-adv-x="570" 
d="M302 398c142 -45.333 212.999 -116.33 212.999 -212.997c0 -50.667 -17.5 -93.834 -52.5 -129.501s-82.833 -56.834 -143.5 -63.501c17.333 -19.333 26 -43.333 26 -72c0 -35.333 -13.5 -63.333 -40.5 -84s-59.833 -31 -98.5 -31c-18 0 -35.5 2.5 -52.5 7.5
s-29.5 9.83301 -37.5 14.5l-11 7l20 48c20 -14.667 47.333 -22 82 -22c24 0 42.833 6.16699 56.5 18.5s20.5 28.5 20.5 48.5c0 24.667 -10.667 46 -32 64c-26.667 2 -52.5 6.5 -77.5 13.5s-45.5 15 -61.5 24s-30.167 17.833 -42.5 26.5s-21.166 15.667 -26.499 21l-9 9
l49 52l8.5 -8.5c3.66699 -3.66699 12.167 -10.167 25.5 -19.5s27.333 -17.5 42 -24.5s33.834 -13.5 57.5 -19.5c23.667 -6 47.834 -9 72.501 -9c43.333 0 78.5 11.5 105.5 34.5s40.5 51.5 40.5 85.5c0 36 -13.667 66.333 -41 91s-75.333 48.667 -144 72
c-122 40.667 -183 104 -183 190c0 52 20.333 95.167 61 129.5s94.667 51.5 162 51.5c26.667 0 52.5 -2.66699 77.5 -8s45.5 -12 61.5 -20s30.167 -16 42.5 -24s21.5 -14.667 27.5 -20l8 -8l-49 -52c-1.33301 2 -3.66602 4.5 -6.99902 7.5s-10.333 8.16699 -21 15.5
s-22 14 -34 20s-27.333 11.333 -46 16s-38 7 -58 7c-46.667 0 -82.834 -10.833 -108.501 -32.5s-38.5 -46.834 -38.5 -75.501c0 -30.667 12.167 -56.834 36.5 -78.5c24.333 -21.667 64.166 -41.5 119.499 -59.5z" />
    <glyph glyph-name="scedilla" unicode="&#x15f;" horiz-adv-x="451" 
d="M243 294c108.667 -28.667 163 -79.6699 163 -153.003c0 -38 -13.5 -70.833 -40.5 -98.5s-64.5 -44.5 -112.5 -50.5c18 -20.667 27 -44.667 27 -72c0 -35.333 -13.5 -63.333 -40.5 -84s-59.833 -31 -98.5 -31c-18 0 -35.5 2.5 -52.5 7.5s-29.167 9.83301 -36.5 14.5l-12 7
l20 48c20 -14.667 47.333 -22 82 -22c24 0 42.833 6.16699 56.5 18.5s20.5 28.5 20.5 48.5c0 24.667 -11 46.334 -33 65.001c-29.333 2.66699 -57 9.33398 -83 20.001s-44.667 20.667 -56 30l-17 13l35 51c4.66699 -4 11.5 -9.16699 20.5 -15.5s27 -14.666 54 -24.999
s53.833 -15.5 80.5 -15.5c34.667 0 62 7.83301 82 23.5s30 34.5 30 56.5c0 23.333 -9.33301 43.666 -28 60.999s-54 33 -106 47c-46.667 12.667 -82.834 31.334 -108.501 56.001s-38.5 53.667 -38.5 87c0 38 15.5 70.5 46.5 97.5s74.167 40.5 129.5 40.5
c30.667 0 60 -4.5 88 -13.5s48.333 -18.167 61 -27.5l19 -14l-36 -52c-4 3.33691 -9.5 7.66992 -16.5 13c-7 5.33301 -21.667 12.333 -44 21s-45.166 13 -68.499 13c-33.334 0 -59.167 -7.16699 -77.5 -21.5s-27.5 -30.5 -27.5 -48.5c0 -20.667 8.5 -38.667 25.5 -54
s47.833 -29 92.5 -41z" />
    <glyph glyph-name="Scaron" unicode="&#x160;" horiz-adv-x="570" 
d="M302 398c142 -45.333 212.999 -116.332 212.999 -212.999c0 -56 -21 -102.5 -63 -139.5s-98.667 -55.5 -170 -55.5c-30.667 0 -60.167 3.33301 -88.5 10s-51.666 14.5 -69.999 23.5s-34.5 18.167 -48.5 27.5s-24.333 17.333 -31 24l-9 10l49 52l8.5 -8.5
c3.66699 -3.66699 12.167 -10.167 25.5 -19.5s27.333 -17.5 42 -24.5s33.834 -13.5 57.5 -19.5c23.667 -6 47.834 -9 72.501 -9c43.333 0 78.5 11.5 105.5 34.5s40.5 51.5 40.5 85.5c0 36 -13.667 66.333 -41 91s-75.333 48.667 -144 72c-122 40.667 -183 104 -183 190
c0 52 20.333 95.167 61 129.5s94.667 51.5 162 51.5c26.667 0 52.5 -2.66699 77.5 -8s45.5 -12 61.5 -20s30.167 -16 42.5 -24s21.5 -14.667 27.5 -20l8 -8l-49 -52c-1.33301 2 -3.66602 4.5 -6.99902 7.5s-10.333 8.16699 -21 15.5s-22 14 -34 20s-27.333 11.333 -46 16
s-38 7 -58 7c-46.667 0 -82.834 -10.833 -108.501 -32.5s-38.5 -46.834 -38.5 -75.501c0 -30.667 12.167 -56.834 36.5 -78.5c24.333 -21.667 64.166 -41.5 119.499 -59.5zM474.999 920.001l-150 -163h-70l-150 163h70l117 -112l116 112h67z" />
    <glyph glyph-name="scaron" unicode="&#x161;" horiz-adv-x="451" 
d="M243 294c108.667 -28.667 162.999 -79.668 162.999 -153.001c0 -42.667 -16.667 -78.5 -50 -107.5s-79 -43.5 -137 -43.5c-35.333 0 -68.666 5.5 -99.999 16.5s-54 21.833 -68 32.5l-21 16l35 51c4.66699 -4 11.5 -9.16699 20.5 -15.5s27 -14.666 54 -24.999
s53.833 -15.5 80.5 -15.5c34.667 0 62 7.83301 82 23.5s30 34.5 30 56.5c0 23.333 -9.33301 43.666 -28 60.999s-54 33 -106 47c-46.667 12.667 -82.834 31.334 -108.501 56.001s-38.5 53.667 -38.5 87c0 38 15.5 70.5 46.5 97.5s74.167 40.5 129.5 40.5
c30.667 0 60 -4.5 88 -13.5s48.333 -18.167 61 -27.5l19 -14l-36 -52c-4 3.33691 -9.5 7.66992 -16.5 13c-7 5.33301 -21.667 12.333 -44 21s-45.166 13 -68.499 13c-33.334 0 -59.167 -7.16699 -77.5 -21.5s-27.5 -30.5 -27.5 -48.5c0 -20.667 8.5 -38.667 25.5 -54
s47.833 -29 92.5 -41zM414.999 739.999l-150 -163h-70l-150 163h70l117 -112l116 112h67z" />
    <glyph glyph-name="Tcommaaccent" unicode="&#x162;" horiz-adv-x="590" 
d="M565 632h-231v-632h-78v632h-231v68h540v-68zM174 -212l79 163h81l-99 -163h-61z" />
    <glyph glyph-name="tcommaaccent" unicode="&#x163;" horiz-adv-x="430" 
d="M200 640l0.000976562 -131h200v-60h-200v-285c0 -70 31 -105 93 -105c14.667 0 30 1.16699 46 3.5s28.333 4.83301 37 7.5l13 3l11 -62c-29.333 -14 -69 -21 -119 -21c-48.667 0 -86.834 13.667 -114.501 41s-41.5 67.333 -41.5 120v298h-105v60h105v131h75z
M164.001 -212l79 163h81l-99 -163h-61z" />
    <glyph glyph-name="Tcaron" unicode="&#x164;" horiz-adv-x="590" 
d="M565 632h-231v-632h-78v632h-231v68h540v-68zM480 920l-150 -163h-70l-150 163h70l117 -112l116 112h67z" />
    <glyph glyph-name="tcaron" unicode="&#x165;" horiz-adv-x="430" 
d="M345 570h-55l38 220h79zM200 640l0.000976562 -131h200v-60h-200v-285c0 -70 31 -105 93 -105c14.667 0 30 1.16699 46 3.5s28.333 4.83301 37 7.5l13 3l11 -62c-29.333 -14 -69 -21 -119 -21c-48.667 0 -86.834 13.667 -114.501 41s-41.5 67.333 -41.5 120v298h-105v60
h105v131h75z" />
    <glyph glyph-name="Tbar" unicode="&#x166;" horiz-adv-x="590" 
d="M565 632h-231v-244h204v-49h-204v-339h-78v339h-204v49h204v244h-231v68h540v-68z" />
    <glyph glyph-name="tbar" unicode="&#x167;" horiz-adv-x="430" 
d="M200 640v-131h200v-59h-200v-158h200v-50h-200v-80c0 -34.667 8.33301 -60.667 25 -78s39.667 -26 69 -26c14.667 0 30 1.16699 46 3.5s28 4.5 36 6.5l13 4l11 -61c-28.667 -14 -68 -21 -118 -21c-49.333 0 -87.833 13.667 -115.5 41s-41.5 67.333 -41.5 120v91h-105v50
h105v158h-105v59h105v131h75z" />
    <glyph glyph-name="Utilde" unicode="&#x168;" horiz-adv-x="740" 
d="M574 700h76v-416c0 -86 -26.5 -156.5 -79.5 -211.5s-120.167 -82.5 -201.5 -82.5c-82 0 -149 27 -201 81s-78 124 -78 210v419h79v-419c0 -65.333 19 -118.333 57 -159s86.667 -61 146 -61c58.667 0 107 20.333 145 61s57 93.667 57 159v419zM246 782l-48.002 6.00391
c0 3.33301 0.333008 7.66602 1 12.999c0.667969 5.33301 2.83496 14.666 6.5 27.999c3.66699 13.333 8.5 25.166 14.5 35.499s15.5 19.666 28.5 27.999s27.833 12.5 44.5 12.5c18.667 0 35.834 -4.66699 51.501 -14s27.667 -19.5 36 -30.5s18.333 -21.167 30 -30.5
s23.834 -14 36.501 -14s22.834 6 30.501 18s12.167 24 13.5 36l2 18l49 -5c0 -3.34668 -0.333008 -7.67969 -1 -13c-0.666992 -5.33984 -2.83398 -14.6729 -6.50098 -28c-3.66699 -13.3369 -8.66699 -25.1699 -15 -35.5c-6.33496 -10.333 -16.002 -19.833 -29 -28.5
c-13 -8.66699 -28.167 -13 -45.5 -13c-18 0 -34.667 4.66699 -50 14s-27.166 19.5 -35.499 30.5s-18.5 21.167 -30.5 30.5s-24.333 14 -37 14c-12.668 0 -22.835 -6 -30.501 -18c-7.66699 -12 -12.167 -24 -13.5 -36z" />
    <glyph glyph-name="utilde" unicode="&#x169;" horiz-adv-x="610" 
d="M455 261v248h75v-509h-66l-6 98c-37.333 -72 -100 -108 -188 -108c-57.333 0 -105 20 -143 60s-57 97.333 -57 172v287h75v-263c0 -62.667 13.833 -109.5 41.5 -140.5s62.5 -46.5 104.5 -46.5c48 0 87.333 16.333 118 49s46 83.667 46 153zM181 602l-48.0039 6.00195
c0 3.33301 0.333008 7.66602 1 12.999c0.667969 5.33301 2.83496 14.666 6.50098 27.999c3.66699 13.333 8.5 25.166 14.5 35.499s15.5 19.666 28.5 27.999s27.833 12.5 44.5 12.5c18.667 0 35.667 -4.66699 51 -14s27.333 -19.5 36 -30.5s18.834 -21.167 30.501 -30.5
s23.834 -14 36.501 -14s22.834 6 30.501 18s12.167 24 13.5 36l2 18l49 -5c0 -3.34375 -0.333008 -7.67676 -1 -12.999c-0.673828 -5.33594 -2.84082 -14.6689 -6.5 -28c-3.66699 -13.3379 -8.66699 -25.1709 -15 -35.499c-6.33301 -10.333 -16 -19.833 -29 -28.5
s-28.167 -13 -45.5 -13c-18 0 -34.667 4.66699 -50 14s-27.166 19.5 -35.499 30.5s-18.5 21.167 -30.5 30.5s-24.333 14 -37 14s-22.834 -6 -30.501 -18s-12.167 -24 -13.5 -36z" />
    <glyph glyph-name="Umacron" unicode="&#x16a;" horiz-adv-x="740" 
d="M574 700h76v-416c0 -86 -26.5 -156.5 -79.5 -211.5s-120.167 -82.5 -201.5 -82.5c-82 0 -149 27 -201 81s-78 124 -78 210v419h79v-419c0 -65.333 19 -118.333 57 -159s86.667 -61 146 -61c58.667 0 107 20.333 145 61s57 93.667 57 159v419zM190 797v50h360v-50h-360z
" />
    <glyph glyph-name="umacron" unicode="&#x16b;" horiz-adv-x="610" 
d="M455 261v248h75v-509h-66l-6 98c-37.333 -72 -100 -108 -188 -108c-57.333 0 -105 20 -143 60s-57 97.333 -57 172v287h75v-263c0 -62.667 13.833 -109.5 41.5 -140.5s62.5 -46.5 104.5 -46.5c48 0 87.333 16.333 118 49s46 83.667 46 153zM125 606v50h360v-50h-360z" />
    <glyph glyph-name="Ubreve" unicode="&#x16c;" horiz-adv-x="740" 
d="M574 700h76v-416c0 -86 -26.5 -156.5 -79.5 -211.5s-120.167 -82.5 -201.5 -82.5c-82 0 -149 27 -201 81s-78 124 -78 210v419h79v-419c0 -65.333 19 -118.333 57 -159s86.667 -61 146 -61c58.667 0 107 20.333 145 61s57 93.667 57 159v419zM209 920h58v-8
c0 -30.667 9.66699 -55.5 29 -74.5s44.333 -28.5 75 -28.5s55.167 9.5 73.5 28.5s27.5 43.833 27.5 74.5v8h59v-5c0 -45.333 -15.167 -83 -45.5 -113s-68.833 -45 -115.5 -45s-85.167 15 -115.5 45s-45.5 67.667 -45.5 113v5z" />
    <glyph glyph-name="ubreve" unicode="&#x16d;" horiz-adv-x="610" 
d="M455 261v248h75v-509h-66l-6 98c-37.333 -72 -100 -108 -188 -108c-57.333 0 -105 20 -143 60s-57 97.333 -57 172v287h75v-263c0 -62.667 13.833 -109.5 41.5 -140.5s62.5 -46.5 104.5 -46.5c48 0 87.333 16.333 118 49s46 83.667 46 153zM144 740h58v-8
c0 -30.667 9.66699 -55.5 29 -74.5s44.333 -28.5 75 -28.5s55.167 9.5 73.5 28.5s27.5 43.833 27.5 74.5v8h59v-5c0 -45.333 -15.167 -83 -45.5 -113s-68.833 -45 -115.5 -45s-85.167 15 -115.5 45s-45.5 67.667 -45.5 113v5z" />
    <glyph glyph-name="Uring" unicode="&#x16e;" horiz-adv-x="740" 
d="M574 700h76v-416c0 -86 -26.5 -156.5 -79.5 -211.5s-120.167 -82.5 -201.5 -82.5c-82 0 -149 27 -201 81s-78 124 -78 210v419h79v-419c0 -65.333 19 -118.333 57 -159s86.667 -61 146 -61c58.667 0 107 20.333 145 61s57 93.667 57 159v419zM370 788
c16.667 0 31 5.83398 43 17.501s18 26.167 18 43.5s-6 31.666 -18 42.999s-26.333 17 -43 17c-17.333 0 -32 -5.66699 -44 -17c-12 -11.3369 -18 -25.6699 -18 -43c0 -17.333 6 -31.833 18 -43.5s26.667 -17.5 44 -17.5zM370 950.001c30 0 55.167 -9.66602 75.5 -28.999
s30.5 -43.333 30.5 -72c0 -29.3369 -10.167 -53.6699 -30.5 -73c-20.333 -19.333 -45.5 -29 -75.5 -29s-55.167 9.66699 -75.5 29s-30.5 43.666 -30.5 72.999c0 28.667 10.167 52.667 30.5 72s45.5 29 75.5 29z" />
    <glyph glyph-name="uring" unicode="&#x16f;" horiz-adv-x="610" 
d="M455 261v248h75v-509h-66l-6 98c-37.333 -72 -100 -108 -188 -108c-57.333 0 -105 20 -143 60s-57 97.333 -57 172v287h75v-263c0 -62.667 13.833 -109.5 41.5 -140.5s62.5 -46.5 104.5 -46.5c48 0 87.333 16.333 118 49s46 83.667 46 153zM305 608
c16.667 0 31 5.83398 43 17.501s18 26.167 18 43.5s-6 31.666 -18 42.999s-26.333 17 -43 17c-17.333 0 -32 -5.66699 -44 -17c-12 -11.3359 -18 -25.6689 -18 -43c0 -17.333 6 -31.833 18 -43.5s26.667 -17.5 44 -17.5zM305 770.001c30 0 55.167 -9.66602 75.5 -28.999
s30.5 -43.333 30.5 -72c0 -29.335 -10.167 -53.668 -30.5 -73c-20.333 -19.333 -45.5 -29 -75.5 -29s-55.167 9.66699 -75.5 29s-30.5 43.666 -30.5 72.999c0 28.667 10.167 52.667 30.5 72s45.5 29 75.5 29z" />
    <glyph glyph-name="Uhungarumlaut" unicode="&#x170;" horiz-adv-x="740" 
d="M574 700h76v-416c0 -86 -26.5 -156.5 -79.5 -211.5s-120.167 -82.5 -201.5 -82.5c-82 0 -149 27 -201 81s-78 124 -78 210v419h79v-419c0 -65.333 19 -118.333 57 -159s86.667 -61 146 -61c58.667 0 107 20.333 145 61s57 93.667 57 159v419zM431 757l61 163h80l-81 -163
h-60zM248 757l62 163h80l-82 -163h-60z" />
    <glyph glyph-name="uhungarumlaut" unicode="&#x171;" horiz-adv-x="610" 
d="M455 261v248h75v-509h-66l-6 98c-37.333 -72 -100 -108 -188 -108c-57.333 0 -105 20 -143 60s-57 97.333 -57 172v287h75v-263c0 -62.667 13.833 -109.5 41.5 -140.5s62.5 -46.5 104.5 -46.5c48 0 87.333 16.333 118 49s46 83.667 46 153zM366 577l61 163h80l-81 -163
h-60zM183 577l62 163h80l-82 -163h-60z" />
    <glyph glyph-name="Uogonek" unicode="&#x172;" horiz-adv-x="740" 
d="M574 700l75.998 -0.00292969v-416c0 -72.667 -19.333 -134.667 -58 -186s-89.667 -84.666 -153 -99.999c-15.333 -12 -23 -30.667 -23 -56c0 -21.333 8 -38.666 24 -51.999s36 -20 60 -20c10.667 0 21.167 1.33301 31.5 4s17.833 5.33398 22.5 8.00098l7 3l19 -45
c-19.334 -16.667 -47.667 -25 -84.999 -25c-39.333 0 -71.666 10.833 -96.999 32.5s-38 50.167 -38 85.5c0 21.333 5.33301 40.333 16 57h-7c-82 0 -149 27 -201 81s-78 124 -78 210v419h79v-419c0 -65.333 19 -118.333 57 -159s86.667 -61 146 -61
c58.667 0 107 20.333 145 61s57 93.667 57 159v419z" />
    <glyph glyph-name="uogonek" unicode="&#x173;" horiz-adv-x="610" 
d="M455 261l-0.000976562 247.998h75v-509h-33c-17.333 -10.667 -26 -30 -26 -58c0 -21.333 8 -38.666 24 -51.999s36 -20 60 -20c10.667 0 21.167 1.33301 31.5 4s17.833 5.33398 22.5 8.00098l7 3l19 -45c-19.3359 -16.667 -47.6689 -25 -85 -25
c-39.333 0 -71.666 10.833 -96.999 32.5s-38 50.167 -38 85.5c0 38.667 15.667 69 47 91l-4 74c-37.333 -72 -100 -108 -188 -108c-57.333 0 -105 20 -143 60s-57 97.333 -57 172v287h75v-263c0 -62.667 13.833 -109.5 41.5 -140.5s62.5 -46.5 104.5 -46.5
c48 0 87.333 16.333 118 49s46 83.667 46 153z" />
    <glyph glyph-name="Wcircumflex" unicode="&#x174;" horiz-adv-x="985" 
d="M249 0l-239 700h85l194 -583l178 583h56l177 -583l195 583h80l-238 -700h-70l-175 559l-173 -559h-70zM307 757l150 163h70l150 -163h-70l-117 112l-116 -112h-67z" />
    <glyph glyph-name="wcircumflex" unicode="&#x175;" horiz-adv-x="775" 
d="M188 0l-183 509h82l142 -406l132 406h57l131 -405l142 405h79l-184 -509h-71l-128 387l-128 -387h-71zM202 577l150 163h70l150 -163h-70l-117 112l-116 -112h-67z" />
    <glyph glyph-name="Ycircumflex" unicode="&#x176;" horiz-adv-x="670" 
d="M297 0v280l-287 420h92l235 -349l236 349h87l-286 -420v-280h-77zM152 757l150 163h70l150 -163h-70l-117 112l-116 -112h-67z" />
    <glyph glyph-name="ycircumflex" unicode="&#x177;" horiz-adv-x="517" 
d="M221 2l-216 507h83l172 -424l172 424h80l-219 -514c-46.667 -110 -112 -165 -196 -165c-18.667 0 -35.667 1.83301 -51 5.5s-26 7.16699 -32 10.5l-9 6l24 60c14.667 -9.33301 36.667 -14 66 -14c52.667 0 94.667 34.667 126 104zM75 577l150 163h70l150 -163h-70
l-117 112l-116 -112h-67z" />
    <glyph glyph-name="Ydieresis" unicode="&#x178;" horiz-adv-x="670" 
d="M297 0v280l-287 420h92l235 -349l236 349h87l-286 -420v-280h-77zM437 884c13.333 0 24.833 -4.66699 34.5 -14s14.5 -21 14.5 -35c0 -13.333 -4.83301 -24.833 -14.5 -34.5s-21.167 -14.5 -34.5 -14.5c-14 0 -25.667 4.83301 -35 14.5s-14 21.167 -14 34.5
s4.83301 24.833 14.5 34.5s21.167 14.5 34.5 14.5zM237 884c13.333 0 24.833 -4.66699 34.5 -14s14.5 -21 14.5 -35c0 -13.333 -4.83301 -24.833 -14.5 -34.5s-21.167 -14.5 -34.5 -14.5c-14 0 -25.667 4.83301 -35 14.5s-14 21.167 -14 34.5s4.83301 24.833 14.5 34.5
s21.167 14.5 34.5 14.5z" />
    <glyph glyph-name="Zacute" unicode="&#x179;" horiz-adv-x="660" 
d="M600 0h-540v54l435 580h-415v66h520v-54l-435 -580h435v-66zM300 757l79 163h81l-99 -163h-61z" />
    <glyph glyph-name="zacute" unicode="&#x17a;" horiz-adv-x="515" 
d="M50 54l312 389h-297v66h400v-53l-311 -390h311v-66h-415v54zM227 577l79 163h81l-99 -163h-61z" />
    <glyph glyph-name="Zdotaccent" unicode="&#x17b;" horiz-adv-x="660" 
d="M600 0h-540v54l435 580h-415v66h520v-54l-435 -580h435v-66zM340 884c13.334 0 24.666 -4.66699 33.999 -14s14 -21 14 -35c0 -13.333 -4.83301 -24.833 -14.5 -34.5s-21.167 -14.5 -34.5 -14.5s-24.666 4.83301 -33.999 14.5s-14 21.167 -14 34.5
s4.66699 24.833 14 34.5s21 14.5 35 14.5z" />
    <glyph glyph-name="zdotaccent" unicode="&#x17c;" horiz-adv-x="515" 
d="M50 54l312 389h-297v66h400v-53l-311 -390h311v-66h-415v54zM268 704c13.333 0 24.667 -4.66699 34 -14s14 -21 14 -35c0 -13.333 -4.83301 -24.833 -14.5 -34.5s-21.167 -14.5 -34.5 -14.5c-13.334 0 -24.667 4.83301 -34 14.5s-14 21.167 -14 34.5
s4.66699 24.833 14 34.5s21 14.5 35 14.5z" />
    <glyph glyph-name="Zcaron" unicode="&#x17d;" horiz-adv-x="660" 
d="M600 0h-540v54l435 580h-415v66h520v-54l-435 -580h435v-66zM525 920l-150 -163h-70l-150 163h70l117 -112l116 112h67z" />
    <glyph glyph-name="zcaron" unicode="&#x17e;" horiz-adv-x="515" 
d="M50 54l312 389h-297v66h400v-53l-311 -390h311v-66h-415v54zM452 740l-150 -163h-70l-150 163h70l117 -112l116 112h67z" />
    <glyph glyph-name="florin" unicode="&#x192;" 
d="M215 -160h-75l38 471h-133v52h137l12 146c4.66699 64 24.667 113.5 60 148.5c35.334 35 81.667 52.5 139 52.5c26 0 49.833 -4 71.5 -12s38.667 -17.667 51 -29s23 -22.833 32 -34.5s15.167 -21.5 18.5 -29.5l4 -12l-58 -33c-0.666992 2 -1.66699 4.83301 -3 8.5
s-5 10.167 -11 19.5s-12.833 17.5 -20.5 24.5s-19 13.5 -34 19.5s-31.5 9 -49.5 9c-36.667 0 -65.834 -11 -87.5 -33c-21.667 -22 -34.167 -53.333 -37.5 -94l-13 -151h214v-52h-217z" />
    <glyph glyph-name="Aringacute" unicode="&#x1fa;" horiz-adv-x="700" 
d="M465 940l-55 -91c30.667 -18.667 46 -46.667 46 -84c0 -41.335 -18.667 -71.668 -56 -91l290 -674h-85l-86 202h-342l-86 -202h-81l290 674c-17.333 8 -31 20.167 -41 36.5s-15 34.5 -15 54.5c0 28.667 10 52.5 30 71.5s44.667 28.833 74 29.5l36 74h81zM348 612
l-148 -347h295zM350 704c16.667 0 31 5.83301 43 17.5s18 26.167 18 43.5s-6 31.666 -18 42.999s-26.333 17 -43 17c-17.333 0 -32 -5.66699 -44 -17c-12 -11.3359 -18 -25.6689 -18 -42.999c0 -17.333 6 -31.833 18 -43.5s26.667 -17.5 44 -17.5z" />
    <glyph glyph-name="aringacute" unicode="&#x1fb;" horiz-adv-x="570" 
d="M257 306c69.334 0 123.667 -19.002 163 -57.002v42c0 54.667 -13.833 95.834 -41.5 123.501s-64.834 41.5 -111.5 41.5c-28 0 -54.167 -4.33301 -78.5 -13s-41.833 -17 -52.5 -25l-15 -13l-36 48c29.333 28.667 72 48.667 128 60c-19.333 19.333 -29 43.333 -29 72
s10 52.5 30 71.5s44.667 28.833 74 29.5l36 74h81l-55 -91c30.667 -18.667 46 -46.667 46 -84c0 -32.667 -12 -58.667 -36 -78c90 -29.333 135 -101.333 135 -216v-291h-58l-8 55c-40 -43.333 -98 -65 -174 -65c-61.333 0 -110 14.833 -146 44.5s-54 66.834 -54 111.501
c0 45.333 18.333 83.333 55 114s85.667 46 147 46zM273 47.998c48 0 85.333 9.5 112 28.5s40 43.167 40 72.5c0 28.667 -13.333 52.667 -40 72s-64 29 -112 29c-44 0 -78.833 -9.66699 -104.5 -29s-38.5 -43.333 -38.5 -72c0 -29.333 12.833 -53.5 38.5 -72.5
s60.5 -28.5 104.5 -28.5zM290 523.998c16.667 0 31 5.83398 43 17.501s18 26.167 18 43.5s-6 31.666 -18 42.999s-26.333 17 -43 17c-17.333 0 -32 -5.66699 -44 -17c-12 -11.3359 -18 -25.6689 -18 -43c0 -17.333 6 -31.833 18 -43.5s26.667 -17.5 44 -17.5z" />
    <glyph glyph-name="AEacute" unicode="&#x1fc;" horiz-adv-x="1055" 
d="M260 265h245v370zM990 633h-407v-236h357v-64h-357v-265h417v-68h-495v203h-282l-134 -203h-89l465 700h525v-67zM687 757l79 163h81l-99 -163h-61z" />
    <glyph glyph-name="aeacute" unicode="&#x1fd;" horiz-adv-x="981" 
d="M257 306c68 0 122.332 -18.002 162.999 -54.002v39c0 54.667 -13.667 95.834 -41 123.501s-64.333 41.5 -111 41.5c-28.667 0 -55.167 -4.16699 -79.5 -12.5s-41.833 -16.833 -52.5 -25.5l-15 -12l-36 49c2 2 4.66699 4.33301 8 7s11 7.66699 23 15
s24.833 13.833 38.5 19.5s31.667 10.834 54 15.501s45.5 7 69.5 7c95.333 0 159.333 -38.333 192 -115c23.333 35.333 54.166 63.333 92.499 84s80.5 31 126.5 31c68 0 126.167 -24.5 174.5 -73.5s72.5 -107.833 72.5 -176.5l-2 -19h-439
c0.666992 -55.333 19.5 -101.5 56.5 -138.5s83.5 -55.5 139.5 -55.5c22.6699 0 44.3369 3.16699 65.001 9.5c20.667 6.33301 37.5 14.166 50.5 23.499s24.333 18.666 34 27.999s16.5 17 20.5 23l6 10l48 -39c-2 -3.33301 -4.83301 -7.66602 -8.5 -12.999
s-12.167 -15 -25.5 -29s-28 -26.333 -44 -37s-37.5 -20.334 -64.5 -29.001s-55.5 -13 -85.5 -13c-46 0 -87.833 9.83301 -125.5 29.5s-68.167 46.834 -91.5 81.501c-13.333 -34 -37.833 -61 -73.5 -81s-80.5 -30 -134.5 -30c-63.333 0 -113.666 14.833 -150.999 44.5
s-56 66.834 -56 111.501c0 45.333 18.333 83.333 55 114s85.667 46 147 46zM272.999 249.998c-44 0 -78.833 -9.66699 -104.5 -29s-38.5 -43.333 -38.5 -72c0 -29.333 12.833 -53.5 38.5 -72.5s60.5 -28.5 104.5 -28.5c48 0 85.333 9.5 112 28.5s40 43.167 40 72.5
c0 28.667 -13.333 52.667 -40 72s-64 29 -112 29zM687.999 459.998c-48 0 -89.5 -14.667 -124.5 -44s-56.5 -67 -64.5 -113h363c-6.66699 44.667 -26.667 82 -60 112s-71.333 45 -114 45zM459.999 576.998l79 163h81l-99 -163h-61z" />
    <glyph glyph-name="Oslashacute" unicode="&#x1fe;" horiz-adv-x="835" 
d="M626 550l-381.001 -432c50.667 -38.667 108.334 -58 173.001 -58c80.667 0 148.5 27.833 203.5 83.5s82.5 124.5 82.5 206.5c0 79.333 -26 146 -78 200zM782.999 730l-108 -123c70 -68.667 105 -153.667 105 -255s-35.167 -187 -105.5 -257s-156.5 -105 -258.5 -105
c-82 0 -155 24 -219 72l-80 -92h-64l107 123c-70 68.667 -105 154 -105 256c0 101.334 35.167 186.834 105.5 256.5c70.333 69.667 156.5 104.5 258.5 104.5c82.667 0 155.667 -23.667 219 -71l81 91h64zM208.999 150l380.999 433.001c-49.333 38 -106.666 57 -171.999 57
c-80.667 0 -148.5 -27.833 -203.5 -83.5s-82.5 -124.5 -82.5 -206.5c0 -78.667 25.667 -145.334 77 -200.001zM384.998 757.001l79 163h81l-99 -163h-61z" />
    <glyph glyph-name="oslashacute" unicode="&#x1ff;" horiz-adv-x="626" 
d="M463 385l-264 -293c32.667 -25.333 70.667 -38 114 -38c56 0 103 19.167 141 57.5s57 85.833 57 142.5c0 51.333 -16 95 -48 131zM315 519c58 0 110.667 -16.6689 158 -50.002l63 71h61l-89 -101c49.333 -49.333 74 -110.666 74 -183.999
c0 -74.667 -26 -137.667 -78 -189s-116 -77 -192 -77c-59.333 0 -112 16.667 -158 50l-63 -69h-61l88 98c-48.667 50 -73 111.333 -73 184c0 74.667 26 137.834 78 189.501s116 77.5 192 77.5zM164 121.998l264 293c-32.667 25.333 -71 38 -115 38
c-56 0 -102.833 -19 -140.5 -57s-56.5 -85.333 -56.5 -142c0 -50.667 16 -94.667 48 -132zM271 576.998l79 163h81l-99 -163h-61z" />
    <glyph glyph-name="Scommaaccent" unicode="&#x218;" horiz-adv-x="570" 
d="M302 398c142 -45.333 212.999 -116.332 212.999 -212.999c0 -56 -21 -102.5 -63 -139.5s-98.667 -55.5 -170 -55.5c-30.667 0 -60.167 3.33301 -88.5 10s-51.666 14.5 -69.999 23.5s-34.5 18.167 -48.5 27.5s-24.333 17.333 -31 24l-9 10l49 52l8.5 -8.5
c3.66699 -3.66699 12.167 -10.167 25.5 -19.5s27.333 -17.5 42 -24.5s33.834 -13.5 57.5 -19.5c23.667 -6 47.834 -9 72.501 -9c43.333 0 78.5 11.5 105.5 34.5s40.5 51.5 40.5 85.5c0 36 -13.667 66.333 -41 91s-75.333 48.667 -144 72c-122 40.667 -183 104 -183 190
c0 52 20.333 95.167 61 129.5s94.667 51.5 162 51.5c26.667 0 52.5 -2.66699 77.5 -8s45.5 -12 61.5 -20s30.167 -16 42.5 -24s21.5 -14.667 27.5 -20l8 -8l-49 -52c-1.33301 2 -3.66602 4.5 -6.99902 7.5s-10.333 8.16699 -21 15.5s-22 14 -34 20s-27.333 11.333 -46 16
s-38 7 -58 7c-46.667 0 -82.834 -10.833 -108.501 -32.5s-38.5 -46.834 -38.5 -75.501c0 -30.667 12.167 -56.834 36.5 -78.5c24.333 -21.667 64.166 -41.5 119.499 -59.5zM163.999 -211.999l79 163h81l-99 -163h-61z" />
    <glyph glyph-name="scommaaccent" unicode="&#x219;" horiz-adv-x="451" 
d="M243 294c108.667 -28.667 162.999 -79.668 162.999 -153.001c0 -42.667 -16.667 -78.5 -50 -107.5s-79 -43.5 -137 -43.5c-35.333 0 -68.666 5.5 -99.999 16.5s-54 21.833 -68 32.5l-21 16l35 51c4.66699 -4 11.5 -9.16699 20.5 -15.5s27 -14.666 54 -24.999
s53.833 -15.5 80.5 -15.5c34.667 0 62 7.83301 82 23.5s30 34.5 30 56.5c0 23.333 -9.33301 43.666 -28 60.999s-54 33 -106 47c-46.667 12.667 -82.834 31.334 -108.501 56.001s-38.5 53.667 -38.5 87c0 38 15.5 70.5 46.5 97.5s74.167 40.5 129.5 40.5
c30.667 0 60 -4.5 88 -13.5s48.333 -18.167 61 -27.5l19 -14l-36 -52c-4 3.33691 -9.5 7.66992 -16.5 13c-7 5.33301 -21.667 12.333 -44 21s-45.166 13 -68.499 13c-33.334 0 -59.167 -7.16699 -77.5 -21.5s-27.5 -30.5 -27.5 -48.5c0 -20.667 8.5 -38.667 25.5 -54
s47.833 -29 92.5 -41zM103.999 -212.001l79 163h81l-99 -163h-61z" />
    <glyph glyph-name="circumflex" unicode="&#x2c6;" horiz-adv-x="530" 
d="M80 577l150 163h70l150 -163h-70l-117 112l-116 -112h-67z" />
    <glyph glyph-name="caron" unicode="&#x2c7;" horiz-adv-x="530" 
d="M450 740l-150 -163h-70l-150 163h70l117 -112l116 112h67z" />
    <glyph glyph-name="breve" unicode="&#x2d8;" horiz-adv-x="452" 
d="M65 740h58v-8c0 -30.667 9.66699 -55.5 29 -74.5s44.333 -28.5 75 -28.5s55.167 9.5 73.5 28.5s27.5 43.833 27.5 74.5v8h59v-5c0 -45.333 -15.167 -83 -45.5 -113s-68.833 -45 -115.5 -45s-85.167 15 -115.5 45s-45.5 67.667 -45.5 113v5z" />
    <glyph glyph-name="dotaccent" unicode="&#x2d9;" horiz-adv-x="279" 
d="M140 704c13.333 0 24.666 -4.66699 33.999 -14s14 -21 14 -35c0 -13.333 -4.83301 -24.833 -14.5 -34.5s-21.167 -14.5 -34.5 -14.5s-24.666 4.83301 -33.999 14.5s-14 21.167 -14 34.5s4.66699 24.833 14 34.5s21 14.5 35 14.5z" />
    <glyph glyph-name="ring" unicode="&#x2da;" horiz-adv-x="320" 
d="M160 608c16.667 0 31 5.83398 43 17.501s18 26.167 18 43.5s-6 31.666 -18 42.999s-26.333 17 -43 17c-17.333 0 -32 -5.66699 -44 -17c-12 -11.3359 -18 -25.6689 -18 -43c0 -17.333 6 -31.833 18 -43.5s26.667 -17.5 44 -17.5zM160 770.001
c30 0 55.167 -9.66602 75.5 -28.999s30.5 -43.333 30.5 -72c0 -29.335 -10.167 -53.668 -30.5 -73c-20.333 -19.333 -45.5 -29 -75.5 -29s-55.167 9.66699 -75.5 29s-30.5 43.666 -30.5 72.999c0 28.667 10.167 52.667 30.5 72s45.5 29 75.5 29z" />
    <glyph glyph-name="ogonek" unicode="&#x2db;" horiz-adv-x="345" 
d="M115 32l21.998 -31.999c-17.333 -10.667 -26 -30 -26 -58c0 -21.333 8 -38.666 24 -51.999s36 -20 60 -20c10.667 0 21.167 1.33301 31.5 4s17.833 5.33398 22.5 8.00098l7 3l19 -45c-19.333 -16.667 -47.666 -25 -84.999 -25c-39.333 0 -71.666 10.833 -96.999 32.5
s-38 50.167 -38 85.5c0 13.333 2 25.666 6 36.999s9 20.666 15 27.999s12 13.666 18 18.999s11 9 15 11z" />
    <glyph glyph-name="tilde" unicode="&#x2dc;" horiz-adv-x="467" 
d="M110 602l-48.002 6.00195c0 3.33301 0.333008 7.66602 1 12.999s2.83398 14.666 6.50098 27.999s8.5 25.166 14.5 35.499s15.5 19.666 28.5 27.999s27.833 12.5 44.5 12.5c18.667 0 35.834 -4.66699 51.5 -14c15.667 -9.33301 27.667 -19.5 36 -30.5
s18.333 -21.167 30 -30.5s23.834 -14 36.501 -14s22.834 6 30.501 18s12.167 24 13.5 36l2 18l49 -5c0 -3.34375 -0.333008 -7.67676 -1 -12.999c-0.672852 -5.33594 -2.83984 -14.6689 -6.5 -28c-3.66699 -13.3379 -8.66699 -25.1709 -15 -35.499
c-6.33301 -10.333 -16 -19.833 -29 -28.5s-28.167 -13 -45.5 -13c-18 0 -34.667 4.66699 -50 14c-15.334 9.33301 -27.167 19.5 -35.5 30.5s-18.5 21.167 -30.5 30.5s-24.333 14 -37 14s-22.834 -6 -30.501 -18s-12.167 -24 -13.5 -36z" />
    <glyph glyph-name="hungarumlaut" unicode="&#x2dd;" horiz-adv-x="570" 
d="M306 577l61 163h80l-81 -163h-60zM123 577l62 163h80l-82 -163h-60z" />
    <glyph glyph-name="Delta" unicode="&#x394;" horiz-adv-x="710" 
d="M353 614l-236 -545h472zM10 0l307 700h77l306 -700h-690z" />
    <glyph glyph-name="Delta" unicode="&#x2206;" horiz-adv-x="710" 
d="M353 614l-236 -545h472zM10 0l307 700h77l306 -700h-690z" />
    <glyph glyph-name="pi" unicode="&#x3c0;" horiz-adv-x="690" 
d="M20 448l0.000976562 61h640v-61h-155v-310c0 -53.333 24 -80 72 -80c12.667 0 24.667 1 36 3s19.666 4 24.999 6l8 3l14 -59c-19.333 -14 -51.333 -21 -96 -21c-41.334 0 -74.001 11.5 -98 34.5c-24 23 -36 56.833 -36 101.5v322h-220v-448h-75v448h-115z" />
    <glyph glyph-name="Wgrave" unicode="&#x1e80;" horiz-adv-x="985" 
d="M249 0l-239 700h85l194 -583l178 583h56l177 -583l195 583h80l-238 -700h-70l-175 559l-173 -559h-70zM443 920l79 -163h-61l-99 163h81z" />
    <glyph glyph-name="wgrave" unicode="&#x1e81;" horiz-adv-x="775" 
d="M188 0l-183 509h82l142 -406l132 406h57l131 -405l142 405h79l-184 -509h-71l-128 387l-128 -387h-71zM338 740l79 -163h-61l-99 163h81z" />
    <glyph glyph-name="Wacute" unicode="&#x1e82;" horiz-adv-x="985" 
d="M249 0l-239 700h85l194 -583l178 583h56l177 -583l195 583h80l-238 -700h-70l-175 559l-173 -559h-70zM472 757l79 163h81l-99 -163h-61z" />
    <glyph glyph-name="wacute" unicode="&#x1e83;" horiz-adv-x="775" 
d="M188 0l-183 509h82l142 -406l132 406h57l131 -405l142 405h79l-184 -509h-71l-128 387l-128 -387h-71zM367 577l79 163h81l-99 -163h-61z" />
    <glyph glyph-name="Wdieresis" unicode="&#x1e84;" horiz-adv-x="985" 
d="M249 0l-239 700h85l194 -583l178 583h56l177 -583l195 583h80l-238 -700h-70l-175 559l-173 -559h-70zM592 884c13.333 0 24.833 -4.66699 34.5 -14s14.5 -21 14.5 -35c0 -13.333 -4.83301 -24.833 -14.5 -34.5s-21.167 -14.5 -34.5 -14.5
c-14 0 -25.667 4.83301 -35 14.5s-14 21.167 -14 34.5s4.83301 24.833 14.5 34.5s21.167 14.5 34.5 14.5zM392 884c13.333 0 24.833 -4.66699 34.5 -14s14.5 -21 14.5 -35c0 -13.333 -4.83301 -24.833 -14.5 -34.5s-21.167 -14.5 -34.5 -14.5
c-14 0 -25.667 4.83301 -35 14.5s-14 21.167 -14 34.5s4.83301 24.833 14.5 34.5s21.167 14.5 34.5 14.5z" />
    <glyph glyph-name="wdieresis" unicode="&#x1e85;" horiz-adv-x="775" 
d="M188 0l-183 509h82l142 -406l132 406h57l131 -405l142 405h79l-184 -509h-71l-128 387l-128 -387h-71zM487 704c13.333 0 24.833 -4.66699 34.5 -14s14.5 -21 14.5 -35c0 -13.333 -4.83301 -24.833 -14.5 -34.5s-21.167 -14.5 -34.5 -14.5
c-14 0 -25.667 4.83301 -35 14.5s-14 21.167 -14 34.5s4.83301 24.833 14.5 34.5s21.167 14.5 34.5 14.5zM287 704c13.333 0 24.833 -4.66699 34.5 -14s14.5 -21 14.5 -35c0 -13.333 -4.83301 -24.833 -14.5 -34.5s-21.167 -14.5 -34.5 -14.5
c-14 0 -25.667 4.83301 -35 14.5s-14 21.167 -14 34.5s4.83301 24.833 14.5 34.5s21.167 14.5 34.5 14.5z" />
    <glyph glyph-name="uni1E9E" unicode="&#x1e9e;" horiz-adv-x="715" 
d="M620 605l-168.001 -169c62 -6.66699 113 -30.5 153 -71.5s60 -90.5 60 -148.5c0 -64.667 -23.667 -118.5 -71 -161.5s-107 -64.5 -179 -64.5c-18.667 0 -35.834 1 -51.5 3c-15.668 2 -26.835 3.66699 -33.5 5l-9 3l14 65c18.667 -6 42.667 -9 72 -9
c52.667 0 96 15.333 130 46s51 69 51 115s-17 84.5 -51 115.5s-77.333 46.5 -130 46.5h-44v48l161 159c-39.333 36 -90.666 54 -153.999 54c-59.333 0 -107.833 -20.5 -145.5 -61.5s-56.5 -94.833 -56.5 -161.5v-418h-78v413c0 87.333 26.5 158.666 79.5 213.999
s120.5 83 202.5 83c30 0 59 -3.66699 87 -11s51.333 -16 70 -26s35.167 -20.167 49.5 -30.5c14.333 -10.3379 24.833 -19.1709 31.5 -26.499z" />
    <glyph glyph-name="Ygrave" unicode="&#x1ef2;" horiz-adv-x="670" 
d="M297 0v280l-287 420h92l235 -349l236 349h87l-286 -420v-280h-77zM296 920l79 -163h-61l-99 163h81z" />
    <glyph glyph-name="ygrave" unicode="&#x1ef3;" horiz-adv-x="517" 
d="M221 2l-216 507h83l172 -424l172 424h80l-219 -514c-46.667 -110 -112 -165 -196 -165c-18.667 0 -35.667 1.83301 -51 5.5s-26 7.16699 -32 10.5l-9 6l24 60c14.667 -9.33301 36.667 -14 66 -14c52.667 0 94.667 34.667 126 104zM219 740l79 -163h-61l-99 163h81z" />
    <glyph glyph-name="endash" unicode="&#x2013;" horiz-adv-x="570" 
d="M520 324h-470v66h470v-66z" />
    <glyph glyph-name="emdash" unicode="&#x2014;" horiz-adv-x="900" 
d="M850 324h-800v66h800v-66z" />
    <glyph glyph-name="quoteleft" unicode="&#x2018;" horiz-adv-x="187" 
d="M86 700h61l-26 -240h-81z" />
    <glyph glyph-name="quoteright" unicode="&#x2019;" horiz-adv-x="187" 
d="M101 460h-61l26 240h81z" />
    <glyph glyph-name="quotesinglbase" unicode="&#x201a;" horiz-adv-x="187" 
d="M101 -130h-61l26 240h81z" />
    <glyph glyph-name="quotedblleft" unicode="&#x201c;" horiz-adv-x="349" 
d="M86 700h61l-26 -240h-81zM248 700h61l-26 -240h-81z" />
    <glyph glyph-name="quotedblright" unicode="&#x201d;" horiz-adv-x="349" 
d="M101 460h-61l26 240h81zM263 460h-61l26 240h81z" />
    <glyph glyph-name="quotedblbase" unicode="&#x201e;" horiz-adv-x="349" 
d="M101 -130h-61l26 240h81zM263 -130h-61l26 240h81z" />
    <glyph glyph-name="dagger" unicode="&#x2020;" horiz-adv-x="405" 
d="M365 510h-132v-250h-60v250h-133v54h133v136h60v-136h132v-54z" />
    <glyph glyph-name="daggerdbl" unicode="&#x2021;" horiz-adv-x="405" 
d="M365 510h-132v-170h132v-54h-132v-136h-60v136h-133v54h133v170h-133v54h133v136h60v-136h132v-54z" />
    <glyph glyph-name="bullet" unicode="&#x2022;" horiz-adv-x="333" 
d="M167 456c30.667 0 56.001 -10 76.001 -30s30 -45.333 30 -76c0 -30 -10.333 -55.167 -31 -75.5s-46.334 -30.5 -77.001 -30.5c-30 0 -55 10 -75 30s-30 45 -30 75c0 30.667 10.167 56.167 30.5 76.5s45.833 30.5 76.5 30.5z" />
    <glyph glyph-name="perthousand" unicode="&#x2030;" horiz-adv-x="1120" 
d="M106 465c0 -26.667 8.66699 -49 26 -67s39 -27 65 -27s47.5 8.83301 64.5 26.5s25.5 40.167 25.5 67.5c0 26.667 -8.5 48.834 -25.5 66.501s-38.5 26.5 -64.5 26.5s-47.667 -8.83301 -65 -26.5s-26 -39.834 -26 -66.501zM50 464c0 42 14 76.833 42 104.5
s63 41.5 105 41.5s77 -13.667 105 -41s42 -62 42 -104s-14 -76.833 -42 -104.5s-63 -41.5 -105 -41.5s-77 13.833 -105 41.5s-42 62.167 -42 103.5zM832 136c0 -26.667 8.66699 -48.834 26 -66.501s39 -26.5 65 -26.5s47.5 8.83301 64.5 26.5s25.5 39.834 25.5 66.501
s-8.5 48.834 -25.5 66.501s-38.5 26.5 -64.5 26.5s-47.667 -8.83301 -65 -26.5s-26 -39.834 -26 -66.501zM776 136c0 42 13.999 76.833 41.999 104.5s63 41.5 105 41.5s77 -13.833 105 -41.5s42 -62.5 42 -104.5c0 -41.333 -14.167 -76 -42.5 -104
c-28.335 -28 -63.168 -42 -104.499 -42c-42 0 -77 13.833 -105 41.5s-42 62.5 -42 104.5zM147.999 0l414 600h60l-414 -600h-60zM425.999 136c0 42 14 76.833 42 104.5s63 41.5 105 41.5s77 -13.833 105 -41.5s42 -62.5 42 -104.5c0 -41.333 -14.167 -76 -42.5 -104
c-28.335 -28 -63.168 -42 -104.5 -42c-42 0 -77 13.833 -105 41.5s-42 62.5 -42 104.5zM481.999 136c0 -26.667 8.66699 -48.834 26 -66.501s39 -26.5 65 -26.5s47.5 8.83301 64.5 26.5s25.5 39.834 25.5 66.501s-8.5 48.834 -25.5 66.501s-38.5 26.5 -64.5 26.5
s-47.667 -8.83301 -65 -26.5s-26 -39.834 -26 -66.501z" />
    <glyph glyph-name="guilsinglleft" unicode="&#x2039;" horiz-adv-x="433" 
d="M358 560l-223 -209l223 -208l-42 -45l-266 237v30l266 238z" />
    <glyph glyph-name="guilsinglright" unicode="&#x203a;" horiz-adv-x="433" 
d="M75 140l223 209l-223 208l42 45l266 -237v-30l-266 -238z" />
    <glyph glyph-name="fraction" unicode="&#x2044;" horiz-adv-x="190" 
d="M-190 0l512 700h58l-511 -700h-59z" />
    <glyph glyph-name="zerosuperior" unicode="&#x2070;" horiz-adv-x="386" 
d="M107 564v-148c0 -27.333 7.66699 -49.166 23 -65.499s36.333 -24.5 63 -24.5s47.5 8.16699 62.5 24.5c15 16.334 22.5 38.167 22.5 65.5v148c0 27.333 -7.5 49.166 -22.5 65.499s-35.833 24.5 -62.5 24.5s-47.667 -8.16699 -63 -24.5
c-15.333 -16.3359 -23 -38.1689 -23 -65.5zM50 418v140.999c0 44.668 13.5 80.335 40.5 107c27 26.667 61.5 40 103.5 40c42.667 0 77 -12.833 103 -38.5s39 -61.167 39 -106.5v-140c0 -44.667 -13.5 -80.334 -40.5 -107c-27 -26.667 -61.5 -40 -103.5 -40
c-42.667 0 -77 12.833 -103 38.5s-39 60.834 -39 105.501z" />
    <glyph glyph-name="foursuperior" unicode="&#x2074;" horiz-adv-x="376" 
d="M80 432h146v198zM30 434l194 266h56v-268h66v-46h-66v-106h-54v106h-196v48z" />
    <glyph glyph-name="fivesuperior" unicode="&#x2075;" horiz-adv-x="366" 
d="M56 465v234.999h249v-50h-197v-126c20.667 19.333 47 29 79 29c40 0 73.167 -12.833 99.5 -38.5s39.5 -57.5 39.5 -95.5c0 -41.333 -14.5 -75.833 -43.5 -103.5s-65.5 -41.5 -109.5 -41.5c-26.667 0 -51 5.33301 -73 16s-37.333 21.334 -46 32.001l-14 16l41 33
c2 -3.33301 5.16699 -7.5 9.5 -12.5s14.5 -11.667 30.5 -20s33.333 -12.5 52 -12.5c27.333 0 50.166 8.5 68.499 25.5s27.5 38.833 27.5 65.5c0 24.667 -8.66699 45.167 -26 61.5s-39.333 24.5 -66 24.5c-16.667 0 -31.167 -3.16699 -43.5 -9.5s-20.666 -12.333 -24.999 -18
s-6.5 -9.16699 -6.5 -10.5h-46z" />
    <glyph glyph-name="sixsuperior" unicode="&#x2076;" horiz-adv-x="381" 
d="M40 414c0 36 11.333 70.332 34 102.999l125 183h64l-111 -157c14.667 6.66699 31 10 49 10c38.667 0 71.667 -13 99 -39s41 -58 41 -96c0 -41.333 -14.667 -75.666 -44 -102.999s-65.333 -41 -108 -41c-42 0 -77.333 13.333 -106 40s-43 60 -43 100zM190 505.999
c-27.333 0 -49.665 -8.66699 -66.998 -26s-26 -38.666 -26 -63.999c0 -26 8.66699 -47.5 26 -64.5s39.666 -25.5 66.999 -25.5s49.666 8.5 66.999 25.5s26 38.5 26 64.5c0 25.334 -8.66699 46.667 -26 63.999c-17.334 17.333 -39.667 26 -67 26z" />
    <glyph glyph-name="sevensuperior" unicode="&#x2077;" horiz-adv-x="345" 
d="M62 280l185 369h-212v51h275v-41l-188 -379h-60z" />
    <glyph glyph-name="eightsuperior" unicode="&#x2078;" horiz-adv-x="381" 
d="M190 524c22.667 0 41.167 6.5 55.5 19.5s21.5 28.833 21.5 47.5c0 19.333 -7.16699 35.5 -21.5 48.5s-32.833 19.5 -55.5 19.5s-41.167 -6.5 -55.5 -19.5s-21.5 -29.167 -21.5 -48.5c0 -18.667 7.16699 -34.5 21.5 -47.5s32.833 -19.5 55.5 -19.5zM192 706
c37.333 0 68.5 -10.667 93.5 -32c25 -21.334 37.5 -47.667 37.5 -79c0 -39.333 -19.333 -69.333 -58 -90c50.667 -22.667 76 -57.667 76 -105c0 -36 -14.5 -66 -43.5 -90s-65.167 -36 -108.5 -36c-42.667 0 -78.167 11.833 -106.5 35.5s-42.5 53.5 -42.5 89.5
c0 22.667 6.66699 43.5 20 62.5s31.666 33.167 54.999 42.5c-38.667 20.667 -58 50.667 -58 90c0 31.333 12.833 57.833 38.5 79.5s57.834 32.5 96.501 32.5zM190 321c28 0 50.667 7.83203 68 23.499s26 34.5 26 56.5c0 22.667 -8.66699 41.834 -26 57.501
s-40 23.5 -68 23.5s-50.5 -7.83301 -67.5 -23.5s-25.5 -34.834 -25.5 -57.5c0 -22 8.5 -40.833 25.5 -56.5s39.5 -23.5 67.5 -23.5z" />
    <glyph glyph-name="ninesuperior" unicode="&#x2079;" horiz-adv-x="381" 
d="M341 566c0 -36 -11.333 -70.332 -34 -102.999l-125 -183h-64l111 157c-14.667 -6.66699 -31 -10 -49 -10c-38.667 0 -71.667 13 -99 39s-41 58 -41 96c0 41.333 14.667 75.666 44 102.999s65.333 41 108 41c42 0 77.333 -13.333 106 -40s43 -60 43 -100zM191 474.001
c27.333 0 49.667 8.66699 67 26s26 38.666 26 63.999c0 26 -8.66699 47.5 -26 64.5c-17.334 17 -39.667 25.5 -67 25.5s-49.666 -8.5 -66.999 -25.5s-26 -38.5 -26 -64.5c0 -25.334 8.66699 -46.667 26 -63.999c17.333 -17.333 39.666 -26 66.999 -26z" />
    <glyph glyph-name="zeroinferior" unicode="&#x2080;" horiz-adv-x="386" 
d="M107 284v-148c0 -27.333 7.66699 -49.166 23 -65.499s36.333 -24.5 63 -24.5s47.5 8.16699 62.5 24.5s22.5 38.166 22.5 65.499v148c0 27.333 -7.5 49.166 -22.5 65.499s-35.833 24.5 -62.5 24.5s-47.667 -8.16699 -63 -24.5s-23 -38.166 -23 -65.499zM50 138v140.999
c0 44.667 13.5 80.334 40.5 107.001s61.5 40 103.5 40c42.667 0 77 -12.833 103 -38.5s39 -61.167 39 -106.5v-140c0 -44.667 -13.5 -80.334 -40.5 -107.001s-61.5 -40 -103.5 -40c-42.667 0 -77 12.833 -103 38.5s-39 60.834 -39 105.501z" />
    <glyph glyph-name="oneinferior" unicode="&#x2081;" horiz-adv-x="279" 
d="M30 316l142 104h47v-420h-57v348l-101 -71z" />
    <glyph glyph-name="twoinferior" unicode="&#x2082;" horiz-adv-x="353" 
d="M42 43l157.998 154.999c37.333 37.333 56 72.333 56 105c0 19.333 -7.5 36 -22.5 50s-33.5 21 -55.5 21c-19.333 0 -36.666 -4.66699 -51.999 -14s-26 -18.666 -32 -27.999l-8 -15l-46 25c1.33301 2 3 5 5 9s7 10.833 15 20.5s17 18.167 27 25.5s23.333 14 40 20
s34.667 9 54 9c38 0 69.5 -11.167 94.5 -33.5s37.5 -50.833 37.5 -85.5c0 -24.667 -5.66699 -47.5 -17 -68.5s-29.666 -44.167 -54.999 -69.5l-122 -119h191v-50h-268v43z" />
    <glyph glyph-name="threeinferior" unicode="&#x2083;" horiz-adv-x="344" 
d="M112 242l42.002 -0.00195312c25.333 0 45.166 6.16699 59.499 18.5s21.5 28.5 21.5 48.5s-7.16699 36.167 -21.5 48.5s-33.833 18.5 -58.5 18.5c-16.667 0 -31.5 -3.33301 -44.5 -10c-13 -6.66797 -21.833 -13.335 -26.5 -20l-6 -9l-43 24c0.666992 2 2 4.33301 4 7
s6.66699 7.83398 14 15.501s15.333 14.334 24 20.001s20.167 10.834 34.5 15.501s29.833 7 46.5 7c39.333 0 71.5 -10.333 96.5 -31s37.5 -46.667 37.5 -78c0 -43.333 -21 -75.666 -63 -96.999c23.333 -10 41.666 -24.333 54.999 -43s20 -39.667 20 -63
c0 -34.667 -14.167 -63.334 -42.5 -86.001s-63.833 -34 -106.5 -34c-28 0 -53.167 5.66699 -75.5 17s-37.833 22.666 -46.5 33.999l-13 17l43 27c2 -3.33301 5.16699 -7.5 9.5 -12.5s14.333 -11.667 30 -20s33.167 -12.5 52.5 -12.5c27.333 0 49.5 7 66.5 21
s25.5 32 25.5 54s-8.5 40.333 -25.5 55s-40.167 22 -69.5 22h-40v46z" />
    <glyph glyph-name="fourinferior" unicode="&#x2084;" horiz-adv-x="376" 
d="M80 152h146v198zM30 154l194 266h56v-268h66v-46h-66v-106h-54v106h-196v48z" />
    <glyph glyph-name="fiveinferior" unicode="&#x2085;" horiz-adv-x="366" 
d="M56 185v234.999h249v-50h-197v-126c20.667 19.333 47 29 79 29c40 0 73.167 -12.833 99.5 -38.5s39.5 -57.5 39.5 -95.5c0 -41.333 -14.5 -75.833 -43.5 -103.5s-65.5 -41.5 -109.5 -41.5c-26.667 0 -51 5.33301 -73 16s-37.333 21.334 -46 32.001l-14 16l41 33
c2 -3.33301 5.16699 -7.5 9.5 -12.5s14.5 -11.667 30.5 -20s33.333 -12.5 52 -12.5c27.333 0 50.166 8.5 68.499 25.5s27.5 38.833 27.5 65.5c0 24.667 -8.66699 45.167 -26 61.5s-39.333 24.5 -66 24.5c-16.667 0 -31.167 -3.16699 -43.5 -9.5s-20.666 -12.333 -24.999 -18
s-6.5 -9.16699 -6.5 -10.5h-46z" />
    <glyph glyph-name="sixinferior" unicode="&#x2086;" horiz-adv-x="381" 
d="M40 134c0 36 11.333 70.332 34 102.999l125 183h64l-111 -157c14.667 6.66699 31 10 49 10c38.667 0 71.667 -13 99 -39s41 -58 41 -96c0 -41.333 -14.667 -75.666 -44 -102.999s-65.333 -41 -108 -41c-42 0 -77.333 13.333 -106 40s-43 60 -43 100zM190 225.999
c-27.333 0 -49.665 -8.66602 -66.998 -25.999c-17.333 -17.334 -26 -38.667 -26 -64c0 -26 8.66699 -47.5 26 -64.5s39.666 -25.5 66.999 -25.5s49.666 8.5 66.999 25.5s26 38.5 26 64.5c0 25.333 -8.66699 46.666 -26 63.999c-17.334 17.333 -39.667 26 -67 26z" />
    <glyph glyph-name="seveninferior" unicode="&#x2087;" horiz-adv-x="345" 
d="M62 0l185 369h-212v51h275v-41l-188 -379h-60z" />
    <glyph glyph-name="eightinferior" unicode="&#x2088;" horiz-adv-x="381" 
d="M190 244c22.667 0 41.167 6.5 55.5 19.5s21.5 28.833 21.5 47.5c0 19.333 -7.16699 35.5 -21.5 48.5s-32.833 19.5 -55.5 19.5s-41.167 -6.5 -55.5 -19.5s-21.5 -29.167 -21.5 -48.5c0 -18.667 7.16699 -34.5 21.5 -47.5s32.833 -19.5 55.5 -19.5zM192 426
c37.333 0 68.5 -10.668 93.5 -32.001s37.5 -47.666 37.5 -78.999c0 -39.333 -19.333 -69.333 -58 -90c50.667 -22.667 76 -57.667 76 -105c0 -36 -14.5 -66 -43.5 -90s-65.167 -36 -108.5 -36c-42.667 0 -78.167 11.833 -106.5 35.5s-42.5 53.5 -42.5 89.5
c0 22.667 6.66699 43.5 20 62.5s31.666 33.167 54.999 42.5c-38.667 20.667 -58 50.667 -58 90c0 31.333 12.833 57.833 38.5 79.5s57.834 32.5 96.501 32.5zM190 40.999c28 0 50.667 7.83301 68 23.5s26 34.5 26 56.5c0 22.667 -8.66699 41.834 -26 57.501
s-40 23.5 -68 23.5s-50.5 -7.83301 -67.5 -23.5s-25.5 -34.834 -25.5 -57.501c0 -22 8.5 -40.833 25.5 -56.5s39.5 -23.5 67.5 -23.5z" />
    <glyph glyph-name="nineinferior" unicode="&#x2089;" horiz-adv-x="381" 
d="M341 286c0 -36 -11.333 -70.333 -34 -103l-125 -183h-64l111 157c-14.667 -6.66699 -31 -10 -49 -10c-38.667 0 -71.667 13 -99 39s-41 58 -41 96c0 41.334 14.667 75.667 44 103s65.333 41 108 41c42 0 77.333 -13.333 106 -40s43 -60 43 -100zM191 194
c27.333 0 49.667 8.66699 67 26s26 38.666 26 63.999c0 26 -8.66699 47.5 -26 64.5c-17.334 17 -39.667 25.5 -67 25.5s-49.666 -8.5 -66.999 -25.5s-26 -38.5 -26 -64.5c0 -25.333 8.66699 -46.666 26 -63.999s39.666 -26 66.999 -26z" />
    <glyph glyph-name="Euro" unicode="&#x20ac;" 
d="M470 253l-255.997 -0.00683594v-27c0 -49.333 14.333 -88.666 43 -117.999s66.334 -44 113.001 -44c20.667 0 39.5 2.66699 56.5 8s30.333 11.833 40 19.5s18 15.334 25 23.001s11.833 14.167 14.5 19.5l3 8l61 -30c-1.35059 -3.33301 -3.18359 -7.5 -5.5 -12.5
c-2.33301 -5 -8.83301 -14.167 -19.5 -27.5s-22.834 -25.166 -36.501 -35.499c-13.668 -10.333 -32.835 -19.666 -57.501 -27.999c-24.667 -8.33301 -51.667 -12.5 -81 -12.5c-68.667 0 -124.167 20.667 -166.5 62s-63.5 98.333 -63.5 171v24h-95v47h95v112h-95v47h95v20
c0 73.333 21.667 131.166 65 173.499s99.333 63.5 168 63.5c29.334 0 56.167 -3.83301 80.5 -11.5s43.5 -17.167 57.5 -28.5c14 -11.3379 25.667 -22.6709 35 -33.999c9.33301 -11.3379 15.666 -20.6709 18.999 -27.999l5 -12l-61 -32
c-0.682617 2 -1.84961 4.83301 -3.50098 8.5c-1.66699 3.66699 -6.16699 10 -13.5 19s-15.833 16.833 -25.5 23.5c-9.66699 6.67676 -23 12.8438 -40 18.501c-17 5.66699 -35.833 8.5 -56.5 8.5c-46.667 0 -84.334 -14.667 -113 -44
c-28.667 -29.334 -43 -68.667 -43 -117.999v-27h276v-47h-276v-112h256v-47z" />
    <glyph glyph-name="trademark" unicode="&#x2122;" horiz-adv-x="776" 
d="M538 440l-99 174v-229h-53v315h56l110 -195l111 195h53v-315h-53v228l-99 -173h-26zM320 653h-103v-268h-53v268h-104v47h260v-47z" />
    <glyph glyph-name="minus" unicode="&#x2212;" 
d="M555 324h-505v66h505v-66z" />
    <glyph glyph-name="fi" unicode="&#xfb01;" horiz-adv-x="662" 
d="M200 529v-50h195v-60h-195v-419h-75v419h-105v60h105v53c0 57.333 15 101.333 45 132s71.667 46 125 46c22 0 42.167 -1.66699 60.5 -5c18.335 -3.33887 31.168 -6.67188 38.5 -10l11 -5l-11 -60c-22 10.667 -50.667 16 -86 16c-34 0 -60.5 -10 -79.5 -30
s-28.5 -49 -28.5 -87zM500 0v509h77v-509h-77zM538 709c15.333 0 28.166 -4.99902 38.499 -14.999s15.5 -22.667 15.5 -38c0 -15.3359 -5.16699 -28.1689 -15.5 -38.5c-10.334 -10.333 -23.167 -15.5 -38.499 -15.5c-15.333 0 -28 5.16699 -38 15.5s-15 23.166 -15 38.499
s5 28 15 38s22.667 15 38 15z" />
    <glyph glyph-name="fl" unicode="&#xfb02;" horiz-adv-x="662" 
d="M200 529v-50h195v-60h-195v-419h-75v419h-105v60h105v53c0 57.333 15 101.333 45 132s71.667 46 125 46c22 0 42.167 -1.66699 60.5 -5c18.335 -3.33887 31.168 -6.67188 38.5 -10l11 -5l-11 -60c-22 10.667 -50.667 16 -86 16c-34 0 -60.5 -10 -79.5 -30
s-28.5 -49 -28.5 -87zM500 0v700h77v-700h-77z" />
    <glyph glyph-name=".null" horiz-adv-x="0" 
 />
    <glyph glyph-name="nonmarkingreturn" horiz-adv-x="333" 
 />
    <glyph glyph-name="one.onum" horiz-adv-x="430" 
d="M25 473l237 167h58v-640h-73v548l-183 -126z" />
    <glyph glyph-name="two.onum" horiz-adv-x="519" 
d="M49 53l255.998 245.999c31.333 30 53.333 57 66 81s19 49.333 19 76c0 37.333 -12.833 68 -38.5 92s-57.167 36 -94.5 36c-21.333 0 -41.333 -3.5 -60 -10.5s-33.5 -15.333 -44.5 -25s-20.5 -19.334 -28.5 -29.001s-13.333 -18.167 -16 -25.5l-5 -10l-58 26
c1.33301 4 3.5 9.16699 6.5 15.5s10.333 17.5 22 33.5s24.834 30.167 39.501 42.5s35.5 23.5 62.5 33.5s56.167 15 87.5 15c56.667 0 104.334 -17.667 143.001 -53s58 -80 58 -134c0 -37.333 -8.83301 -71.666 -26.5 -102.999s-46.834 -66.666 -87.5 -105.999l-197 -190h306
v-64h-410v53z" />
    <glyph glyph-name="three.onum" horiz-adv-x="518" 
d="M170 362l64.999 -0.00292969c42.667 0 76.5 10.5 101.5 31.5s37.5 48.167 37.5 81.5s-12.333 60.333 -37 81s-57.334 31 -98 31c-17.333 0 -33.5 -2.5 -48.5 -7.5s-27 -10.833 -36 -17.5s-16.667 -13.5 -23 -20.5s-10.833 -12.833 -13.5 -17.5l-4 -8l-59 26
c1.33301 2.66699 3.33301 6.5 6 11.5s9.33398 13.667 20.001 26s22.5 23.333 35.5 33c13 9.67188 30.667 18.3389 53 26.001c22.333 7.66699 46.5 11.5 72.5 11.5c60 0 109.333 -15.5 148 -46.5s58 -71.5 58 -121.5c0 -33.333 -9.66699 -62.666 -29 -87.999
s-45.666 -44.666 -78.999 -57.999c39.333 -12.667 70.5 -33.167 93.5 -61.5s34.5 -61.5 34.5 -99.5c0 -54 -22 -98.333 -66 -133s-99 -52 -165 -52c-28.667 0 -55.334 4 -80.001 12s-44.334 17.5 -59.001 28.5s-27.5 22.167 -38.5 33.5s-18.833 21 -23.5 29l-6 12l59 30
c1.33398 -2 3.16699 -4.83301 5.5 -8.5s7.83301 -10.167 16.5 -19.5s18.167 -17.5 28.5 -24.5s24.333 -13.5 42 -19.5s36.5 -9 56.5 -9c46.667 0 84.334 11.667 113.001 35s43 53.333 43 90s-14.833 67 -44.5 91s-68.5 36 -116.5 36h-63v56z" />
    <glyph glyph-name="four.onum" horiz-adv-x="565" 
d="M102 216h254v332zM37 218l318 422h72v-424h100v-57h-100v-159h-71v159h-319v59z" />
    <glyph glyph-name="five.onum" horiz-adv-x="542" 
d="M77 291v349.003h380v-64h-314v-204c34 32.667 77.667 49 131 49c62.667 0 114.667 -19.5 156 -58.5s62 -88.167 62 -147.5c0 -65.333 -22.667 -119.166 -68 -161.499s-101.666 -63.5 -168.999 -63.5c-26 0 -51 3.5 -75 10.5s-43.5 15.667 -58.5 26
s-28.167 20.666 -39.5 30.999s-19.333 19.166 -24 26.499l-8 10l55 38c1.33301 -2 3.33301 -4.83301 6 -8.5s8.5 -9.83398 17.5 -18.501s18.833 -16.334 29.5 -23.001s24.667 -12.834 42 -18.501s35.666 -8.5 54.999 -8.5c47.333 0 86.333 14.5 117 43.5s46 66.5 46 112.5
c0 42.667 -14.833 78 -44.5 106s-67.167 42 -112.5 42c-27.333 0 -51.333 -5.66699 -72 -17s-34.667 -22.666 -42 -33.999l-11 -17h-59z" />
    <glyph glyph-name="six.onum" horiz-adv-x="565" 
d="M283 58c46 0 84 14.333 114 43s45 65.334 45 110.001s-15 81.334 -45 110.001s-68 43 -114 43s-84 -14.333 -114 -43s-45 -65.334 -45 -110.001s15 -81.334 45 -110.001s68 -43 114 -43zM109 372l195.999 268h84l-181 -238c26.667 15.333 57 23 91 23
c60.667 0 111.834 -19.833 153.501 -59.5s62.5 -90.167 62.5 -151.5c0 -64 -22.667 -117.333 -68 -160s-100.666 -64 -165.999 -64c-64.667 0 -119.334 20.833 -164.001 62.5s-67 94.167 -67 157.5c0 54 19.667 108 59 162z" />
    <glyph glyph-name="seven.onum" horiz-adv-x="490" 
d="M103 0l275 575h-348v65h430v-49l-278 -591h-79z" />
    <glyph glyph-name="eight.onum" horiz-adv-x="565" 
d="M283 369c38 0 69.333 10.667 94 32s37 47.333 37 78s-12.333 56.5 -37 77.5s-56 31.5 -94 31.5s-69.333 -10.5 -94 -31.5s-37 -46.833 -37 -77.5s12.333 -56.667 37 -78s56 -32 94 -32zM284 650c58.667 0 107.164 -15.668 145.497 -47.001s57.5 -71 57.5 -119
c0 -29.333 -8.66699 -56.5 -26 -81.5s-40.666 -44.5 -69.999 -58.5c38 -14 68.167 -35.167 90.5 -63.5s33.5 -60.833 33.5 -97.5c0 -56 -22.167 -102.167 -66.5 -138.5s-100.166 -54.5 -167.499 -54.5s-122.666 17.667 -165.999 53s-65 81 -65 137
c0 36.667 11.333 69.334 34 98.001s53 50 91 64c-30 13.333 -53.5 32.333 -70.5 57s-25.5 52 -25.5 82c0 48 19.5 88.167 58.5 120.5s87.833 48.5 146.5 48.5zM282.997 51.999c46.667 0 84.832 12.333 114.499 37s44.5 56 44.5 94s-15 69.5 -45 94.5s-68 37.5 -114 37.5
s-84 -12.5 -114 -37.5s-45 -56.5 -45 -94.5s14.833 -69.333 44.5 -94s67.834 -37 114.501 -37z" />
    <glyph glyph-name="nine.onum" horiz-adv-x="565" 
d="M282 582c-46 0 -84 -14.335 -114 -43.002s-45 -65.334 -45 -110c0 -44.667 15 -81.334 45 -110c30 -28.667 68 -43 114 -43s84 14.333 114 43s45 65.334 45 110.001s-15 81.334 -45 110.001s-68 43 -114 43zM456 267.998l-195.999 -267.999h-84l181 238
c-26.667 -15.333 -57 -23 -91 -23c-60.667 0 -111.834 19.833 -153.501 59.5s-62.5 90.167 -62.5 151.5c0 64 22.667 117.333 68 159.999c45.333 42.667 100.666 64 165.999 64c64.667 0 119.334 -20.833 164.001 -62.5s67 -94.167 67 -157.5c0 -54 -19.667 -108 -59 -162z
" />
    <glyph glyph-name="zero.onum" horiz-adv-x="565" 
d="M136 430l-0.000976562 -220c0 -46.667 13.333 -83.667 40 -111s62 -41 106 -41c44.667 0 80.334 13.667 107.001 41s40 64.333 40 111v220c0 46.667 -13.333 83.667 -40 111s-62.334 41 -107 41c-44 0 -79.333 -13.667 -106 -41c-26.667 -27.334 -40 -64.334 -40 -111z
M61.999 216v205c0 70.667 20.667 126.5 62 167.5s94.666 61.5 159.999 61.5s118 -19.833 158 -59.5s60 -95.167 60 -166.5v-205c0 -71.333 -20.5 -127.333 -61.5 -168s-94.167 -61 -159.5 -61s-118.166 20 -158.499 60s-60.5 95.333 -60.5 166z" />
    <glyph glyph-name="numbersign.onum" horiz-adv-x="595" 
d="M239 358l-33 -156h150l33 156h-150zM313 0l32 153h-150l-32 -153h-55l32 153h-105v49h116l33 156h-109v49h120l33 153h55l-33 -153h150l33 153h55l-33 -153h105v-49h-116l-33 -156h109v-49h-120l-32 -153h-55z" />
    <glyph glyph-name="cent.onum" horiz-adv-x="524" 
d="M268 51l-0.00292969 92.999c-64 7.33301 -117.167 34.5 -159.5 81.5s-63.5 103.167 -63.5 168.5c0 64.667 21.167 120.667 63.5 168s95.5 75.333 159.5 84v94h52v-92c34 -1.33301 65.167 -8.5 93.5 -21.5s47.833 -25.5 58.5 -37.5l17 -18l-49 -47
c-3.33301 4 -8.16602 9.33301 -14.499 16c-6.33301 6.6709 -21.333 15.3379 -45 26c-23.667 10.667 -49.167 16 -76.5 16c-52 0 -95.833 -18 -131.5 -54s-53.5 -80.333 -53.5 -133s17.833 -97 53.5 -133s79.5 -54 131.5 -54c29.334 0 55.667 5.33301 79 16
s39.333 21.334 48 32.001l13 17l50 -45c-1.33301 -2 -3.5 -4.83301 -6.5 -8.5s-9.66699 -10.167 -20 -19.5c-10.333 -9.33398 -21.666 -17.667 -33.999 -25c-12.333 -7.33398 -28.666 -14.167 -48.999 -20.5c-20.333 -6.33398 -41.833 -10.167 -64.5 -11.5v-92h-52z" />
    <glyph glyph-name="dollar.onum" horiz-adv-x="500" 
d="M233 303c-112 46.667 -168.002 108 -168.002 184c0 43.333 15.667 79.666 47 108.999s71.333 46.333 120 51v93h52v-93c22 -2 43 -6.83301 63 -14.5s36.167 -16.167 48.5 -25.5c12.335 -9.33301 23.168 -18.5 32.5 -27.5c9.33301 -9 16 -16.5 20 -22.5l6 -9l-54 -36
c-1.33301 2 -3.16602 4.66699 -5.49902 8s-7.83301 9.33301 -16.5 18c-8.66699 8.6709 -18 16.3379 -28 23c-10 6.66699 -23.333 12.667 -40 18s-34 8 -52 8c-37.333 0 -66.666 -9 -87.999 -27s-32 -39.667 -32 -65c0 -28.667 10.667 -53 32 -73s55.333 -39.667 102 -59
c122 -50.667 183 -116.667 183 -198c0 -46 -15.833 -84.667 -47.5 -116s-72.834 -50 -123.501 -56v-93h-52v92c-26 2 -50.667 7.33301 -74 16s-42.166 18.5 -56.499 29.5s-26.833 22 -37.5 33s-18 20.167 -22 27.5l-7 12l55 35c1.33301 -2.66699 3.5 -6 6.5 -10
s9.5 -11.333 19.5 -22s20.833 -20 32.5 -28s27.167 -15.333 46.5 -22s39.333 -10 60 -10c38 0 68.5 9.66699 91.5 29s34.5 44 34.5 74c0 32 -11 58.833 -33 80.5s-60.333 43.834 -115 66.501z" />
    <glyph glyph-name="sterling.onum" horiz-adv-x="563" 
d="M505 0l-375.001 0.000976562v292h-95v51h95v88c0 68 19.667 121.5 59 160.5s90.333 58.5 153 58.5c27.333 0 52.333 -3.83301 75 -11.5s40.5 -16.834 53.5 -27.501s24.167 -21.334 33.5 -32.001s15.666 -19.667 18.999 -27l5 -12l-61 -35
c-0.666992 2 -1.66699 4.83301 -3 8.5c-1.33301 3.66895 -5.16602 9.83594 -11.499 18.501c-6.33301 8.6709 -13.666 16.3379 -21.999 23c-8.33301 6.6709 -20.5 12.8379 -36.5 18.5c-16 5.66699 -34 8.5 -54 8.5c-40.667 0 -73.5 -12.833 -98.5 -38.5
s-37.5 -60.167 -37.5 -103.5v-97h216v-51h-216v-228h301v-64z" />
    <glyph glyph-name="Euro.onum" horiz-adv-x="575" 
d="M440 223l-238.002 0.00292969v-16c0 -47.333 13.5 -84.666 40.5 -111.999s62.833 -41 107.5 -41c19.334 0 37.167 2.66699 53.5 8s28.833 11.666 37.5 18.999s16.167 14.666 22.5 21.999c6.33301 7.33398 10.5 13.667 12.5 19l3 8l61 -27
c-1.34961 -3.33301 -3.18262 -7.5 -5.5 -12.5c-2.33301 -5 -8.33301 -14 -18 -27s-21 -24.5 -34 -34.5s-31.5 -19 -55.5 -27s-50.333 -12 -79 -12c-65.333 0 -118 19.667 -158 59s-60 93.666 -60 162.999v11h-95v46h95v102h-95v46h95v8c0 69.333 20.5 124.166 61.5 164.499
s94.167 60.5 159.5 60.5c28.667 0 54.834 -3.83301 78.501 -11.5s42 -17 55 -28s24 -22 33 -33s15.167 -20.167 18.5 -27.5l4 -12l-61 -28c-0.666992 2 -1.66699 4.66699 -3 8s-5.33301 9.5 -12 18.5c-6.66797 9 -14.335 16.833 -23 23.5
c-8.66699 6.66699 -21.167 12.667 -37.5 18s-34.166 8 -53.499 8c-44.667 0 -80.5 -13.833 -107.5 -41.5s-40.5 -65.167 -40.5 -112.5v-15h258v-46h-258v-102h238v-46z" />
    <glyph glyph-name="yen.onum" horiz-adv-x="608" 
d="M267 0v147h-222v48h222v90l-8 12h-214v48h183l-203 295h91l190 -290l190 290h87l-203 -295h183v-48h-214l-7 -12v-90h221v-48h-221v-147h-75z" />
    <glyph glyph-name="florin.onum" horiz-adv-x="575" 
d="M205 -160h-73.0029l35 417h-132v52h136l13 142c5.33301 63.333 24.833 112.333 58.5 147s77.167 52 130.5 52c25.333 0 48.333 -4 69 -12s36.834 -17.667 48.501 -29s21.5 -22.5 29.5 -33.5s13.333 -20.5 16 -28.5l4 -12l-58 -32c-0.666992 2 -1.5 4.83301 -2.5 8.5
s-4 10 -9 19s-11 17 -18 24s-17.5 13.333 -31.5 19s-29.667 8.5 -47 8.5c-33.333 0 -60.166 -11 -80.499 -33s-32.166 -53.333 -35.499 -94l-13 -146h207v-52h-211z" />
    <glyph glyph-name="percent.onum" horiz-adv-x="770" 
d="M50 425c0 40.667 14.1689 75 42.502 103s63.166 42 104.499 42s75.666 -13.667 102.999 -41s41 -61.333 41 -102s-14 -75 -42 -103s-62.667 -42 -104 -42s-75.833 13.667 -103.5 41s-41.5 61.333 -41.5 102zM106.002 426c0 -26.667 8.5 -48.667 25.5 -66
s38.5 -26 64.5 -26c25.333 0 46.5 8.66699 63.5 26s25.5 39.333 25.5 66s-8.5 48.667 -25.5 66s-38.167 26 -63.5 26c-26 0 -47.5 -8.66699 -64.5 -26s-25.5 -39.333 -25.5 -66zM428.002 133c0 40.667 14.168 74.833 42.501 102.5s63.166 41.5 104.499 41.5
s75.833 -13.5 103.5 -40.5s41.5 -60.833 41.5 -101.5c0 -41.333 -14.167 -75.833 -42.5 -103.5c-28.335 -27.667 -63.168 -41.5 -104.5 -41.5c-41.333 0 -75.833 13.5 -103.5 40.5s-41.5 61.167 -41.5 102.5zM484.003 133.999c0 -26.667 8.49902 -48.667 25.499 -66
s38.5 -26 64.5 -26s47.5 8.66699 64.5 26s25.5 39.333 25.5 66s-8.5 48.5 -25.5 65.5s-38.5 25.5 -64.5 25.5c-25.335 0 -46.668 -8.5 -63.999 -25.5c-17.333 -17 -26 -38.833 -26 -65.5zM148.002 -0.000976562l414 560h60l-414 -560h-60z" />
    <glyph glyph-name="perthousand.onum" horiz-adv-x="1120" 
d="M834 134c0 -26.667 8.5 -48.667 25.5 -66s38.5 -26 64.5 -26s47.5 8.66699 64.5 26s25.5 39.333 25.5 66s-8.5 48.5 -25.5 65.5s-38.5 25.5 -64.5 25.5c-25.3369 0 -46.6699 -8.5 -64 -25.5c-17.333 -17 -26 -38.833 -26 -65.5zM778 133
c0 40.667 14.167 74.833 42.5 102.5s63.166 41.5 104.499 41.5s75.833 -13.5 103.5 -40.5s41.5 -60.833 41.5 -101.5c0 -41.333 -14.167 -75.833 -42.5 -103.5c-28.335 -27.667 -63.168 -41.5 -104.499 -41.5c-41.333 0 -75.833 13.5 -103.5 40.5s-41.5 61.167 -41.5 102.5z
M50 424.999c0 40.667 14.1689 75 42.502 103s63.166 42 104.499 42s75.666 -13.667 102.999 -41s41 -61.333 41 -102s-14 -75 -42 -103s-62.667 -42 -104 -42s-75.833 13.667 -103.5 41s-41.5 61.333 -41.5 102zM106.002 425.999c0 -26.667 8.5 -48.667 25.5 -66
s38.5 -26 64.5 -26c25.333 0 46.5 8.66699 63.5 26s25.5 39.333 25.5 66s-8.5 48.667 -25.5 66s-38.167 26 -63.5 26c-26 0 -47.5 -8.66699 -64.5 -26s-25.5 -39.333 -25.5 -66zM428.002 132.999c0 40.667 14.168 74.833 42.501 102.5s63.166 41.5 104.499 41.5
s75.833 -13.5 103.5 -40.5s41.5 -60.833 41.5 -101.5c0 -41.333 -14.167 -75.833 -42.5 -103.5c-28.335 -27.667 -63.168 -41.5 -104.5 -41.5c-41.333 0 -75.833 13.5 -103.5 40.5s-41.5 61.167 -41.5 102.5zM484.003 133.998c0 -26.667 8.49902 -48.667 25.499 -66
s38.5 -26 64.5 -26s47.5 8.66699 64.5 26s25.5 39.333 25.5 66s-8.5 48.5 -25.5 65.5s-38.5 25.5 -64.5 25.5c-25.335 0 -46.668 -8.5 -63.999 -25.5c-17.333 -17 -26 -38.833 -26 -65.5zM148.002 -0.00195312l414 560h60l-414 -560h-60z" />
    <glyph glyph-name="one.lnum" 
d="M556 0h-467v63h211v544l-187 -128l-38 51l240 170h60v-637h181v-63z" />
    <glyph glyph-name="two.lnum" 
d="M74 54l267.001 261c38 37.333 64.667 70 80 98s23 57.333 23 88c0 40 -14.5 73.5 -43.5 100.5s-65.5 40.5 -109.5 40.5c-22 0 -42.667 -3.5 -62 -10.5s-35 -15.667 -47 -26c-12 -10.3379 -22.333 -20.6709 -31 -31c-8.66699 -10.334 -15 -19.167 -19 -26.499l-5 -10
l-57 32c1.33398 4 3.66699 9.16699 7 15.5s11.166 17.5 23.499 33.5s26.333 30.167 42 42.5s37.334 23.5 65.001 33.5s57.5 15 89.5 15c63.333 0 116.166 -19.333 158.499 -58s63.5 -86.334 63.5 -143.001c0 -42.667 -10.167 -82 -30.5 -118s-53.5 -76.667 -99.5 -122
l-208 -204h333v-65h-440v54z" />
    </font>
</defs>
</svg>
