<svg width="94.284" height="10.907" version="1.1" xmlns="http://www.w3.org/2000/svg">
  <symbol id="logo" viewBox="0 0 94.284 10.907">
    <g transform="translate(-384.62 -186.2)">
      <g transform="translate(-1.5155e-4,5.0931)" stroke-width="4.5915">
        <g transform="matrix(.0057625 0 0 .0057625 360.35 189.4)">
          <g id="l2ip5eqsk8HguzMEC7h2jKZ" transform="translate(-400.05,-4728.8)" fill="currentColor" stroke-width="21.082">
            <g stroke-width="4.5915">
              <path id="pcPlQFAnM" d="m4973 5124c-66-70-120-142-158-206l-27-48h9c4 0 54 9 109 19l102 20 93 32c96 32 202 82 271 125l38 24v29l-32 5c-18 3-94 15-168 26s-145 23-158 27l-24 6z"/>
              <path d="m7029 5121c66-70 120-142 158-206l27-48h-9c-4 0-54 9-109 19l-102 20-93 32c-96 32-202 82-271 125l-38 24v29l32 5c18 3 94 15 168 26s145 23 158 27l24 6z"/>
              <path id="pgO8AJyNE" d="m5566 5054c10-99 33-223 65-344l30-115 50-127c70-177 199-421 282-532l15-20 47 74c157 245 268 498 334 759l30 120 16 117c9 64 15 117 13 119-2 1-79-2-173-7l-170-9-245 6c-134 3-257 9-272 12l-28 6z"/>
              <path id="p17xSdQscR" d="m5330 4848c-52-27-112-53-132-60l-38-11v-31c0-73 73-436 87-436 15 0 163 103 247 173l30 24-29 99c-16 54-38 142-49 194l-21 96z"/>
              <path id="p0YP29dg" d="m6549 4840c-14-73-44-190-68-267l-19-61 32-30c30-29 153-120 210-156l28-18 8 9c16 17 64 249 85 409l6 50-40 13c-23 6-83 33-136 59l-94 48z"/>
              <path d="m6905 5169c-16-5-79-16-140-25-60-8-120-17-133-20l-23-5 6-42 99-53 99-52 96-31c53-17 132-38 176-46 44-9 90-18 103-21l23-5-17 33c-25 48-113 165-170 226l-50 52-20-1c-10 0-32-5-49-10z"/>
            </g>
          </g>
        </g>
        <g transform="matrix(.0057625 0 0 .0057625 358.04 162.15)">
          <g id="l5pJT0tpyrTDvUFfp1w7XeC" fill="#40356f" stroke-width="21.082">
            <g stroke-width="4.5915">
              <path id="p13eILZogJ" d="m4890 4690c-52-10-116-19-142-19l-47-1-21-67c-29-95-59-273-66-400-6-124 5-160 66-201 33-23 40-24 145-18 61 3 144 12 186 19l76 14 21-107c48-241 93-330 176-346 32-5 51-1 109 27 39 19 104 55 144 82 41 26 77 47 82 47 4 0 30-37 56-81 60-101 150-223 212-288 88-90 159-81 256 34 60 71 151 201 200 287 16 27 30 48 34 48 3 0 37-20 77-44 39-24 105-61 147-82 91-44 133-42 185 10 42 42 82 170 118 377l6 36 78-13c42-8 127-17 187-20 104-6 112-5 145 18 19 13 44 41 54 62 18 37 19 48 8 175-12 137-35 267-67 374-16 57-17 57-55 57-21 0-91 9-155 20s-118 20-120 20-8-39-15-87c-15-112-53-301-75-377-33-113-111-166-195-133-47 18-154 90-234 155l-59 49-78-156c-80-160-196-348-241-389-52-47-124-47-176 0-46 42-163 232-242 389l-77 156-91-71c-138-108-197-141-253-141-39 0-53 5-79 30-18 17-38 43-46 58-21 39-68 248-90 395-14 98-21 122-33 121-9-1-59-10-111-19z"/>
              <path d="m4890 4690c-52-10-116-19-142-19l-47-1-21-67c-29-95-59-273-66-400-6-124 5-160 66-201 33-23 40-24 145-18 61 3 144 12 186 19l76 14 21-107c48-241 93-330 176-346 32-5 51-1 109 27 39 19 104 55 144 82 41 26 77 47 82 47 4 0 30-37 56-81 60-101 150-223 212-288 88-90 159-81 256 34 60 71 151 201 200 287 16 27 30 48 34 48 3 0 37-20 77-44 39-24 105-61 147-82 91-44 133-42 185 10 42 42 82 170 118 377l6 36 78-13c42-8 127-17 187-20 104-6 112-5 145 18 19 13 44 41 54 62 18 37 19 48 8 175-12 137-35 267-67 374-16 57-17 57-55 57-21 0-91 9-155 20s-118 20-120 20-8-39-15-87c-15-112-53-301-75-377-33-113-111-166-195-133-47 18-154 90-234 155l-59 49-78-156c-80-160-196-348-241-389-52-47-124-47-176 0-46 42-163 232-242 389l-77 156-91-71c-138-108-197-141-253-141-39 0-53 5-79 30-18 17-38 43-46 58-21 39-68 248-90 395-14 98-21 122-33 121-9-1-59-10-111-19z"/>
            </g>
          </g>
        </g>
      </g>
    </g>
    <g aria-label="Forschungsmittel.com" fill="#23272b">
      <path d="m18.56 3.2031h2.944v0.56h-2.24v2.032h2.056v0.56h-2.056v2.688h-0.704z"/>
      <path d="m22.78 8.4511q0.272 0.144 0.672 0.144t0.664-0.144q0.272-0.152 0.4-0.424 0.128-0.28 0.176-0.576 0.056-0.304 0.056-0.696t-0.056-0.688q-0.048-0.304-0.176-0.576-0.128-0.28-0.4-0.424-0.264-0.152-0.664-0.152t-0.672 0.152q-0.264 0.144-0.4 0.424-0.128 0.272-0.176 0.568t-0.048 0.696 0.048 0.696 0.176 0.576q0.136 0.272 0.4 0.424zm2.656-1.696q0 2.4-1.984 2.4t-1.984-2.4 1.984-2.4 1.984 2.4z"/>
      <path d="m26.904 9.0431h-0.688v-4.576h0.408l0.248 0.816q0.56-0.888 1.64-0.928v0.632q-1.08 0.04-1.608 0.912z"/>
      <path d="m30.58 6.4911q0.72 0.176 1.024 0.472 0.312 0.288 0.312 0.872 0 0.576-0.432 0.936t-1.28 0.36-1.232-0.32q-0.376-0.328-0.48-0.944l0.56-0.088q0.12 0.808 1.096 0.808 1.08 0 1.08-0.728 0-0.32-0.2-0.472-0.192-0.152-0.696-0.28l-0.456-0.112q-0.696-0.176-0.992-0.464-0.288-0.288-0.288-0.872 0-0.592 0.416-0.944 0.416-0.36 1.224-0.36 0.816 0 1.176 0.328 0.368 0.32 0.472 0.936l-0.568 0.088q-0.104-0.808-1.024-0.808-1.008 0-1.008 0.728 0 0.32 0.184 0.48 0.184 0.152 0.648 0.272z"/>
      <path d="m32.952 6.7551q0 0.392 0.048 0.696t0.176 0.576q0.264 0.568 1 0.568 0.6 0 0.856-0.232 0.264-0.24 0.288-0.704l0.56 0.024q-0.056 0.712-0.448 1.096-0.392 0.376-1.28 0.376-1.256 0-1.664-1.024-0.224-0.56-0.224-1.224t0.08-1.056q0.08-0.4 0.28-0.76 0.416-0.736 1.528-0.736 0.888 0 1.28 0.368 0.392 0.36 0.44 1.048l-0.552 0.08q-0.024-0.464-0.288-0.696-0.256-0.24-0.856-0.24-0.736 0-1 0.568-0.224 0.472-0.224 1.272z"/>
      <path d="m37.268 4.8911q0.76-0.536 1.52-0.536 0.768 0 1.088 0.36 0.32 0.352 0.32 1.08v3.248h-0.688v-3.232q0-0.48-0.184-0.688t-0.616-0.208q-0.744 0-1.44 0.536v3.592h-0.688v-6.064l0.688-0.08z"/>
      <path d="m42.584 9.1551q-0.712 0-1.032-0.352-0.32-0.36-0.32-1.072v-3.264h0.688v3.216q0 0.472 0.2 0.696 0.208 0.216 0.64 0.216 0.776 0 1.448-0.792v-3.336h0.688v4.576h-0.456l-0.216-0.68q-0.744 0.792-1.64 0.792z"/>
      <path d="m46.692 4.9471q0.808-0.592 1.592-0.592t1.104 0.36q0.32 0.352 0.32 1.08v3.248h-0.688v-3.232q0-0.48-0.184-0.688t-0.616-0.208q-0.744 0-1.44 0.536v3.592h-0.688v-4.576h0.408z"/>
      <path d="m53.624 7.0751q-0.176 0.24-0.528 0.384-0.344 0.144-0.824 0.144t-0.848-0.144l-0.36 0.352q-0.184 0.176-0.184 0.4 0 0.296 0.368 0.296h1.792q0.584 0 0.912 0.312 0.336 0.304 0.336 0.752 0 0.456-0.176 0.72-0.176 0.272-0.504 0.4-0.568 0.216-1.472 0.216t-1.4-0.24q-0.488-0.232-0.488-0.792 0-0.552 0.48-0.896-0.456-0.176-0.456-0.688 0-0.384 0.336-0.72l0.384-0.384q-0.424-0.416-0.424-1.208 0-0.64 0.328-1.096 0.176-0.24 0.52-0.384 0.352-0.144 0.808-0.144 0.464 0 0.784 0.112h1.208v0.456h-0.568q0.304 0.416 0.304 1.056t-0.328 1.096zm-1.368-2.224q-1.024 0-1.024 1.128t1.024 1.128q1.032 0 1.032-1.128t-1.032-1.128zm-1.36 4.848q0 0.4 0.328 0.528t1.016 0.128q0.696 0 1.016-0.144 0.328-0.136 0.328-0.584 0-0.312-0.232-0.448-0.224-0.136-0.528-0.136h-1.6q-0.328 0.264-0.328 0.656z"/>
      <path d="m56.556 6.4911q0.72 0.176 1.024 0.472 0.312 0.288 0.312 0.872 0 0.576-0.432 0.936t-1.28 0.36-1.232-0.32q-0.376-0.328-0.48-0.944l0.56-0.088q0.12 0.808 1.096 0.808 1.08 0 1.08-0.728 0-0.32-0.2-0.472-0.192-0.152-0.696-0.28l-0.456-0.112q-0.696-0.176-0.992-0.464-0.288-0.288-0.288-0.872 0-0.592 0.416-0.944 0.416-0.36 1.224-0.36 0.816 0 1.176 0.328 0.368 0.32 0.472 0.936l-0.568 0.088q-0.104-0.808-1.024-0.808-1.008 0-1.008 0.728 0 0.32 0.184 0.48 0.184 0.152 0.648 0.272z"/>
      <path d="m60.728 4.3551q0.928 0 1.248 0.632 0.296-0.264 0.704-0.448 0.416-0.184 0.856-0.184 1.392 0 1.392 1.432v3.256h-0.688v-3.216q0-0.448-0.192-0.68t-0.624-0.232q-0.712 0-1.312 0.544 0.024 0.16 0.024 0.328v3.256h-0.688v-3.216q0-0.448-0.192-0.68t-0.632-0.232q-0.696 0-1.28 0.504v3.624h-0.688v-4.576h0.424l0.176 0.456q0.672-0.568 1.472-0.568z"/>
      <path d="m66.044 4.4671h0.688v4.576h-0.688zm0.344-0.768q-0.408 0-0.408-0.44 0-0.448 0.408-0.448 0.424 0 0.424 0.448 0 0.44-0.424 0.44z"/>
      <path d="m67.248 4.9391v-0.472h0.784v-0.832l0.688-0.272v1.104h0.968v0.472h-0.968v3.032q0 0.36 0.096 0.512 0.104 0.144 0.296 0.144t0.472-0.064l0.08 0.464q-0.432 0.128-0.736 0.128-0.296 0-0.488-0.096t-0.272-0.288q-0.136-0.288-0.136-0.776v-3.056z"/>
      <path d="m69.508 4.9391v-0.472h0.784v-0.832l0.688-0.272v1.104h0.968v0.472h-0.968v3.032q0 0.36 0.096 0.512 0.104 0.144 0.296 0.144t0.472-0.064l0.08 0.464q-0.432 0.128-0.736 0.128-0.296 0-0.488-0.096t-0.272-0.288q-0.136-0.288-0.136-0.776v-3.056z"/>
      <path d="m73.976 9.1551q-1.048 0-1.496-0.592-0.448-0.6-0.448-1.808 0-2.4 1.912-2.4 1.888 0 1.888 2.304v0.168h-3.12q8e-3 0.944 0.288 1.36 0.28 0.408 0.976 0.408 1.136 0 1.216-0.92l0.568 0.032q-0.152 1.448-1.784 1.448zm1.168-2.84q-0.04-0.672-0.304-1.032-0.264-0.368-0.888-0.368t-0.896 0.376q-0.272 0.368-0.328 1.024z"/>
      <path d="m77.26 9.0431h-0.688v-6.064l0.688-0.096z"/>
      <path d="m78.928 8.8591q-0.016 0.088-0.12 0.168t-0.296 0.08q-0.184 0-0.288-0.08-0.096-0.08-0.12-0.168-0.016-0.096-0.016-0.216 0-0.128 8e-3 -0.2 0.016-0.072 0.056-0.152 0.064-0.168 0.352-0.168t0.368 0.136q0.08 0.128 0.08 0.32 0 0.184-0.024 0.28z"/>
      <path d="m80.052 6.7551q0 0.392 0.048 0.696t0.176 0.576q0.264 0.568 1 0.568 0.6 0 0.856-0.232 0.264-0.24 0.288-0.704l0.56 0.024q-0.056 0.712-0.448 1.096-0.392 0.376-1.28 0.376-1.256 0-1.664-1.024-0.224-0.56-0.224-1.224t0.08-1.056q0.08-0.4 0.28-0.76 0.416-0.736 1.528-0.736 0.888 0 1.28 0.368 0.392 0.36 0.44 1.048l-0.552 0.08q-0.024-0.464-0.288-0.696-0.256-0.24-0.856-0.24-0.736 0-1 0.568-0.224 0.472-0.224 1.272z"/>
      <path d="m84.576 8.4511q0.272 0.144 0.672 0.144t0.664-0.144q0.272-0.152 0.4-0.424 0.128-0.28 0.176-0.576 0.056-0.304 0.056-0.696t-0.056-0.688q-0.048-0.304-0.176-0.576-0.128-0.28-0.4-0.424-0.264-0.152-0.664-0.152t-0.672 0.152q-0.264 0.144-0.4 0.424-0.128 0.272-0.176 0.568t-0.048 0.696 0.048 0.696 0.176 0.576q0.136 0.272 0.4 0.424zm2.656-1.696q0 2.4-1.984 2.4t-1.984-2.4 1.984-2.4 1.984 2.4z"/>
      <path d="m90.084 4.3551q0.928 0 1.248 0.632 0.296-0.264 0.704-0.448 0.416-0.184 0.856-0.184 1.392 0 1.392 1.432v3.256h-0.688v-3.216q0-0.448-0.192-0.68t-0.624-0.232q-0.712 0-1.312 0.544 0.024 0.16 0.024 0.328v3.256h-0.688v-3.216q0-0.448-0.192-0.68t-0.632-0.232q-0.696 0-1.28 0.504v3.624h-0.688v-4.576h0.424l0.176 0.456q0.672-0.568 1.472-0.568z"/>
    </g>
  </symbol>
  <use href="#logo"/>
</svg>
